<?xml version="1.0" encoding="UTF-8" standalone="no"?>
<!-- Created with Inkscape (http://www.inkscape.org/) -->

<svg
   xmlns:dc="http://purl.org/dc/elements/1.1/"
   xmlns:cc="http://creativecommons.org/ns#"
   xmlns:rdf="http://www.w3.org/1999/02/22-rdf-syntax-ns#"
   xmlns:svg="http://www.w3.org/2000/svg"
   xmlns="http://www.w3.org/2000/svg"
   xmlns:sodipodi="http://sodipodi.sourceforge.net/DTD/sodipodi-0.dtd"
   xmlns:inkscape="http://www.inkscape.org/namespaces/inkscape"
   width="2235.7288"
   height="1323.67"
   id="svg29497"
   version="1.1"
   inkscape:version="0.48.4 r9939"
   sodipodi:docname="chart.svg">
  <defs
     id="defs29499" />
  <sodipodi:namedview
     id="base"
     pagecolor="#ffffff"
     bordercolor="#666666"
     borderopacity="1.0"
     inkscape:pageopacity="0.0"
     inkscape:pageshadow="2"
     inkscape:zoom="0.20525002"
     inkscape:cx="1462.8548"
     inkscape:cy="148.69212"
     inkscape:document-units="px"
     inkscape:current-layer="layer1"
     showgrid="false"
     inkscape:object-nodes="true"
     inkscape:snap-global="true"
     fit-margin-top="0"
     fit-margin-left="0"
     fit-margin-right="0"
     fit-margin-bottom="0"
     inkscape:window-width="1366"
     inkscape:window-height="726"
     inkscape:window-x="1280"
     inkscape:window-y="22"
     inkscape:window-maximized="1" />
  <metadata
     id="metadata29502">
    <rdf:RDF>
      <cc:Work
         rdf:about="">
        <dc:format>image/svg+xml</dc:format>
        <dc:type
           rdf:resource="http://purl.org/dc/dcmitype/StillImage" />
        <dc:title></dc:title>
      </cc:Work>
    </rdf:RDF>
  </metadata>
  <g
     inkscape:label="Layer 1"
     inkscape:groupmode="layer"
     id="layer1"
     transform="translate(101.12701,151.04087)">
    <path
       style="opacity:0.5;fill:none;stroke:#000000;stroke-width:1.28562176;stroke-linecap:butt;stroke-linejoin:miter;stroke-miterlimit:4;stroke-opacity:1;stroke-dasharray:none;stroke-dashoffset:0"
       d="m -17.184004,957.15257 2092.906704,0"
       id="path29599"
       inkscape:connector-curvature="0" />
    <path
       style="fill:none;stroke:#0c4bc3;stroke-width:3.21405435;stroke-linecap:butt;stroke-linejoin:miter;stroke-miterlimit:4;stroke-opacity:1;stroke-dasharray:none"
       d="m 176.5246,834.02945 c 29.23071,-7.06802 36.74718,-18.17488 40.92299,-23.22347 4.17581,-5.04858 10.85711,-8.07773 14.19777,-9.08744 3.34065,-1.00971 22.5494,0.50486 23.38455,-2.01943 0.83517,-2.52429 22.5494,-26.75747 30.90103,-30.29148 8.35164,-3.534 36.74717,-9.5923 39.25266,-9.5923 2.50549,0 36.74715,-34.33034 50.10978,-39.37892 13.3626,-5.04858 20.87906,-3.02915 20.87906,-3.02915 l 5.84615,-13.63116 c 0,0 20.0439,-12.62145 20.87906,-14.13602 0.83517,-1.51458 22.54939,-32.81577 22.54939,-32.81577 0,0 29.2307,4.03886 40.92299,0.50486 11.69228,-3.53401 25.05487,-9.08744 25.05487,-9.08744 l 27.56038,-10e-6 -27.56038,10e-6 c 11.6923,-1.00972 28.39555,0.50485 32.57136,-6.0583 4.17581,-6.56315 5.01098,-4.54372 10.85712,-5.55344 5.84615,-1.00971 11.69228,-3.02915 13.3626,-6.0583 1.67034,-3.02914 20.87908,-31.80604 20.87908,-31.80604 0,0 23.38456,5.55344 31.73619,-6.56315 8.35162,-12.1166 21.71423,-27.7672 30.90102,-32.81577 9.18679,-5.04858 26.72521,-5.55344 31.73619,-7.57287 5.01098,-2.01944 17.53842,-15.6506 22.5494,-16.15545 5.01098,-0.50486 11.69228,-11.61174 25.05489,-14.64089 13.3626,-3.02914 24.21972,0.50486 36.74715,-13.1263 12.52746,-13.63117 23.38457,-24.23319 38.4175,-27.26234 15.03292,-3.02915 22.5494,1.51458 30.90102,-7.06801 8.35164,-8.58258 21.71425,-23.72832 26.72521,-25.24289 5.01098,-1.51458 19.20876,-1.00972 39.25266,-8.58259 20.04391,-7.57287 35.91201,-19.18459 35.91201,-19.18459 0,0 25.05488,-4.03888 35.912,-6.56317 10.85711,-2.52428 18.37359,-15.65059 24.21972,-21.20403 5.84618,-5.55344 10.02198,-7.06801 20.04388,-7.57286 10.022,-0.50486 21.7143,4.03886 30.901,-6.56316 9.1868,-10.60202 21.7143,-21.20403 30.9011,-26.75747 9.1868,-5.55344 16.7032,-9.08744 23.3845,-8.58258 6.6813,0.50485 17.5385,1.51456 20.8791,-1.51458 3.3407,-3.02915 1.6703,-13.12631 6.6813,-16.66031 5.011,-3.534 11.6923,-8.58259 17.5384,-10.09716 5.8462,-1.51457 11.6923,-5.55343 14.1978,-8.58258 2.5055,-3.02915 17.5384,2.52429 25.0549,-4.03887 7.5165,-6.56315 33.4065,-45.94207 40.0878,-51.49551 6.6813,-5.55344 7.5165,-7.57287 7.5165,-7.57287 0,0 22.5494,-3.534 25.89,-8.07773 3.3407,-4.54371 30.901,-30.29147 35.912,-32.31091 5.011,-2.01942 26.7252,-6.05829 31.7362,-7.57286 5.011,-1.51458 12.5275,-15.14574 18.3736,-15.6506 5.8461,-0.50486 13.3626,-1.00972 13.3626,-1.00972 0,0 11.6923,-15.65059 19.2087,-16.66031 7.5165,-1.00972 40.0879,-3.534 46.7692,-7.06801 6.6813,-3.53401 12.5274,-8.58258 12.5274,-8.58258 0,0 7.5165,-1.00972 12.5275,-0.50487 5.0109,0.50487 12.5274,-6.56315 19.2087,-7.57286 6.6813,-1.00971 18.3736,0.50485 20.8791,-3.53401 2.5055,-4.03887 7.5164,0 11.6923,-2.01943 4.1758,-2.01944 7.5164,-14.13603 25.89,-20.19432 18.3736,-6.0583 13.3626,2.01943 15.0329,0 1.6704,-2.01943 15.033,-16.155452 29.2307,-25.242895 14.1978,-9.087444 10.022,-7.068012 19.2088,-10.097159 9.1868,-3.029148 19.2087,-2.019433 22.5494,-3.029148 3.3406,-1.009716 17.5384,-27.767187 30.0658,-31.301193 12.5275,-3.534006 5.8462,-4.543721 15.8681,-5.04858 10.022,-0.504857 35.9121,-2.019431 44.2636,-6.058295 8.3517,-4.038863 22.5495,-13.126306 30.066,-14.64088 7.5164,-1.514574 18.3736,-1.514574 21.7142,-1.009716 3.3407,0.504858 15.868,-8.0777273 25.0549,-12.1165909 9.1867,-4.03886361 28.3954,-7.0680113 32.5712,-7.0680113 4.1759,0 16.7034,0.5048579 16.7034,0.5048579 0,0 10.022,-8.0777277 16.7032,-9.0874427 6.6813,-1.009716 14.1978,1.009715 17.5385,-2.52429 3.3406,-3.534006 8.3515,-9.592301 13.3625,-12.11659 5.0111,-2.524291 20.8791,-4.543723 25.0549,-4.038865 4.1759,0.504859 12.5274,-5.048579 17.5385,-8.077727 5.0108,-3.029148 16.7032,-5.048579 20.879,-6.058295 4.1759,-1.009716 1.6703,-8.077728 9.1867,-9.592301 7.5165,-1.514574 16.7034,2.019432 21.7143,1.514573 5.0111,-0.504857 16.7032,-18.174885 22.5495,-17.16517 5.8461,1.009717 12.5273,0.504858 19.2086,-5.048579"
       id="path29589"
       inkscape:connector-curvature="0"
       sodipodi:nodetypes="cssssssccscsc" />
    <path
       style="fill:none;stroke:#1bc484;stroke-width:3.21405435;stroke-linecap:butt;stroke-linejoin:miter;stroke-miterlimit:4;stroke-opacity:1;stroke-dasharray:none"
       d="m 199.074,834.53431 -22.5494,-0.50486 c 0,0 16.28568,0 20.87908,-0.25243 4.5934,-0.25242 17.12083,-1.51457 21.29665,-2.52429 4.17582,-1.00971 18.37358,-2.52429 20.87907,-2.77672 2.50549,-0.25242 20.46149,0 22.96699,-0.25242 2.50549,-0.25243 7.09888,-7.32045 10.43953,-7.32045 3.34065,0 10.02196,-0.50486 15.03292,-4.03886 5.01098,-3.534 5.84615,-2.27186 17.12085,-3.02915 11.2747,-0.75728 18.79116,-0.25243 21.71423,-1.00971 2.92308,-0.7573 5.42857,0 10.02196,-3.02915 4.5934,-3.02915 8.35163,-2.27186 12.52744,-4.54372 4.17581,-2.27187 10.85711,-12.62145 16.28568,-14.38846 5.42855,-1.767 24.21972,-1.26214 30.90102,-2.52428 6.6813,-1.26215 12.94502,-1.51458 17.53842,-2.27186 4.59339,-0.75729 7.09888,-6.81558 9.60438,-7.32045 2.50549,-0.50486 8.35162,0.25244 12.10985,-1.26214 3.75824,-1.51457 7.51647,-6.31072 11.2747,-6.81558 3.75824,-0.50486 17.12084,1.51457 18.79117,0.75728 1.67032,-0.75728 6.26371,-12.11659 13.3626,-14.64088 7.09889,-2.52429 5.42857,-5.30101 17.53842,-8.83501 12.10987,-3.53401 5.84615,-5.30101 17.53842,-8.33016 11.69228,-3.02915 9.18679,-3.02915 22.54939,-3.28158 13.36261,-0.25242 17.53844,-0.50485 23.38457,-7.32043 5.84613,-6.81558 5.01098,-12.11659 12.10987,-15.90302 7.09887,-3.78645 7.51645,-6.81559 14.61534,-7.82531 7.09889,-1.00971 22.5494,-0.25243 25.05489,-1.00971 2.50549,-0.75729 15.45051,-9.84474 20.87908,-13.12631 5.42855,-3.28158 24.21972,-12.36902 27.97794,-16.40788 3.75823,-4.03886 16.70327,-1.76701 19.20874,-2.27186 2.50549,-0.50486 24.63731,-22.46618 34.24168,-23.72833 9.60438,-1.26214 13.36261,0.25243 12.94502,-1.51457 -0.41756,-1.76701 9.60438,-4.54372 17.12085,-4.79615 7.51646,-0.25243 9.1868,1.26215 20.04391,-9.84473 10.85712,-11.10688 10.02195,-11.61173 18.79116,-14.64088 8.76922,-3.02915 6.26373,-12.87388 29.2307,-12.87388 22.96698,0 27.14279,-1.00972 35.912,-5.55344 8.76921,-4.54372 17.12085,-10.34958 20.04391,-12.36902 2.92307,-2.01943 7.51647,-9.84472 7.51647,-9.84472 0,0 21.29666,1.51457 32.98893,-5.04859 11.69228,-6.56315 36.32958,-20.69917 39.25266,-21.20403 2.92307,-0.50485 24.6373,-0.25243 28.39553,-1.76701 3.75824,-1.51456 22.96698,-24.99046 39.67028,-29.28175 16.7032,-4.2913 25.0548,1.51457 33.4065,-3.78644 8.3516,-5.301 11.6922,-22.7186 17.5384,-25.74775 5.8461,-3.02915 20.4615,-20.44675 25.89,-22.21376 5.4286,-1.76699 18.7912,-0.50485 21.7143,-1.00971 2.923,-0.50486 6.2637,-1.51457 8.7692,-3.534 2.5055,-2.01944 8.3516,-19.1846 23.8021,-20.69918 15.4505,-1.51457 13.7802,-4.54373 16.2857,-5.55344 2.5055,-1.00971 32.1538,1.51458 33.8241,-3.28158 1.6703,-4.79615 12.945,-18.42731 27.1428,-21.96131 14.1978,-3.53401 5.4285,-5.55344 11.2747,-6.81558 5.8461,-1.26215 21.2966,1.76699 28.8131,-1.76701 7.5165,-3.534 10.8571,-13.8836 26.7252,-21.70889 15.8681,-7.8253 29.2307,-6.31072 37.1648,-8.83501 7.934,-2.5243 35.0768,-21.45647 41.3405,-22.71862 6.2638,-1.26214 34.2417,-0.25243 34.2417,-0.25243 l 7.9341,-3.28157 72.6591,0.25243 c 0,0 7.5165,-4.54372 9.6044,-5.30101 2.0879,-0.75729 8.7692,1.00972 10.4395,-1.767 1.6704,-2.77672 3.7583,-10.85445 7.9341,-13.37874 4.1758,-2.52428 6.2637,-5.04857 8.7692,-6.56315 2.5055,-1.51457 20.4615,-0.75729 24.6373,-1.767 4.1758,-1.00972 17.1208,-12.36902 21.2967,-14.38845 4.1758,-2.01944 16.2856,-8.83502 30.4834,-10.85445 14.1978,-2.01943 25.89,-1.51457 28.8131,-2.5243 2.9231,-1.00971 15.0329,-29.02932 22.1318,-37.35948 7.0989,-8.33016 13.3626,-11.35931 16.2858,-12.36902 2.9229,-1.00971 19.2086,0.50486 22.5493,-0.50485 3.3406,-1.00973 2.5054,-21.96133 11.2746,-27.00991 8.7692,-5.04858 25.4726,-28.7769 34.6593,-33.32062 9.1869,-4.54373 26.3077,-1.26215 28.3956,-3.02915 2.0879,-1.767 12.1098,-17.92245 24.2197,-20.9516 12.1098,-3.02915 15.8682,-3.02915 17.5384,-4.03887 1.6704,-1.00972 5.4286,-5.04858 7.5165,-5.80587 2.0879,-0.75728 11.2746,-0.25243 16.7032,-1.00971 5.4286,-0.75729 9.6044,-7.82529 11.2748,-8.07773 1.6703,-0.25243 6.2636,0.25244 11.2747,-0.25243 5.0108,-0.50486 7.5165,-3.02915 10.4394,-5.301 2.9231,-2.27186 6.6815,-18.67975 12.5275,-19.94189 5.8461,-1.26215 5.0109,-2.01944 14.6153,-2.77672 9.6045,-0.75729 26.7254,-0.50486 26.7254,-0.50486 0,0 19.2086,-15.398168 33.8241,-16.912742 14.6153,-1.514574 27.5603,-1.514574 27.5603,-1.514574 0,0 16.2857,-11.864162 19.2087,-13.378735 2.9231,-1.514574 20.044,-5.553438 20.044,-5.553438"
       id="path29591"
       inkscape:connector-curvature="0" />
    <path
       style="fill:none;stroke:#363f87;stroke-width:3.21405435;stroke-linecap:butt;stroke-linejoin:miter;stroke-miterlimit:4;stroke-opacity:1;stroke-dasharray:none"
       d="m 171.51363,1171.0221 c 2.50549,-0.7573 11.69228,-2.7767 15.86809,-5.8058 4.17583,-3.0292 8.35164,-6.8157 10.85713,-7.5729 2.50547,-0.7573 8.35162,-1.0097 10.85711,-4.0389 2.5055,-3.0291 17.12084,-20.1942 19.62633,-20.4467 2.50549,-0.2524 5.84613,2.0194 17.12083,-0.7573 11.2747,-2.7767 9.18679,-6.0583 12.10987,-8.835 2.92307,-2.7767 15.45051,-8.0777 17.12083,-10.602 1.67032,-2.5243 8.35164,-6.8157 8.35164,-6.8157 0,0 10.85712,3.2816 10.43953,1.0098 -0.41758,-2.2718 5.01098,-3.2816 8.76921,-4.7961 3.75823,-1.5147 3.75823,-2.2719 9.60438,-2.5243 5.84613,-0.2524 12.52743,0 12.94502,-1.0098 0.41758,-1.0097 1.67032,-6.5632 12.52743,-10.3495 10.85712,-3.7865 12.10987,-5.8059 15.8681,-6.0583 3.75824,-0.2525 8.35162,5.301 11.2747,4.2912 2.92307,-1.0096 7.09889,-4.0388 10.85711,-5.301 3.75825,-1.2621 20.87908,-5.5534 20.87908,-5.5534 0,0 3.34066,-12.8739 7.51647,-15.903 4.17581,-3.0292 5.42855,-7.3204 11.69227,-11.1069 6.26373,-3.7864 7.51647,-3.2816 10.85713,-6.3108 3.34064,-3.029 4.5934,-13.8835 8.35162,-16.1554 3.75823,-2.2719 6.26372,-6.3107 9.1868,-7.3204 2.92306,-1.0098 22.5494,0 22.5494,0 0,0 8.35162,18.6797 10.02194,18.6797 1.67032,0 8.35164,5.301 10.43955,6.5632 2.0879,1.2621 6.26372,-2.2718 15.45051,0 9.18679,2.2718 15.86809,5.5534 15.86809,5.5534 0,0 16.70325,3.7864 21.71423,-3.534 5.01098,-7.3204 5.42855,-8.3302 7.93404,-7.068 2.50549,1.2621 7.51647,0.5049 10.85713,4.2913 3.34065,3.7865 9.18678,11.1069 10.43953,10.0971 1.25274,-1.0096 0,-4.5437 6.26372,-8.5825 6.26372,-4.0389 5.84614,-9.8448 7.93406,-12.3691 2.0879,-2.5242 1.67032,-2.5242 5.84613,-3.0291 4.17581,-0.5049 0.41759,-1.0097 13.36261,-1.2621 12.94502,-0.2524 20.0439,-3.534 24.21972,-3.0292 4.17581,0.5049 12.10986,-7.8252 13.3626,-11.3593 1.25275,-3.534 6.26372,-5.301 9.60438,-5.8059 3.34064,-0.5048 3.75823,2.2719 10.02194,3.2816 6.26374,1.0097 12.52746,1.0097 18.79118,0 6.26371,-1.0097 5.42856,1.2621 10.85711,2.7768 5.42857,1.5145 2.92307,-1.5147 10.85711,-0.7574 7.93406,0.7574 11.69229,3.5341 11.69229,3.5341 0,0 8.35162,-10.602 10.85711,-12.1166 2.50549,-1.5146 15.45051,1.2621 22.96698,-0.5049 7.51648,-1.767 5.42857,-2.7767 11.2747,-0.7572 5.84614,2.0194 4.17582,5.0485 10.85712,5.0485 6.6813,0 7.09889,0.2525 9.18679,0 2.08791,-0.2524 3.34066,-3.2816 9.18679,-4.2913 5.84614,-1.0097 34.24169,0.5049 41.34057,-2.0194 7.09887,-2.5243 16.28567,-11.86418 19.20874,-14.38847 2.92308,-2.5243 8.35163,-6.0583 15.8681,-6.0583 7.51647,0 12.52743,9.84473 16.28568,10.85444 3.75823,1.00972 8.76921,1.00972 13.78017,-1.26214 5.01098,-2.27186 3.34066,-3.534 8.35164,-2.01944 5.01097,1.51458 18.79116,8.58259 28.39553,2.77672 9.60438,-5.80586 7.51647,-7.82529 11.69229,-6.31072 4.17581,1.51458 7.93404,8.07773 7.93404,8.07773 0,0 2.50549,0 7.51647,-2.52429 5.01098,-2.52429 7.51647,-1.51457 14.19777,-1.76701 6.6813,-0.25243 10.43953,-2.52428 10.43953,-2.52428 0,0 5.01098,4.29129 7.93404,4.54372 2.92308,0.25243 7.09889,-1.00971 12.94506,-2.01944 5.8461,-1.00971 13.3626,0.25244 15.4505,1.00973 2.0879,0.75728 18.3736,4.79614 25.4724,1.51456 7.0989,-3.28157 7.5165,-5.55343 11.2747,-4.54371 3.7583,1.00971 5.4286,6.56315 12.9451,7.06801 7.5164,0.50485 9.1868,2.77672 14.6153,5.55349 5.4286,2.7767 4.5934,3.7863 15.033,3.7863 10.4395,0 19.2087,1.0098 22.1318,1.7671 2.923,0.7573 2.923,1.5145 5.4285,1.2621 2.5055,-0.2524 4.5934,-4.0388 10.8571,-5.0486 6.2638,-1.0096 11.6923,-0.5048 14.1978,-2.2718 2.5055,-1.76702 -0.4176,-3.53402 7.5165,-4.03888 7.934,-0.50486 28.8131,-5.301 33.4065,-7.32044 4.5934,-2.01943 5.011,-5.04858 6.6813,-5.04858 1.6703,0 8.3516,3.53401 10.4395,2.01943 2.0879,-1.51456 2.9231,-8.58258 8.3517,-13.88359 5.4285,-5.301 10.0219,-6.56315 15.0329,-10.60201 5.011,-4.03886 3.7582,-4.54373 12.5274,-6.31073 8.7692,-1.76701 17.1209,-2.27186 20.8791,-7.57287 3.7582,-5.301 7.5165,-7.32044 12.945,-4.79615 5.4286,2.52429 4.5934,3.02915 10.022,2.01943 5.4285,-1.00971 8.7692,-5.55343 12.1098,-7.82529 3.3407,-2.27187 7.0989,-2.5243 15.4506,-3.53401 8.3516,-1.00972 11.6922,-0.50486 15.0329,-2.52429 3.3406,-2.01943 6.6813,-3.28158 10.8571,-3.78643 4.1758,-0.50487 9.1868,3.28157 12.945,3.534 3.7583,0.25243 5.4286,2.52429 12.9451,1.26214 7.5164,-1.26214 2.0879,-0.25242 6.6813,-2.77672 4.5934,-2.52429 4.5934,-2.77672 7.934,-6.56315 3.3407,-3.78643 11.2747,-4.03886 15.0329,-4.79615 3.7583,-0.75729 15.4506,1.00972 20.8791,-0.25243 5.4286,-1.26214 4.1758,-3.534 11.2747,-3.534 7.0989,0 6.6813,-1.767 7.9341,-3.78644 1.2527,-2.01943 1.6703,-3.02914 5.0109,-6.81558 3.3407,-3.78644 7.9341,-3.78644 12.9451,-3.78644 5.0109,0 6.6813,-1.26214 9.6043,-3.02915 2.9231,-1.76699 6.2638,-2.52428 12.1099,-3.78643 5.8461,-1.26214 19.6263,-1.00971 25.4725,-1.00971 5.8461,0 9.6043,6.31072 14.6153,6.31072 5.011,0 7.5165,0.25243 11.2747,-0.75728 3.7582,-1.00972 2.5055,-1.76701 9.1868,-2.77672 6.6813,-1.00972 6.6813,0.50486 13.3626,-1.51458 6.6813,-2.01942 -0.8351,-1.51457 10.022,-2.77672 10.8571,-1.26214 11.2747,0 18.7911,-2.27185 7.5165,-2.27187 9.1868,-5.80587 11.6923,-6.0583 2.5055,-0.25244 7.5165,-0.50486 9.6044,-1.51458 2.0879,-1.00971 2.923,-1.767 7.934,-2.52429 5.011,-0.75728 12.5275,-1.51457 12.5275,-1.51457 6.2637,-6.31072 7.934,-9.84473 10.0219,-10.34959 2.0879,-0.50486 7.5165,-2.01943 10.022,1.26215 2.5055,3.28158 4.1758,10.85444 7.0989,13.63116 2.923,2.77672 14.6153,14.13603 20.0438,15.65059 5.4286,1.51458 13.7803,1.26215 16.7034,0.50487 2.923,-0.75729 6.2636,-4.2913 7.0988,-1.76701 0.8352,2.52429 7.0988,30.79634 10.4396,32.31091 3.3407,1.51457 15.4505,9.5923 22.5493,16.66031 7.099,7.06802 12.9451,10.60202 15.8682,10.85445 2.923,0.25243 4.5934,1.767 12.9449,1.00971 8.3517,-0.75728 11.2748,0 16.2857,1.26216 5.011,1.26214 10.8571,6.56315 13.7802,6.56315 2.9232,0 14.6153,-2.52429 19.6264,0.50485 5.0109,3.02915 8.3515,8.33016 13.7801,8.33016 5.4285,0 15.8681,0.50486 19.6263,0.25243 3.7583,-0.25243 6.2638,1.26214 7.9342,1.767 1.6702,0.50486 9.6042,-6.56316 13.3626,-3.78644 3.7581,2.77672 5.4285,2.27187 8.3515,5.55344 2.9231,3.28158 5.011,8.83502 6.2637,11.10688 1.2528,2.27185 3.7584,6.0583 3.7584,6.0583 0,0 3.7581,0 7.0988,-1.76701 3.3406,-1.76701 3.7581,-2.27186 8.3517,-3.78643 4.5933,-1.51458 6.6813,-1.51458 12.5273,-2.27187 5.8461,-0.75728 8.7692,-1.26214 11.2747,-2.52429 2.5056,-1.26214 2.9231,-1.76699 8.3517,-1.51457 5.4285,0.25243 7.0989,2.01943 10.0219,3.53401 2.9231,1.51457 -0.8352,3.28157 7.5165,2.01943 8.3517,-1.26215 9.6044,-0.75729 12.5274,-2.52429 2.9231,-1.767 0,-4.54372 6.2637,-5.04858 6.2638,-0.50486 6.2638,-0.25243 13.3626,-0.25243 7.099,0 11.6923,-2.27186 15.4507,-3.78643 3.7581,-1.51458 6.6812,0.25243 9.6042,1.26214 2.9231,1.00971 8.7692,4.2913 12.1099,3.28158 3.3406,-1.00972 2.0879,-0.75729 7.0989,-3.28158"
       id="path29593"
       inkscape:connector-curvature="0" />
    <path
       style="fill:none;stroke:#000000;stroke-width:1.28562176px;stroke-linecap:butt;stroke-linejoin:miter;stroke-opacity:1"
       d="m -17.184004,834.44802 2092.906704,0"
       id="path29595"
       inkscape:connector-curvature="0" />
    <path
       inkscape:connector-curvature="0"
       id="path29597"
       d="m -17.184004,1171.0601 2092.906704,0"
       style="fill:none;stroke:#000000;stroke-width:1.28562176px;stroke-linecap:butt;stroke-linejoin:miter;stroke-opacity:1" />
    <path
       style="fill:none;stroke:#000000;stroke-width:3.21405435;stroke-linecap:butt;stroke-linejoin:miter;stroke-miterlimit:4;stroke-opacity:1;stroke-dasharray:3.21405442, 12.85621768;stroke-dashoffset:0"
       d="M 458.80965,757.29104 2132.9948,44.911073"
       id="path30109"
       inkscape:connector-curvature="0"
       sodipodi:nodetypes="cc" />
    <path
       style="fill:none;stroke:#000000;stroke-width:3.21405435;stroke-linecap:butt;stroke-linejoin:miter;stroke-miterlimit:4;stroke-opacity:1;stroke-dasharray:3.21405442, 12.85621768;stroke-dashoffset:0"
       d="M 412.04053,696.70808 2132.476,-149.43384"
       id="path30111"
       inkscape:connector-curvature="0"
       sodipodi:nodetypes="cc" />
    <text
       xml:space="preserve"
       style="font-size:40px;font-style:normal;font-weight:normal;line-height:125%;letter-spacing:0px;word-spacing:0px;fill:#4d4d4d;fill-opacity:1;stroke:none;font-family:Sans"
       x="-105.52154"
       y="967.39679"
       id="text30113"
       sodipodi:linespacing="125%"><tspan
         sodipodi:role="line"
         id="tspan30115"
         x="-105.52154"
         y="967.39679">100</tspan></text>
    <path
       sodipodi:nodetypes="cc"
       inkscape:connector-curvature="0"
       id="path30174"
       d="M 433.2064,1026.0706 2031.349,966.40218"
       style="fill:none;stroke:#000000;stroke-width:3.21405435;stroke-linecap:butt;stroke-linejoin:miter;stroke-miterlimit:4;stroke-opacity:1;stroke-dasharray:3.21405442, 12.85621768;stroke-dashoffset:0" />
  </g>
</svg>
