<?xml version="1.0" encoding="UTF-8" standalone="no"?>
<!-- Created with Inkscape (http://www.inkscape.org/) -->

<svg
   xmlns:dc="http://purl.org/dc/elements/1.1/"
   xmlns:cc="http://creativecommons.org/ns#"
   xmlns:rdf="http://www.w3.org/1999/02/22-rdf-syntax-ns#"
   xmlns:svg="http://www.w3.org/2000/svg"
   xmlns="http://www.w3.org/2000/svg"
   version="1.2"
   width="214.26268"
   height="403.371"
   id="svg2">
  <defs
     id="defs4">
    <clipPath
       id="clipPath3588">
      <path
         d="m 2493.86,927.512 c -2.84,0 -5.69,0.609 -7.81,1.832 l -89.8,51.855 c -1.98,1.137 -3.88,3.227 -5.43,5.883 -1.54,2.664 -2.4,5.398 -2.41,7.664 l 0,1.496 5.41,-0.012 -0.02,-1.484 c 0,-1.301 0.64,-3.183 1.67,-4.961 1.02,-1.789 2.31,-3.269 3.48,-3.937 l 89.77,-51.832 c 1.28,-0.743 3.22,-1.11 5.15,-1.11 1.94,0 3.87,0.367 5.14,1.11 l 1.3,0.754 2.68,-4.696 -1.29,-0.73 c -2.13,-1.223 -4.99,-1.832 -7.84,-1.832"
         id="path3590" />
    </clipPath>
    <clipPath
       id="clipPath3576">
      <path
         d="m 2743.25,1071.52 -1.02,1.8 c 6.94,4.27 10.9,9.26 10.9,13.78 0,1.58 -0.48,3.25 -1.45,4.94 -1.93,3.34 -5.61,6.63 -10.64,9.53 l -323.79,186.96 c -5,2.89 -9.7,4.41 -13.57,4.42 -3.33,-0.01 -5.61,-1.05 -7.47,-3.35 -2.39,-2.98 -3.82,-8.1 -4.03,-14.19 l -2.05,0.02 c 0.17,6.63 1.75,12.1 4.49,15.48 2.18,2.75 5.15,4.09 9.06,4.09 4.21,0 9.3,-1.62 14.6,-4.68 l 323.82,-186.97 c 5.28,-3.05 9.23,-6.61 11.39,-10.29 1.13,-2.02 1.72,-4.01 1.72,-5.96 0,-5.26 -4.33,-10.89 -11.96,-15.58"
         id="path3578" />
    </clipPath>
    <clipPath
       id="clipPath3564">
      <path
         d="m 2742.78,1069.66 -2.38,4.14 c 7.12,4.12 11.39,9.09 11.39,13.3 0,4.2 -4.27,9.18 -11.38,13.29 l -323.87,186.97 c -4.78,2.77 -9.24,4.23 -12.86,4.23 -2.91,0 -4.8,-0.86 -6.42,-2.83 -2.38,-2.98 -3.74,-8.32 -3.74,-14.7 l -4.76,0 c 0,7.56 1.71,13.84 4.79,17.69 2.47,3.11 5.79,4.62 10.13,4.62 4.47,-0.01 9.75,-1.69 15.28,-4.87 l 323.84,-186.97 c 8.75,-5.07 13.77,-11.4 13.77,-17.42 0,-6.03 -5.02,-12.38 -13.79,-17.45 m -339.1,223.29 c 3.87,-0.01 8.57,-1.53 13.57,-4.42 l 323.79,-186.96 c 5.03,-2.9 8.71,-6.19 10.64,-9.53 0.97,-1.69 1.45,-3.36 1.45,-4.94 0,-4.52 -3.96,-9.51 -10.9,-13.78 l 1.02,-1.8 c 7.63,4.69 11.96,10.32 11.96,15.58 0,1.95 -0.59,3.94 -1.72,5.96 -2.16,3.68 -6.11,7.24 -11.39,10.29 l -323.82,186.97 c -5.3,3.06 -10.39,4.68 -14.6,4.68 -3.91,0 -6.88,-1.34 -9.06,-4.09 -2.74,-3.38 -4.32,-8.85 -4.49,-15.48 l 2.05,-0.02 c 0.21,6.09 1.64,11.21 4.03,14.19 1.86,2.3 4.14,3.34 7.47,3.35"
         id="path3566" />
    </clipPath>
    <clipPath
       id="clipPath3552">
      <path
         d="m 2742.02,1066.88 -4.4,7.66 1.74,1.02 c 6.4,3.69 10.39,8.11 10.39,11.54 0,0.97 -0.35,2.07 -1.02,3.25 -1.62,2.79 -4.94,5.73 -9.37,8.29 l -323.79,186.96 c -4.5,2.58 -8.61,3.95 -11.89,3.95 -2.27,0 -3.63,-0.58 -4.8,-2.08 -2.09,-2.55 -3.31,-7.59 -3.31,-13.41 l 0,-2.04 -8.89,0.01 0,2.03 c 0,8.02 1.88,14.74 5.26,18.96 2.88,3.55 6.79,5.38 11.74,5.38 4.82,-0.01 10.46,-1.78 16.28,-5.15 l 323.82,-186.95 c 5.82,-3.37 10.19,-7.35 12.6,-11.54 1.47,-2.55 2.21,-5.12 2.21,-7.66 0.02,-6.76 -5.39,-13.77 -14.81,-19.2 l -1.76,-1.02 m -338.34,224.71 c 3.62,0 8.08,-1.46 12.86,-4.23 l 323.87,-186.97 c 7.11,-4.11 11.38,-9.09 11.38,-13.29 0,-4.21 -4.27,-9.18 -11.39,-13.3 l 2.38,-4.14 c 8.77,5.07 13.79,11.42 13.79,17.45 0,6.02 -5.02,12.35 -13.77,17.42 l -323.84,186.97 c -5.53,3.18 -10.81,4.86 -15.28,4.87 -4.34,0 -7.66,-1.51 -10.13,-4.62 -3.08,-3.85 -4.79,-10.13 -4.79,-17.69 l 4.76,0 c 0,6.38 1.36,11.72 3.74,14.7 1.62,1.97 3.51,2.83 6.42,2.83"
         id="path3554" />
    </clipPath>
    <clipPath
       id="clipPath3540">
      <path
         d="m 2522.73,762.828 -1.26,0.731 c -4.24,2.453 -7.82,8.66 -7.82,13.55 l 0,103.704 c 0,2.265 0.86,4.98 2.39,7.652 1.51,2.68 3.45,4.765 5.4,5.91 l 1.3,0.742 2.71,-4.679 -1.29,-0.739 c -1.14,-0.66 -2.45,-2.121 -3.49,-3.906 -1.01,-1.797 -1.66,-3.652 -1.66,-4.98 l 0,-103.684 c 0,-2.953 2.61,-7.441 5.15,-8.91 l 1.29,-0.727 -2.72,-4.664"
         id="path3542" />
    </clipPath>
    <clipPath
       id="clipPath3528">
      <path
         d="m 2778.79,621.441 c -3.87,0 -8.48,1.36 -13.39,4.028 l 1.01,1.781 c 4.61,-2.488 8.86,-3.77 12.34,-3.77 1.94,0 3.65,0.399 5.05,1.192 1.36,0.816 2.59,2.058 3.55,3.769 1.93,3.329 2.94,8.161 2.94,13.938 l 0.01,373.931 c -0.01,5.78 -1.03,10.58 -2.97,13.94 -1.66,2.87 -3.72,4.35 -6.59,4.79 -0.59,0.09 -1.22,0.13 -1.88,0.13 -3.55,0 -7.93,-1.31 -12.45,-3.74 l -1.01,1.81 c 4.87,2.62 9.53,4.01 13.44,4.01 0.76,0 1.49,-0.05 2.2,-0.16 3.51,-0.54 6.15,-2.43 8.08,-5.79 2.12,-3.68 3.25,-8.86 3.25,-15.01 l 0,-373.911 c 0,-6.129 -1.11,-11.301 -3.25,-14.957 -1.16,-2.051 -2.63,-3.563 -4.3,-4.524 -1.68,-0.976 -3.73,-1.457 -6.03,-1.457"
         id="path3530" />
    </clipPath>
    <clipPath
       id="clipPath3516">
      <path
         d="m 2778.79,620.078 c -4.44,0 -9.71,1.641 -15.26,4.871 l 2.36,4.141 c 4.84,-2.789 9.35,-4.25 12.89,-4.25 1.7,0 3.17,0.34 4.36,1.019 3.6,2.11 5.82,8.282 5.82,16.52 l 0,373.911 c 0,5.55 -0.99,10.13 -2.8,13.3 -1.45,2.5 -3.14,3.73 -5.65,4.12 -0.53,0.08 -1.08,0.12 -1.66,0.12 -3.58,0 -8.19,-1.49 -12.96,-4.23 l -2.36,4.13 c 5.51,3.19 10.83,4.88 15.29,4.88 0.83,0 1.64,-0.06 2.41,-0.18 3.93,-0.59 6.9,-2.71 9.06,-6.45 2.26,-3.89 3.43,-9.31 3.45,-15.69 l 0,-373.911 c 0,-10.129 -3.02,-17.649 -8.23,-20.66 -1.9,-1.098 -4.18,-1.641 -6.72,-1.641 m -12.38,7.172 -1.01,-1.781 c 4.91,-2.668 9.52,-4.028 13.39,-4.028 2.3,0 4.35,0.481 6.03,1.457 1.67,0.961 3.14,2.473 4.3,4.524 2.14,3.656 3.25,8.828 3.25,14.957 l 0,373.911 c 0,6.15 -1.13,11.33 -3.25,15.01 -1.93,3.36 -4.57,5.25 -8.08,5.79 -0.71,0.11 -1.44,0.16 -2.2,0.16 -3.91,0 -8.57,-1.39 -13.44,-4.01 l 1.01,-1.81 c 4.52,2.43 8.9,3.74 12.45,3.74 0.66,0 1.29,-0.04 1.88,-0.13 2.87,-0.44 4.93,-1.92 6.59,-4.79 1.94,-3.36 2.96,-8.16 2.97,-13.94 l -0.01,-373.931 c 0,-5.777 -1.01,-10.609 -2.94,-13.938 -0.96,-1.711 -2.19,-2.953 -3.55,-3.769 -1.4,-0.793 -3.11,-1.192 -5.05,-1.192 -3.48,0 -7.73,1.282 -12.34,3.77"
         id="path3518" />
    </clipPath>
    <clipPath
       id="clipPath3504">
      <path
         d="m 2778.83,618.051 c -4.83,0 -10.46,1.738 -16.34,5.129 l -1.74,1.019 4.41,7.66 1.73,-1 c 4.5,-2.609 8.72,-3.988 11.85,-3.988 1.33,0 2.47,0.25 3.35,0.758 0.85,0.492 1.65,1.332 2.3,2.5 1.62,2.793 2.5,7.141 2.5,12.25 l 0.02,373.911 c -0.02,5.18 -0.87,9.41 -2.52,12.26 -1.11,1.97 -2.32,2.85 -4.18,3.15 -0.43,0.07 -0.88,0.1 -1.36,0.1 -3.2,0 -7.53,-1.42 -11.96,-3.97 l -1.73,-1.01 -4.41,7.67 1.74,1.02 c 5.83,3.36 11.52,5.13 16.36,5.13 0.94,0 1.84,-0.07 2.7,-0.2 4.5,-0.69 8.06,-3.19 10.52,-7.45 2.42,-4.19 3.66,-9.95 3.68,-16.7 l 0,-373.911 c 0,-6.719 -1.25,-12.469 -3.68,-16.68 -1.48,-2.519 -3.35,-4.48 -5.54,-5.758 -2.19,-1.261 -4.8,-1.89 -7.7,-1.89 m -12.94,11.039 -2.36,-4.141 c 5.55,-3.23 10.82,-4.871 15.26,-4.871 2.54,0 4.82,0.543 6.72,1.641 5.21,3.011 8.23,10.531 8.23,20.66 l 0,373.911 c -0.02,6.38 -1.19,11.8 -3.45,15.69 -2.16,3.74 -5.13,5.86 -9.06,6.45 -0.77,0.12 -1.58,0.18 -2.41,0.18 -4.46,0 -9.78,-1.69 -15.29,-4.88 l 2.36,-4.13 c 4.77,2.74 9.38,4.23 12.96,4.23 0.58,0 1.13,-0.04 1.66,-0.12 2.51,-0.39 4.2,-1.62 5.65,-4.12 1.81,-3.17 2.8,-7.75 2.8,-13.3 l 0,-373.911 c 0,-8.238 -2.22,-14.41 -5.82,-16.52 -1.19,-0.679 -2.66,-1.019 -4.36,-1.019 -3.54,0 -8.05,1.461 -12.89,4.25"
         id="path3506" />
    </clipPath>
    <clipPath
       id="clipPath3492">
      <path
         d="m 2393.18,662.063 -5.41,0 0,1.488 c 0,4.902 3.59,11.113 7.83,13.566 l 89.8,51.84 c 1.95,1.133 4.77,1.762 7.82,1.762 3.11,0 5.86,-0.629 7.83,-1.762 l 1.3,-0.738 -2.71,-4.672 -1.29,0.762 c -1.13,0.66 -3.03,1.035 -5.13,1.035 -2.09,0 -3.99,-0.375 -5.11,-1.055 l -89.81,-51.848 c -2.55,-1.464 -5.12,-5.929 -5.12,-8.89 l 0,-1.488"
         id="path3494" />
    </clipPath>
    <clipPath
       id="clipPath3480">
      <path
         d="m 2403.7,363.68 c -2.33,0 -4.36,0.492 -6.07,1.461 -4.51,2.64 -7.23,9.218 -7.48,18.121 l 2.06,0 c 0.22,-8.153 2.55,-14.071 6.45,-16.34 1.37,-0.801 3.08,-1.203 5.04,-1.203 3.85,0 8.53,1.543 13.55,4.429 l 323.83,186.973 c 4.99,2.879 8.64,6.16 10.61,9.527 1.65,2.883 1.88,5.372 0.81,8.133 -1.37,3.571 -5.07,7.367 -10.26,10.578 l 1.02,1.801 c 5.64,-3.488 9.59,-7.59 11.17,-11.629 1.28,-3.293 0.98,-6.543 -0.94,-9.922 -2.13,-3.668 -6.06,-7.23 -11.36,-10.308 l -323.85,-186.93 c -5.28,-3.082 -10.34,-4.691 -14.58,-4.691"
         id="path3482" />
    </clipPath>
    <clipPath
       id="clipPath3468">
      <path
         d="m 2403.69,362.309 c -2.54,0 -4.81,0.543 -6.72,1.652 -5.22,3 -8.21,10.527 -8.21,20.66 l 4.79,0 c 0,-8.25 2.14,-14.422 5.81,-16.519 1.17,-0.684 2.64,-1.012 4.33,-1.012 3.53,0 8.04,1.449 12.87,4.238 l 323.85,186.973 c 4.79,2.758 8.26,5.871 10.09,9.019 1.43,2.52 1.68,4.602 0.76,6.961 -1.4,3.539 -5.34,7.43 -10.85,10.61 l 2.39,4.14 c 6.52,-3.793 11.14,-8.41 12.9,-13.019 1.45,-3.692 1.12,-7.321 -1.04,-11.071 -2.24,-3.882 -6.36,-7.601 -11.86,-10.812 L 2418.96,367.18 c -5.58,-3.219 -10.83,-4.871 -15.27,-4.871 m -13.54,20.953 c 0.25,-8.903 2.97,-15.481 7.48,-18.121 1.71,-0.969 3.74,-1.461 6.07,-1.461 4.24,0 9.3,1.609 14.58,4.691 l 323.85,186.93 c 5.3,3.078 9.23,6.64 11.36,10.308 1.92,3.379 2.22,6.629 0.94,9.922 -1.58,4.039 -5.53,8.141 -11.17,11.629 l -1.02,-1.801 c 5.19,-3.211 8.89,-7.007 10.26,-10.578 1.07,-2.761 0.84,-5.25 -0.81,-8.133 -1.97,-3.367 -5.62,-6.648 -10.61,-9.527 L 2417.25,370.148 c -5.02,-2.886 -9.7,-4.429 -13.55,-4.429 -1.96,0 -3.67,0.402 -5.04,1.203 -3.9,2.269 -6.23,8.187 -6.45,16.34 l -2.06,0"
         id="path3470" />
    </clipPath>
    <clipPath
       id="clipPath3456">
      <path
         d="m 2403.7,360.281 c -2.94,0 -5.56,0.649 -7.75,1.918 -5.86,3.391 -9.27,11.551 -9.27,22.422 l 0,2.039 8.89,0 0,-2.019 c 0,-7.422 1.84,-13.051 4.79,-14.801 0.82,-0.461 1.91,-0.719 3.21,-0.719 0.04,0 0.09,0 0.13,0 3.22,0 7.43,1.41 11.87,3.969 l 323.81,186.949 c 4.47,2.59 7.68,5.449 9.35,8.313 1.13,1.949 1.29,3.429 0.63,5.187 -1.2,3.102 -4.94,6.68 -10,9.59 l -1.74,1 4.44,7.66 1.73,-1.008 c 6.98,-4.019 11.83,-9.011 13.81,-14.031 1.66,-4.238 1.27,-8.559 -1.2,-12.828 -2.41,-4.172 -6.76,-8.184 -12.61,-11.524 L 2419.96,365.441 c -5.81,-3.382 -11.44,-5.16 -16.26,-5.16 m -14.94,24.34 c 0,-10.133 2.99,-17.66 8.21,-20.66 1.91,-1.109 4.18,-1.652 6.72,-1.652 4.44,0 9.69,1.652 15.27,4.871 l 323.84,186.949 c 5.5,3.211 9.62,6.93 11.86,10.812 2.16,3.75 2.49,7.379 1.04,11.071 -1.76,4.609 -6.38,9.226 -12.9,13.019 l -2.39,-4.14 c 5.51,-3.18 9.45,-7.071 10.85,-10.61 0.92,-2.359 0.67,-4.441 -0.76,-6.961 -1.83,-3.148 -5.3,-6.261 -10.09,-9.019 L 2416.56,371.328 c -4.83,-2.789 -9.34,-4.238 -12.87,-4.238 -1.69,0 -3.16,0.328 -4.33,1.012 -3.67,2.097 -5.81,8.269 -5.81,16.519 l -4.79,0"
         id="path3458" />
    </clipPath>
    <clipPath
       id="clipPath3444">
      <path
         d="m 2347.61,662.418 -5.39,0.02 0,1.492 c 0,1.316 -0.64,3.156 -1.67,4.957 -1.01,1.797 -2.33,3.261 -3.45,3.922 l -89.82,51.851 c -1.28,0.738 -3.21,1.11 -5.14,1.11 -1.93,0 -3.85,-0.372 -5.12,-1.11 l -1.29,-0.746 -2.69,4.668 1.28,0.75 c 2.13,1.227 4.98,1.84 7.83,1.84 2.85,0 5.7,-0.613 7.82,-1.84 l 89.81,-51.852 c 1.97,-1.144 3.91,-3.242 5.41,-5.898 1.56,-2.684 2.41,-5.391 2.42,-7.652 l 0,-1.512"
         id="path3446" />
    </clipPath>
    <clipPath
       id="clipPath3432">
      <path
         d="m 2332.34,363.668 c -4.21,0 -9.28,1.613 -14.6,4.684 l -323.81,186.949 c -5.32,3.058 -9.24,6.64 -11.36,10.308 -1.16,2.032 -1.75,4.039 -1.75,5.981 0,5.238 4.36,10.871 11.97,15.57 l 1.01,-1.801 c -6.94,-4.281 -10.93,-9.25 -10.94,-13.769 0.01,-1.602 0.53,-3.27 1.49,-4.969 1.95,-3.34 5.6,-6.621 10.61,-9.5 l 323.81,-186.992 c 5.04,-2.867 9.71,-4.367 13.57,-4.41 3.33,0 5.64,1.062 7.46,3.351 2.42,2.981 3.84,8.09 4.01,14.192 l 2.09,-0.012 c -0.19,-6.609 -1.75,-12.09 -4.49,-15.469 -2.17,-2.761 -5.17,-4.113 -9.07,-4.113"
         id="path3434" />
    </clipPath>
    <clipPath
       id="clipPath3420">
      <path
         d="m 2332.34,362.32 c -4.47,0 -9.76,1.692 -15.27,4.86 l -323.84,186.949 c -8.75,5.07 -13.76,11.41 -13.76,17.461 0,6.012 5.02,12.379 13.76,17.422 l 2.4,-4.121 c -7.13,-4.153 -11.38,-9.102 -11.4,-13.301 0.02,-4.231 4.27,-9.192 11.4,-13.289 L 2319.48,371.32 c 4.81,-2.769 9.22,-4.23 12.86,-4.23 2.92,0 4.82,0.859 6.42,2.84 2.38,2.961 3.74,8.3 3.74,14.691 l 4.78,0 c 0,-7.562 -1.69,-13.859 -4.81,-17.68 -2.5,-3.132 -5.81,-4.621 -10.13,-4.621 m -339.55,224.84 c -7.61,-4.699 -11.97,-10.332 -11.97,-15.57 0,-1.942 0.59,-3.949 1.75,-5.981 2.12,-3.668 6.04,-7.25 11.36,-10.308 l 323.81,-186.949 c 5.32,-3.071 10.39,-4.684 14.6,-4.684 3.9,0 6.9,1.352 9.07,4.113 2.74,3.379 4.3,8.86 4.49,15.469 l -2.09,0.012 c -0.17,-6.102 -1.59,-11.211 -4.01,-14.192 -1.82,-2.289 -4.13,-3.351 -7.46,-3.351 -3.86,0.043 -8.53,1.543 -13.57,4.41 l -323.81,186.992 c -5.01,2.879 -8.66,6.16 -10.61,9.5 -0.96,1.699 -1.48,3.367 -1.49,4.969 0.01,4.519 4,9.488 10.94,13.769 l -1.01,1.801"
         id="path3422" />
    </clipPath>
    <clipPath
       id="clipPath3408">
      <path
         d="m 2332.34,360.281 c -4.81,0 -10.45,1.778 -16.3,5.129 l -323.79,186.961 c -5.86,3.367 -10.2,7.359 -12.61,11.539 -1.48,2.551 -2.2,5.121 -2.2,7.68 0,6.762 5.39,13.73 14.81,19.191 l 1.73,1.008 4.44,-7.66 -1.76,-1 c -6.41,-3.719 -10.37,-8.129 -10.37,-11.539 0,-1.012 0.32,-2.09 1,-3.27 1.63,-2.789 4.96,-5.742 9.37,-8.281 L 2320.48,373.07 c 4.48,-2.582 8.6,-3.949 11.86,-3.949 2.28,0 3.61,0.578 4.82,2.078 2.1,2.551 3.31,7.59 3.31,13.422 l 0,2.039 8.86,-0.019 0,-2.02 c -0.02,-8.019 -1.89,-14.762 -5.3,-18.973 -2.83,-3.558 -6.76,-5.367 -11.69,-5.367 m -339.11,228.731 c -8.74,-5.043 -13.76,-11.41 -13.76,-17.422 0,-6.051 5.01,-12.391 13.76,-17.461 L 2317.07,367.18 c 5.51,-3.168 10.8,-4.86 15.27,-4.86 4.32,0 7.63,1.489 10.13,4.621 3.12,3.821 4.81,10.118 4.81,17.68 l -4.78,0 c 0,-6.391 -1.36,-11.73 -3.74,-14.691 -1.6,-1.981 -3.5,-2.84 -6.42,-2.84 -3.64,0 -8.05,1.461 -12.86,4.23 l -323.85,186.981 c -7.13,4.097 -11.38,9.058 -11.4,13.289 0.02,4.199 4.27,9.148 11.4,13.301 l -2.4,4.121"
         id="path3410" />
    </clipPath>
    <clipPath
       id="clipPath3396">
      <path
         d="m 2213.28,763.559 -2.68,4.66 1.28,0.746 c 1.1,0.66 2.44,2.129 3.46,3.922 1.05,1.781 1.65,3.648 1.65,4.965 l 0,103.703 c 0,2.937 -2.59,7.418 -5.11,8.883 l -1.28,0.75 2.68,4.664 1.27,-0.754 c 4.26,-2.442 7.84,-8.641 7.84,-13.543 l 0,-103.703 c 0,-2.258 -0.88,-4.985 -2.39,-7.661 -1.51,-2.652 -3.48,-4.742 -5.44,-5.882 l -1.28,-0.75"
         id="path3398" />
    </clipPath>
    <clipPath
       id="clipPath3384">
      <path
         d="m 1957.21,621.422 c -0.77,0 -1.51,0.047 -2.22,0.156 -3.51,0.551 -6.16,2.442 -8.09,5.801 -2.12,3.66 -3.24,8.859 -3.24,15 l 0,373.901 c 0,6.13 1.12,11.32 3.24,14.98 1.18,2.02 2.62,3.55 4.27,4.51 1.71,0.98 3.77,1.47 6.08,1.47 3.87,0 8.48,-1.36 13.39,-4.02 l -1.03,-1.8 c -4.61,2.49 -8.85,3.77 -12.34,3.77 -1.94,0 -3.65,-0.4 -5.05,-1.21 -1.36,-0.77 -2.56,-2.05 -3.52,-3.74 -1.97,-3.35 -2.95,-8.15 -2.97,-13.96 l 0,-373.921 c 0,-5.738 1.02,-10.558 2.97,-13.949 1.64,-2.859 3.69,-4.332 6.6,-4.781 0.61,-0.09 1.24,-0.141 1.91,-0.141 3.53,0 7.9,1.321 12.4,3.762 l 1.02,-1.789 c -4.86,-2.652 -9.52,-4.039 -13.42,-4.039"
         id="path3386" />
    </clipPath>
    <clipPath
       id="clipPath3372">
      <path
         d="m 1957.23,620.07 c -0.84,0 -1.64,0.059 -2.42,0.18 -3.95,0.602 -6.93,2.699 -9.08,6.449 -2.25,3.903 -3.42,9.313 -3.44,15.68 l 0,373.901 c 0,10.14 3,17.67 8.23,20.67 1.89,1.1 4.16,1.64 6.71,1.64 4.43,0 9.71,-1.65 15.27,-4.87 l -2.38,-4.13 c -4.84,2.79 -9.33,4.23 -12.88,4.23 -1.69,0 -3.17,-0.33 -4.36,-1.01 -3.62,-2.1 -5.8,-8.28 -5.8,-16.52 l -0.01,-373.931 c 0.01,-5.539 0.99,-10.109 2.78,-13.269 1.47,-2.5 3.16,-3.75 5.67,-4.121 0.53,-0.078 1.09,-0.117 1.68,-0.117 3.58,0 8.15,1.476 12.92,4.218 l 2.38,-4.129 c -5.51,-3.171 -10.83,-4.871 -15.27,-4.871 m 0.02,417.17 c -2.31,0 -4.37,-0.49 -6.08,-1.47 -1.65,-0.96 -3.09,-2.49 -4.27,-4.51 -2.12,-3.66 -3.24,-8.85 -3.24,-14.98 l 0,-373.901 c 0,-6.141 1.12,-11.34 3.24,-15 1.93,-3.359 4.58,-5.25 8.09,-5.801 0.71,-0.109 1.45,-0.156 2.22,-0.156 3.9,0 8.56,1.387 13.42,4.039 l -1.02,1.789 c -4.5,-2.441 -8.87,-3.762 -12.4,-3.762 -0.67,0 -1.3,0.051 -1.91,0.141 -2.91,0.449 -4.96,1.922 -6.6,4.781 -1.95,3.391 -2.97,8.211 -2.97,13.949 l 0,373.921 c 0.02,5.81 1,10.61 2.97,13.96 0.96,1.69 2.16,2.97 3.52,3.74 1.4,0.81 3.11,1.21 5.05,1.21 3.49,0 7.73,-1.28 12.34,-3.77 l 1.03,1.8 c -4.91,2.66 -9.52,4.02 -13.39,4.02"
         id="path3374" />
    </clipPath>
    <clipPath
       id="clipPath3360">
      <path
         d="m 1957.15,618.039 c -0.93,0 -1.82,0.063 -2.68,0.191 -4.48,0.7 -8.03,3.2 -10.51,7.461 -2.4,4.188 -3.69,9.957 -3.69,16.688 l 0,373.901 c 0,6.74 1.26,12.5 3.69,16.68 1.48,2.55 3.31,4.48 5.54,5.76 2.19,1.27 4.8,1.89 7.7,1.89 4.82,0 10.45,-1.73 16.33,-5.12 l 1.75,-1.03 -4.41,-7.64 -1.76,1 c -4.5,2.61 -8.73,3.99 -11.87,3.99 -1.32,0 -2.45,-0.24 -3.32,-0.74 -0.87,-0.51 -1.62,-1.35 -2.32,-2.53 -1.59,-2.79 -2.49,-7.13 -2.47,-12.26 l -0.02,-373.901 c 0.02,-5.168 0.89,-9.418 2.52,-12.289 1.11,-1.942 2.33,-2.82 4.2,-3.11 0.44,-0.058 0.9,-0.101 1.4,-0.101 3.2,0 7.5,1.41 11.88,3.949 l 1.76,1.031 4.41,-7.679 -1.74,-1 c -5.85,-3.36 -11.55,-5.141 -16.39,-5.141 m 0.08,420.551 c -2.55,0 -4.82,-0.54 -6.71,-1.64 -5.23,-3 -8.23,-10.53 -8.23,-20.67 l 0,-373.901 c 0.02,-6.367 1.19,-11.777 3.44,-15.68 2.15,-3.75 5.13,-5.847 9.08,-6.449 0.78,-0.121 1.58,-0.18 2.42,-0.18 4.44,0 9.76,1.7 15.27,4.871 l -2.38,4.129 c -4.77,-2.742 -9.34,-4.218 -12.92,-4.218 -0.59,0 -1.15,0.039 -1.68,0.117 -2.51,0.371 -4.2,1.621 -5.67,4.121 -1.79,3.16 -2.77,7.73 -2.78,13.269 l 0.01,373.931 c 0,8.24 2.18,14.42 5.8,16.52 1.19,0.68 2.67,1.01 4.36,1.01 3.55,0 8.04,-1.44 12.88,-4.23 l 2.38,4.13 c -5.56,3.22 -10.84,4.87 -15.27,4.87"
         id="path3362" />
    </clipPath>
    <clipPath
       id="clipPath3348">
      <path
         d="m 2242.8,927.965 c -3.07,0 -5.9,0.605 -7.84,1.734 l -1.3,0.762 2.72,4.656 1.28,-0.738 c 1.13,-0.652 3.04,-1.047 5.11,-1.047 2.12,0 4.01,0.395 5.16,1.055 l 89.81,51.843 c 2.51,1.473 5.1,5.942 5.1,8.875 l 0,1.497 5.41,0 0,-1.497 c 0,-4.878 -3.58,-11.089 -7.82,-13.531 l -89.8,-51.855 c -1.97,-1.149 -4.75,-1.754 -7.83,-1.754"
         id="path3350" />
    </clipPath>
    <clipPath
       id="clipPath3336">
      <path
         d="m 1992.73,1071.52 c -5.64,3.49 -9.58,7.57 -11.17,11.62 -1.27,3.3 -0.94,6.56 0.99,9.91 2.13,3.68 6.04,7.24 11.38,10.31 l 323.81,186.96 c 5.32,3.06 10.36,4.67 14.6,4.67 2.34,0 4.36,-0.48 6.04,-1.45 4.54,-2.63 7.26,-9.19 7.52,-18.13 l -2.09,0 c -0.21,8.16 -2.53,14.07 -6.42,16.34 -1.44,0.8 -3.11,1.2 -5.07,1.2 -3.84,0 -8.51,-1.53 -13.55,-4.42 l -323.81,-186.96 c -5,-2.9 -8.66,-6.19 -10.62,-9.56 -1.64,-2.86 -1.89,-5.36 -0.85,-8.11 1.42,-3.56 5.1,-7.39 10.3,-10.59 l -1.06,-1.79"
         id="path3338" />
    </clipPath>
    <clipPath
       id="clipPath3324">
      <path
         d="m 1993.21,1069.66 c -6.51,3.77 -11.11,8.38 -12.88,12.99 -1.47,3.7 -1.11,7.33 1.05,11.09 2.26,3.87 6.34,7.61 11.83,10.79 l 323.85,186.96 c 5.59,3.22 10.85,4.87 15.29,4.87 2.54,0 4.81,-0.55 6.72,-1.65 5.21,-3.01 8.21,-10.55 8.21,-20.66 l -4.78,0 c 0,8.24 -2.17,14.41 -5.84,16.53 -1.17,0.67 -2.64,1.01 -4.32,1.01 -3.53,0 -8.02,-1.46 -12.86,-4.23 l -323.85,-186.97 c -4.78,-2.76 -8.3,-5.89 -10.11,-9.05 -1.43,-2.5 -1.68,-4.59 -0.75,-6.95 1.37,-3.55 5.35,-7.42 10.86,-10.6 l -2.42,-4.13 m 339.13,225.33 c -4.24,0 -9.28,-1.61 -14.6,-4.67 l -323.81,-186.96 c -5.34,-3.07 -9.25,-6.63 -11.38,-10.31 -1.93,-3.35 -2.26,-6.61 -0.99,-9.91 1.59,-4.05 5.53,-8.13 11.17,-11.62 l 1.06,1.79 c -5.2,3.2 -8.88,7.03 -10.3,10.59 -1.04,2.75 -0.79,5.25 0.85,8.11 1.96,3.37 5.62,6.66 10.62,9.56 l 323.81,186.96 c 5.04,2.89 9.71,4.42 13.55,4.42 1.96,0 3.63,-0.4 5.07,-1.2 3.89,-2.27 6.21,-8.18 6.42,-16.34 l 2.09,0 c -0.26,8.94 -2.98,15.5 -7.52,18.13 -1.68,0.97 -3.7,1.45 -6.04,1.45"
         id="path3326" />
    </clipPath>
    <clipPath
       id="clipPath3312">
      <path
         d="m 1993.98,1066.88 -1.73,1.01 c -6.99,4.02 -11.87,9 -13.84,14.03 -1.64,4.25 -1.23,8.57 1.18,12.82 2.46,4.19 6.78,8.18 12.66,11.55 l 323.79,186.96 c 5.84,3.36 11.43,5.13 16.26,5.13 0.02,0 0.03,0 0.04,0 2.94,0 5.56,-0.65 7.75,-1.9 5.85,-3.39 9.22,-11.55 9.22,-22.43 l 0,-2.03 -8.84,-0.01 -0.02,2.04 c 0.02,7.4 -1.82,13.06 -4.79,14.77 -0.85,0.49 -1.98,0.73 -3.34,0.73 -3.22,0 -7.43,-1.41 -11.84,-3.96 l -323.85,-186.95 c -4.47,-2.59 -7.69,-5.46 -9.35,-8.32 -1.14,-1.95 -1.29,-3.43 -0.6,-5.21 1.21,-3.06 4.92,-6.64 9.95,-9.56 l 1.77,-1.01 -4.42,-7.66 m 338.37,229.48 c -4.44,0 -9.7,-1.65 -15.29,-4.87 l -323.85,-186.96 c -5.49,-3.18 -9.57,-6.92 -11.83,-10.79 -2.16,-3.76 -2.52,-7.39 -1.05,-11.09 1.77,-4.61 6.37,-9.22 12.88,-12.99 l 2.42,4.13 c -5.51,3.18 -9.49,7.05 -10.86,10.6 -0.93,2.36 -0.68,4.45 0.75,6.95 1.81,3.16 5.33,6.29 10.11,9.05 l 323.85,186.97 c 4.84,2.77 9.33,4.23 12.86,4.23 1.68,0 3.15,-0.34 4.32,-1.01 3.67,-2.12 5.84,-8.29 5.84,-16.53 l 4.78,0 0,0 c 0,10.11 -3,17.65 -8.21,20.66 -1.91,1.1 -4.18,1.65 -6.72,1.65"
         id="path3314" />
    </clipPath>
    <clipPath
       id="clipPath3300">
      <path
         d="m 2495.58,920.004 c -6.39,0 -12.78,1.398 -17.64,4.203 l -81.92,47.363 c -9.66,5.575 -17.6,19.305 -17.6,30.47 l -0.81,272.02 c 0,21.19 10.64,33.48 26.06,33.48 6.29,0 13.37,-2.05 20.85,-6.36 l 323.83,-186.98 c 12.93,-7.45 19.39,-17.28 19.39,-27.11 0,-9.82 -6.47,-19.65 -19.41,-27.11 L 2513.17,924.191 c -4.84,-2.793 -11.21,-4.187 -17.59,-4.187 m -107.17,76.238 0,-1.496 c 0.01,-2.266 0.87,-5 2.41,-7.664 1.55,-2.656 3.45,-4.746 5.43,-5.883 l 89.8,-51.855 c 2.12,-1.223 4.97,-1.832 7.81,-1.832 2.85,0 5.71,0.609 7.84,1.832 l 1.29,0.73 -2.68,4.696 -1.3,-0.754 c -1.27,-0.743 -3.2,-1.11 -5.14,-1.11 -1.93,0 -3.87,0.367 -5.15,1.11 l -89.77,51.832 c -1.17,0.668 -2.46,2.148 -3.48,3.937 -1.03,1.778 -1.67,3.66 -1.67,4.961 l 0.02,1.484 -5.41,0.012 m 15.27,293.308 c 3.28,0 7.39,-1.37 11.89,-3.95 l 323.79,-186.96 c 4.43,-2.56 7.75,-5.5 9.37,-8.29 0.67,-1.18 1.02,-2.28 1.02,-3.25 0,-3.43 -3.99,-7.85 -10.39,-11.54 l -1.74,-1.02 4.4,-7.66 1.76,1.02 c 9.42,5.43 14.83,12.44 14.81,19.2 0,2.54 -0.74,5.11 -2.21,7.66 -2.41,4.19 -6.78,8.17 -12.6,11.54 l -323.82,186.95 c -5.82,3.37 -11.46,5.14 -16.28,5.15 -4.95,0 -8.86,-1.83 -11.74,-5.38 -3.38,-4.22 -5.26,-10.94 -5.26,-18.96 l 0,-2.03 8.89,-0.01 0,2.04 c 0,5.82 1.22,10.86 3.31,13.41 1.17,1.5 2.53,2.08 4.8,2.08"
         id="path3302" />
    </clipPath>
    <clipPath
       id="clipPath3288">
      <path
         d="m 2778.8,608.91 c -6.29,0 -13.38,2.051 -20.86,6.371 l -235.22,135.766 c -9.64,5.613 -17.56,19.34 -17.56,30.512 l 0.04,94.621 c 0,11.179 7.91,24.91 17.6,30.492 l 235.14,136.728 c 7.48,4.33 14.57,6.37 20.87,6.37 15.43,0 26.09,-12.29 26.09,-33.48 l 0,-373.911 c 0,-21.18 -10.66,-33.469 -26.1,-33.469 m -13.64,22.949 -4.41,-7.66 1.74,-1.019 c 5.88,-3.391 11.51,-5.129 16.34,-5.129 2.9,0 5.51,0.629 7.7,1.89 2.19,1.278 4.06,3.239 5.54,5.758 2.43,4.211 3.68,9.961 3.68,16.68 l 0,373.911 c -0.02,6.75 -1.26,12.51 -3.68,16.7 -2.46,4.26 -6.02,6.76 -10.52,7.45 -0.86,0.13 -1.76,0.2 -2.7,0.2 -4.84,0 -10.53,-1.77 -16.36,-5.13 l -1.74,-1.02 4.41,-7.67 1.73,1.01 c 4.43,2.55 8.76,3.97 11.96,3.97 0.48,0 0.93,-0.03 1.36,-0.1 1.86,-0.3 3.07,-1.18 4.18,-3.15 1.65,-2.85 2.5,-7.08 2.52,-12.26 l -0.02,-373.911 c 0,-5.109 -0.88,-9.457 -2.5,-12.25 -0.65,-1.168 -1.45,-2.008 -2.3,-2.5 -0.88,-0.508 -2.02,-0.758 -3.35,-0.758 -3.13,0 -7.35,1.379 -11.85,3.988 l -1.73,1 m -242.42,263.258 -1.3,-0.742 c -1.95,-1.145 -3.89,-3.23 -5.4,-5.91 -1.53,-2.672 -2.39,-5.387 -2.39,-7.652 l 0,-103.704 c 0,-4.89 3.58,-11.097 7.82,-13.55 l 1.26,-0.731 2.72,4.664 -1.29,0.727 c -2.54,1.469 -5.15,5.957 -5.15,8.91 l 0,103.684 c 0,1.328 0.65,3.183 1.66,4.98 1.04,1.785 2.35,3.246 3.49,3.906 l 1.29,0.739 -2.71,4.679"
         id="path3290" />
    </clipPath>
    <clipPath
       id="clipPath3276">
      <path
         d="m 2403.67,351.148 c -15.42,0 -26.06,12.282 -26.06,33.473 l 0,271.578 c 0,11.18 7.92,24.914 17.58,30.504 l 81.98,47.25 c 4.84,2.793 11.23,4.195 17.62,4.195 6.37,0 12.76,-1.394 17.61,-4.195 l 235.95,-135.262 c 12.93,-7.453 19.39,-17.281 19.39,-27.113 0,-9.828 -6.46,-19.648 -19.39,-27.098 L 2424.52,357.512 c -7.48,-4.321 -14.56,-6.364 -20.85,-6.364 m -16.99,35.512 0,-2.039 c 0,-10.871 3.41,-19.031 9.27,-22.422 2.19,-1.269 4.81,-1.918 7.75,-1.918 4.82,0 10.45,1.778 16.26,5.16 l 323.83,186.957 c 5.85,3.34 10.2,7.352 12.61,11.524 2.47,4.269 2.86,8.59 1.2,12.828 -1.98,5.02 -6.83,10.012 -13.81,14.031 l -1.73,1.008 -4.44,-7.66 1.74,-1 c 5.06,-2.91 8.8,-6.488 10,-9.59 0.66,-1.758 0.5,-3.238 -0.63,-5.187 -1.67,-2.864 -4.88,-5.723 -9.35,-8.313 L 2415.57,373.09 c -4.44,-2.559 -8.65,-3.969 -11.87,-3.969 -0.04,0 -0.09,0 -0.13,0 -1.3,0 -2.39,0.258 -3.21,0.719 -2.95,1.75 -4.79,7.379 -4.79,14.801 l 0,2.019 -8.89,0 m 106.54,344.059 c -3.05,0 -5.87,-0.629 -7.82,-1.762 l -89.8,-51.84 c -4.24,-2.453 -7.83,-8.664 -7.83,-13.566 l 0,-1.488 5.41,0 0,1.488 c 0,2.961 2.57,7.426 5.12,8.89 l 89.81,51.848 c 1.12,0.68 3.02,1.055 5.11,1.055 2.1,0 4,-0.375 5.13,-1.035 l 1.29,-0.762 2.71,4.672 -1.3,0.738 c -1.97,1.133 -4.72,1.762 -7.83,1.762"
         id="path3278" />
    </clipPath>
    <clipPath
       id="clipPath3264">
      <path
         d="m 2332.35,351.141 c -6.3,0 -13.39,2.05 -20.88,6.371 L 1987.66,544.48 c -12.91,7.45 -19.37,17.27 -19.37,27.098 0,9.832 6.46,19.66 19.37,27.113 l 235.19,135.797 c 4.85,2.785 11.22,4.176 17.6,4.176 6.38,0 12.78,-1.398 17.65,-4.195 l 81.87,-47.348 c 9.72,-5.601 17.66,-19.336 17.66,-30.519 l 0.8,-271.981 c 0.02,-21.191 -10.64,-33.48 -26.08,-33.48 m -338.37,240.648 -1.73,-1.008 c -9.42,-5.461 -14.81,-12.429 -14.81,-19.191 0,-2.559 0.72,-5.129 2.2,-7.68 2.41,-4.18 6.75,-8.172 12.61,-11.539 L 2316.04,365.41 c 5.85,-3.351 11.49,-5.129 16.3,-5.129 4.93,0 8.86,1.809 11.69,5.367 3.41,4.211 5.28,10.954 5.3,18.973 l 0,2.02 -8.86,0.019 0,-2.039 c 0,-5.832 -1.21,-10.871 -3.31,-13.422 -1.21,-1.5 -2.54,-2.078 -4.82,-2.078 -3.26,0 -7.38,1.367 -11.86,3.949 l -323.82,186.969 c -4.41,2.539 -7.74,5.492 -9.37,8.281 -0.68,1.18 -1,2.258 -1,3.27 0,3.41 3.96,7.82 10.37,11.539 l 1.76,1 -4.44,7.66 m 248.16,133.981 c 1.93,0 3.86,-0.372 5.14,-1.11 l 89.82,-51.851 c 1.12,-0.661 2.44,-2.125 3.45,-3.922 1.03,-1.801 1.67,-3.641 1.67,-4.957 l 0,-1.492 5.39,-0.02 0,1.512 c -0.01,2.261 -0.86,4.968 -2.42,7.652 -1.5,2.656 -3.44,4.754 -5.41,5.898 l -89.81,51.852 c -2.12,1.227 -4.97,1.84 -7.82,1.84 -2.85,0 -5.7,-0.613 -7.83,-1.84 l -1.28,-0.75 2.69,-4.668 1.29,0.746 c 1.27,0.738 3.19,1.11 5.12,1.11"
         id="path3266" />
    </clipPath>
    <clipPath
       id="clipPath3252">
      <path
         d="m 1957.23,608.891 c -15.43,0 -26.09,12.3 -26.09,33.488 l 0,373.911 c 0,21.19 10.65,33.48 26.09,33.48 6.29,0 13.39,-2.05 20.88,-6.37 l 235.17,-135.771 c 9.69,-5.609 17.61,-19.332 17.61,-30.524 l -0.06,-94.613 c 0,-11.172 -7.92,-24.906 -17.62,-30.5 l -235.1,-136.73 c -7.49,-4.332 -14.58,-6.371 -20.88,-6.371 m -0.03,431.719 c -2.9,0 -5.51,-0.62 -7.7,-1.89 -2.23,-1.28 -4.06,-3.21 -5.54,-5.76 -2.43,-4.18 -3.69,-9.94 -3.69,-16.68 l 0,-373.901 c 0,-6.731 1.29,-12.5 3.69,-16.688 2.48,-4.261 6.03,-6.761 10.51,-7.461 0.86,-0.128 1.75,-0.191 2.68,-0.191 4.84,0 10.54,1.781 16.39,5.141 l 1.74,1 -4.41,7.679 -1.76,-1.031 c -4.38,-2.539 -8.68,-3.949 -11.88,-3.949 -0.5,0 -0.96,0.043 -1.4,0.101 -1.87,0.29 -3.09,1.168 -4.2,3.11 -1.63,2.871 -2.5,7.121 -2.52,12.289 l 0.02,373.901 c -0.02,5.13 0.88,9.47 2.47,12.26 0.7,1.18 1.45,2.02 2.32,2.53 0.87,0.5 2,0.74 3.32,0.74 3.14,0 7.37,-1.38 11.87,-3.99 l 1.76,-1 4.41,7.64 -1.75,1.03 c -5.88,3.39 -11.51,5.12 -16.33,5.12 m 256.08,-144.758 -2.68,-4.664 1.28,-0.75 c 2.52,-1.465 5.11,-5.946 5.11,-8.883 l 0,-103.703 c 0,-1.317 -0.6,-3.184 -1.65,-4.965 -1.02,-1.793 -2.36,-3.262 -3.46,-3.922 l -1.28,-0.746 2.68,-4.66 1.28,0.75 c 1.96,1.14 3.93,3.23 5.44,5.882 1.51,2.676 2.39,5.403 2.39,7.661 l 0,103.703 c 0,4.902 -3.58,11.101 -7.84,13.543 l -1.27,0.754"
         id="path3254" />
    </clipPath>
    <clipPath
       id="clipPath3216">
      <path
         d="m 2802.52,157.809 c -3.6,0 -6.52,3.089 -6.52,6.703 l 0,108.078 c 0,3.601 3.08,6.68 6.69,6.68 l 1.88,0 c 3.09,0 4.97,-1.532 6.87,-3.942 l 72.92,-92.976 0,90.578 c 0,3.601 2.91,6.691 6.68,6.691 3.61,0 6.53,-3.09 6.53,-6.691 l 0,-108.418 c 0,-3.614 -2.58,-6.364 -6.19,-6.364 l -0.68,0 c -2.92,0 -4.98,1.731 -7.04,4.122 l -74.46,95.218 0,-92.976 c 0,-3.614 -2.91,-6.703 -6.68,-6.703"
         id="path3218" />
    </clipPath>
    <clipPath
       id="clipPath3192">
      <path
         d="m 2490.9,156.609 c -24.37,0 -44.26,18.7 -44.26,46.161 l 0,0.339 c 0,25.551 18.01,46.153 42.54,46.153 26.25,0 41.17,-21.453 41.17,-44.961 0,-3.602 -2.91,-6.172 -6.17,-6.172 l -64.16,0 c 1.88,-19.207 15.44,-30.02 31.22,-30.02 10.98,0 19.03,4.289 25.56,10.289 1.03,0.864 2.22,1.551 3.78,1.551 3.26,0 5.84,-2.578 5.84,-5.668 0,-1.543 -0.7,-3.082 -2.07,-4.293 -8.4,-8.058 -18.35,-13.379 -33.45,-13.379 m -2.06,81.493 c -15.44,0 -27.11,-12.872 -28.82,-30.192 l 57.12,0 c -1.37,16.121 -10.64,30.192 -28.3,30.192"
         id="path3194" />
    </clipPath>
    <clipPath
       id="clipPath3180">
      <path
         d="m 2323.16,157.809 c -3.77,0 -6.69,2.929 -6.69,6.703 l 0,45.968 c 0,16.469 -8.92,26.758 -24.53,26.758 -15.28,0 -26.59,-11.136 -26.59,-27.777 l 0,-44.949 c 0,-3.774 -2.74,-6.703 -6.53,-6.703 -3.77,0 -6.69,2.929 -6.69,6.703 l 0,113.566 c 0,3.602 2.92,6.692 6.53,6.692 3.77,0 6.69,-3.09 6.69,-6.692 l 0,-46.137 c 5.83,9.598 15.09,17.321 30.36,17.321 21.45,0 33.97,-14.41 33.97,-35.512 l 0,-49.238 c 0,-3.774 -2.91,-6.703 -6.52,-6.703"
         id="path3182" />
    </clipPath>
    <clipPath
       id="clipPath3168">
      <path
         d="m 2090.24,157.809 c -3.78,0 -6.86,3.089 -6.86,6.863 l 0,101.566 -34.83,0 c -3.43,0 -6.34,2.75 -6.34,6.18 0,3.434 2.91,6.352 6.34,6.352 l 83.37,0 c 3.44,0 6.35,-2.918 6.35,-6.352 0,-3.43 -2.91,-6.18 -6.35,-6.18 l -34.82,0 0,-101.566 c 0,-3.774 -3.09,-6.863 -6.86,-6.863"
         id="path3170" />
    </clipPath>
  </defs>
  <metadata
     id="metadata7">
    <rdf:RDF>
      <cc:Work
         rdf:about="">
        <dc:format>image/svg+xml</dc:format>
        <dc:type
           rdf:resource="http://purl.org/dc/dcmitype/StillImage" />
        <dc:title></dc:title>
      </cc:Work>
    </rdf:RDF>
  </metadata>
  <g
     transform="translate(-215.33738,-219.541)"
     id="layer1">
    <path
       d="m 357.24695,403.03628 c 0,0 -5.18629,-12.15076 -7.50431,-27.084 -2.83094,-18.23762 -7.32107,-22.53249 -2.34251,-34.36459 14.17094,-17.84252 19.58796,-27.99348 21.72119,-47.48897 3.36828,-30.78248 -5.87041,-51.60221 -17.08148,-59.8977 -10.17017,-7.52529 -25.36276,-13.72105 -43.44176,-14.13235 -25.99304,-0.59135 -45.62004,8.47987 -60.69331,9.65559 -5.52734,8.24679 -8.62228,13.54783 -3.67253,20.97245 0,0 -1.23928,15.60574 -3.73224,28.88298 -1.20711,6.42894 4.5,12.78249 4.5,12.78249 0,0 -2,4.5 -2,23.5 0,19 19,53.5 19,53.5 5.13339,1.39985 8.59972,1.49824 13.625,2 0,0 2.38502,-0.58009 1.82474,4.38641 -0.56027,4.9665 5.31638,19.83281 -1.26597,32.84835"
       id="path3014"
       style="fill:none;stroke:#000000;stroke-width:1px;stroke-linecap:butt;stroke-linejoin:miter;stroke-opacity:1" />
    <path
       d="m 357.01281,402.46565 c -5.3033,8.13172 -17.32412,21.92031 -41.36575,21.2132 -24.04163,-0.70711 -39.59798,-15.55635 -39.59798,-15.55635 0,0 -32.50569,10.72277 -36.59278,14.31892 -4.08709,3.59615 -10.07627,-1.94455 -17.50089,31.64302 -7.42462,33.58757 -6.01041,69.08936 -6.01041,69.08936 0,0 -0.0528,5.48138 13.78859,6.21751 7.78858,0.41422 9.80939,0.85356 9.80939,0.85356 0,0 2.02513,22.12741 1.31802,38.39087 -0.7071,16.26346 2.82843,44.54773 2.82843,44.54773 0,0 36.24873,9.89949 86.45332,9.19239 50.20458,-0.70711 64.26093,-11.52082 64.26093,-11.52082 l 2.82843,-76.36753 c 0,0 6.81483,-0.74469 14.84924,-1.41422 16.97056,-1.41421 16.26345,-11.3137 16.26345,-11.3137 0,0 3.95671,-50.41034 -6.24264,-83.90307 -3.70726,-12.17393 -11.72201,-16.99222 -18.42031,-19.66295 -11.07106,-4.41422 -46.66904,-15.72792 -46.66904,-15.72792 z"
       id="path3016"
       style="fill:none;stroke:#000000;stroke-width:1px;stroke-linecap:butt;stroke-linejoin:miter;stroke-opacity:1" />
    <flowRoot
       transform="matrix(1.001905,0.05549389,0.00910756,0.99860302,-141.38634,-339.18517)"
       id="flowRoot3018"
       xml:space="preserve"
       style="font-size:72px;font-style:normal;font-variant:normal;font-weight:normal;font-stretch:normal;line-height:125%;letter-spacing:0px;word-spacing:0px;fill:#000000;fill-opacity:1;stroke:none;font-family:Standard Symbols L;-inkscape-font-specification:Standard Symbols L"><flowRegion
         id="flowRegion3020"><rect
           width="192.33304"
           height="205.06093"
           x="387.49451"
           y="797.09662"
           id="rect3022"
           style="font-size:72px" /></flowRegion><flowPara
         id="flowPara3024"
         style="font-size:56px">Dev</flowPara></flowRoot>  </g>
</svg>
