<?xml version="1.0" encoding="UTF-8" standalone="no"?>
<!-- Created with Inkscape (http://www.inkscape.org/) -->

<svg
   xmlns:dc="http://purl.org/dc/elements/1.1/"
   xmlns:cc="http://creativecommons.org/ns#"
   xmlns:rdf="http://www.w3.org/1999/02/22-rdf-syntax-ns#"
   xmlns:svg="http://www.w3.org/2000/svg"
   xmlns="http://www.w3.org/2000/svg"
   xmlns:sodipodi="http://sodipodi.sourceforge.net/DTD/sodipodi-0.dtd"
   xmlns:inkscape="http://www.inkscape.org/namespaces/inkscape"
   width="744.09448819"
   height="1052.3622047"
   id="svg2"
   version="1.1"
   inkscape:version="0.48.4 r9939"
   sodipodi:docname="New document 1">
  <defs
     id="defs4" />
  <sodipodi:namedview
     id="base"
     pagecolor="#ffffff"
     bordercolor="#666666"
     borderopacity="1.0"
     inkscape:pageopacity="0.0"
     inkscape:pageshadow="2"
     inkscape:zoom="1"
     inkscape:cx="319.88114"
     inkscape:cy="442.20563"
     inkscape:document-units="px"
     inkscape:current-layer="layer1"
     showgrid="false"
     showguides="true"
     inkscape:guide-bbox="true"
     inkscape:object-paths="true"
     inkscape:snap-intersection-paths="true"
     inkscape:snap-smooth-nodes="true"
     inkscape:snap-midpoints="true"
     inkscape:object-nodes="true"
     inkscape:snap-global="false"
     inkscape:window-width="1279"
     inkscape:window-height="1420"
     inkscape:window-x="1280"
     inkscape:window-y="30"
     inkscape:window-maximized="0" />
  <metadata
     id="metadata7">
    <rdf:RDF>
      <cc:Work
         rdf:about="">
        <dc:format>image/svg+xml</dc:format>
        <dc:type
           rdf:resource="http://purl.org/dc/dcmitype/StillImage" />
        <dc:title></dc:title>
      </cc:Work>
    </rdf:RDF>
  </metadata>
  <g
     inkscape:label="Layer 1"
     inkscape:groupmode="layer"
     id="layer1">
    <path
       style="fill:none;stroke:#000000;stroke-width:0.86599618px;stroke-linecap:butt;stroke-linejoin:miter;stroke-opacity:1"
       d="m 292.15152,221.74614 c -0.20977,12.88276 -2.47031,12.7067 1.85761,24.36554 1.62798,4.38558 -1.48838,15.41084 1.86966,25.18609 3.35805,9.77525 12.00392,39.26035 16.98435,44.12764 4.98043,4.86729 12.22836,8.01141 18.7235,5.73462 23.68901,-8.3039 33.68706,-9.34533 38.59607,-36.02614 1.25857,-6.8404 1.30083,-19.82431 1.30083,-19.82431"
       id="path2985"
       inkscape:connector-curvature="0"
       sodipodi:nodetypes="csssssc" />
    <path
       style="fill:none;stroke:#000000;stroke-width:0.86599618px;stroke-linecap:butt;stroke-linejoin:miter;stroke-opacity:1"
       d="m 291.73199,221.74613 c 34.10719,29.77857 60.62101,0.45603 62.2991,13.45281 1.67809,12.99677 5.60377,6.67073 6.5026,20.06518 0.75956,11.31894 4.13957,16.33312 7.34165,14.59286 3.20311,-1.74082 3.44711,-24.44779 9.95902,-26.23686 7.85527,-2.15813 7.61447,4.60652 3.42086,17.10224 -2.77643,8.27294 -2.3264,8.24976 -1.55396,9.45954 0.69886,1.09456 1.79457,-0.723 2.32002,-2.56086 0.89133,-3.11757 8.82527,-31.90852 7.24971,-47.471 -2.1289,-21.02799 -8.80998,-29.64175 -24.75184,-33.51799 -37.86611,-9.20706 -45.72796,-3.42021 -54.32816,2.50815 -8.60022,5.92835 -25.59088,12.31273 -25.80064,23.4854 -0.20976,11.17265 3.80717,25.22969 8.12825,29.56195"
       id="path2992"
       inkscape:connector-curvature="0"
       sodipodi:nodetypes="csssssssssssc" />
    <path
       style="fill:none;stroke:#000000;stroke-width:1px;stroke-linecap:butt;stroke-linejoin:miter;stroke-opacity:1"
       d="m 379.83384,270.13771 c -2.28046,5.85914 -7.50039,20.81853 -3.52145,38.67082 5.87939,26.37904 4.36495,28.16865 17.10081,31.58906 27.77627,7.45973 43.29848,13.16026 46.86991,28.87454 9.40927,41.4007 2.85715,72.85715 2.85715,72.85715"
       id="path2994"
       inkscape:connector-curvature="0"
       sodipodi:nodetypes="csssc" />
    <path
       style="fill:none;stroke:#000000;stroke-width:1px;stroke-linecap:butt;stroke-linejoin:miter;stroke-opacity:1"
       d="m 331.58664,321.16003 c 0.3663,7.04244 1.58466,13.5623 0.37915,13.88532 -19.52485,5.23167 -38.11865,10.68275 -44.96579,20.38826 -7.29798,10.34455 -14.85714,38 -15.92857,63.00001 0.45757,4.24997 3.81634,5.84097 12.83195,7.25518 9.01561,1.41421 16.08667,-1.23744 16.08667,-1.23744"
       id="path2996"
       inkscape:connector-curvature="0"
       sodipodi:nodetypes="csscsc" />
    <path
       style="fill:none;stroke:#000000;stroke-width:1px;stroke-linecap:butt;stroke-linejoin:miter;stroke-opacity:1"
       d="m 442.85715,442.36218 c -9.60715,4.75 -20.38938,4.95671 -30.35715,3.75 -9.32322,-1.12868 -15.75,-2 -16.25,-8.5 -0.5,-6.5 3,-30 1,-37"
       id="path3000"
       inkscape:connector-curvature="0"
       sodipodi:nodetypes="cssc" />
    <path
       style="fill:none;stroke:#000000;stroke-width:1px;stroke-linecap:butt;stroke-linejoin:miter;stroke-opacity:1"
       d="m 299.62089,391.30313 c -1.41422,9.89949 -2.12132,14.14213 0.7071,30.40559 2.82843,16.26346 2.02068,24.91112 4.66497,42.38047 1.16663,7.70717 5.18542,10.18222 14.27895,13.17398 8.50178,2.79708 36.87866,1.87625 58.32312,0.57475 23.88499,-1.44961 33.09492,-8.95751 36.1441,-11.33776 1.27876,-0.99824 2.2822,-7.89389 4.04997,-19.91471"
       id="path3002"
       inkscape:connector-curvature="0"
       sodipodi:nodetypes="csssssc" />
    <path
       style="fill:none;stroke:#000000;stroke-width:1px;stroke-linecap:butt;stroke-linejoin:miter;stroke-opacity:1"
       d="m 384.23557,336.00334 c 6.2516,11.85741 -12.93472,22.48746 -36.90578,22.4947 -23.97106,0.007 -28.56007,-14.75554 -20.364,-22.20269"
       id="path3006"
       inkscape:connector-curvature="0"
       sodipodi:nodetypes="czc" />
    <path
       style="fill:none;stroke:#000000;stroke-width:1px;stroke-linecap:butt;stroke-linejoin:miter;stroke-opacity:1"
       d="m 449.24695,705.03628 c 0,0 -5.18629,-12.15076 -7.50431,-27.084 -2.83094,-18.23762 -7.32107,-22.53249 -2.34251,-34.36459 14.17094,-17.84252 19.58796,-27.99348 21.72119,-47.48897 3.36828,-30.78248 -5.87041,-51.60221 -17.08148,-59.8977 -10.17017,-7.52529 -25.36276,-13.72105 -43.44176,-14.13235 -25.99304,-0.59135 -45.62004,8.47987 -60.69331,9.65559 -5.52734,8.24679 -8.62228,13.54783 -3.67253,20.97245 0,0 -1.23928,15.60574 -3.73224,28.88298 -1.20711,6.42894 4.5,12.78249 4.5,12.78249 0,0 -2,4.5 -2,23.5 0,19 19,53.5 19,53.5 5.13339,1.39985 8.59972,1.49824 13.625,2 0,0 2.38502,-0.58009 1.82474,4.38641 -0.56027,4.9665 5.31638,19.83281 -1.26597,32.84835"
       id="path3014"
       inkscape:connector-curvature="0"
       sodipodi:nodetypes="cscsssccscscczc" />
    <path
       style="fill:none;stroke:#000000;stroke-width:1px;stroke-linecap:butt;stroke-linejoin:miter;stroke-opacity:1"
       d="m 449.01281,704.46565 c -5.3033,8.13172 -17.32412,21.92031 -41.36575,21.2132 -24.04163,-0.70711 -39.59798,-15.55635 -39.59798,-15.55635 0,0 -32.50569,10.72277 -36.59278,14.31892 -4.08709,3.59615 -10.07627,-1.94455 -17.50089,31.64302 -7.42462,33.58757 -6.01041,69.08936 -6.01041,69.08936 0,0 -0.0528,5.48138 13.78859,6.21751 7.78858,0.41422 9.80939,0.85356 9.80939,0.85356 0,0 2.02513,22.12741 1.31802,38.39087 -0.7071,16.26346 2.82843,44.54773 2.82843,44.54773 0,0 36.24873,9.89949 86.45332,9.19239 50.20458,-0.70711 64.26093,-11.52082 64.26093,-11.52082 l 2.82843,-76.36753 c 0,0 6.81483,-0.74469 14.84924,-1.41422 16.97056,-1.41421 16.26345,-11.3137 16.26345,-11.3137 0,0 3.95671,-50.41034 -6.24264,-83.90307 -3.70726,-12.17393 -11.72201,-16.99222 -18.42031,-19.66295 -11.07106,-4.41422 -46.66904,-15.72792 -46.66904,-15.72792 z"
       id="path3016"
       inkscape:connector-curvature="0"
       sodipodi:nodetypes="csczscscscsccscssc" />
    <flowRoot
       xml:space="preserve"
       id="flowRoot3018"
       style="font-size:72px;font-style:normal;font-variant:normal;font-weight:normal;font-stretch:normal;line-height:125%;letter-spacing:0px;word-spacing:0px;fill:#000000;fill-opacity:1;stroke:none;font-family:Standard Symbols L;-inkscape-font-specification:Standard Symbols L"
       transform="translate(-29.698485,-26.870057)"><flowRegion
         id="flowRegion3020"><rect
           id="rect3022"
           width="192.33304"
           height="205.06093"
           x="387.49451"
           y="797.09662"
           style="font-size:72px" /></flowRegion><flowPara
         id="flowPara3024"
         style="font-size:56px">Dev</flowPara></flowRoot>  </g>
</svg>
