<?xml version="1.0" encoding="UTF-8" standalone="no"?>
<!-- Created with Inkscape (http://www.inkscape.org/) -->

<svg
   xmlns:dc="http://purl.org/dc/elements/1.1/"
   xmlns:cc="http://creativecommons.org/ns#"
   xmlns:rdf="http://www.w3.org/1999/02/22-rdf-syntax-ns#"
   xmlns:svg="http://www.w3.org/2000/svg"
   xmlns="http://www.w3.org/2000/svg"
   version="1.1"
   width="110.18614"
   height="120.52905"
   id="svg4538">
  <defs
     id="defs4540" />
  <metadata
     id="metadata4543">
    <rdf:RDF>
      <cc:Work
         rdf:about="">
        <dc:format>image/svg+xml</dc:format>
        <dc:type
           rdf:resource="http://purl.org/dc/dcmitype/StillImage" />
        <dc:title></dc:title>
      </cc:Work>
    </rdf:RDF>
  </metadata>
  <g
     transform="translate(-247.76407,-434.9548)"
     id="layer1">
    <g
       transform="matrix(0.125,0,0,-0.125,6.8546324,598.90682)"
       id="use4469"
       style="fill:#e81097;fill-opacity:1;stroke:#e81097;stroke-width:8;stroke-miterlimit:4;stroke-opacity:1;stroke-dasharray:none">
      <path
         d="m 2241.26,920.523 c -6.39,0 -12.78,1.399 -17.62,4.192 l -235.98,135.265 c -12.91,7.46 -19.37,17.29 -19.37,27.11 0,9.83 6.46,19.66 19.37,27.11 l 323.81,186.96 c 7.49,4.33 14.58,6.38 20.88,6.38 15.43,0 26.1,-12.3 26.08,-33.48 l 0,-271.58 c 0,-11.187 -7.92,-24.91 -17.6,-30.507 l -81.97,-47.258 c -4.83,-2.793 -11.21,-4.192 -17.6,-4.192"
         id="path4483"
         style="fill:#e81097;fill-opacity:1;stroke:#e81097;stroke-width:8;stroke-miterlimit:4;stroke-opacity:1;stroke-dasharray:none" />
    </g>
    <g
       transform="matrix(0.0625,0.10825317,0.10825317,-0.0625,65.059882,290.71739)"
       id="use4471"
       style="fill:#ff6b01;fill-opacity:1;stroke:#ff6b01;stroke-width:8;stroke-miterlimit:4;stroke-opacity:1;stroke-dasharray:none">
      <path
         d="m 2241.26,920.523 c -6.39,0 -12.78,1.399 -17.62,4.192 l -235.98,135.265 c -12.91,7.46 -19.37,17.29 -19.37,27.11 0,9.83 6.46,19.66 19.37,27.11 l 323.81,186.96 c 7.49,4.33 14.58,6.38 20.88,6.38 15.43,0 26.1,-12.3 26.08,-33.48 l 0,-271.58 c 0,-11.187 -7.92,-24.91 -17.6,-30.507 l -81.97,-47.258 c -4.83,-2.793 -11.21,-4.192 -17.6,-4.192"
         id="path4487"
         style="fill:#ff6b01;fill-opacity:1;stroke:#ff6b01;stroke-width:8;stroke-miterlimit:4;stroke-opacity:1;stroke-dasharray:none" />
    </g>
    <g
       transform="matrix(-0.0625,0.10825317,0.10825317,0.0625,361.06239,187.02989)"
       id="use4473"
       style="fill:#ffa509;fill-opacity:1;stroke:#ffa509;stroke-width:8;stroke-miterlimit:4;stroke-opacity:1;stroke-dasharray:none">
      <path
         d="m 2241.26,920.523 c -6.39,0 -12.78,1.399 -17.62,4.192 l -235.98,135.265 c -12.91,7.46 -19.37,17.29 -19.37,27.11 0,9.83 6.46,19.66 19.37,27.11 l 323.81,186.96 c 7.49,4.33 14.58,6.38 20.88,6.38 15.43,0 26.1,-12.3 26.08,-33.48 l 0,-271.58 c 0,-11.187 -7.92,-24.91 -17.6,-30.507 l -81.97,-47.258 c -4.83,-2.793 -11.21,-4.192 -17.6,-4.192"
         id="path4491"
         style="fill:#ffa509;fill-opacity:1;stroke:#ffa509;stroke-width:8;stroke-miterlimit:4;stroke-opacity:1;stroke-dasharray:none" />
    </g>
    <g
       transform="matrix(-0.125,0,0,0.125,598.85965,391.53182)"
       id="use4475"
       style="fill:#3baf2a;fill-opacity:1;stroke:#3baf2a;stroke-width:8;stroke-miterlimit:4;stroke-opacity:1;stroke-dasharray:none">
      <path
         d="m 2241.26,920.523 c -6.39,0 -12.78,1.399 -17.62,4.192 l -235.98,135.265 c -12.91,7.46 -19.37,17.29 -19.37,27.11 0,9.83 6.46,19.66 19.37,27.11 l 323.81,186.96 c 7.49,4.33 14.58,6.38 20.88,6.38 15.43,0 26.1,-12.3 26.08,-33.48 l 0,-271.58 c 0,-11.187 -7.92,-24.91 -17.6,-30.507 l -81.97,-47.258 c -4.83,-2.793 -11.21,-4.192 -17.6,-4.192"
         id="path4495"
         style="fill:#3baf2a;fill-opacity:1;stroke:#3baf2a;stroke-width:8;stroke-miterlimit:4;stroke-opacity:1;stroke-dasharray:none" />
    </g>
    <g
       transform="matrix(-0.0625,-0.10825317,-0.10825317,0.0625,540.6544,699.72127)"
       id="use4477"
       style="fill:#0174c7;fill-opacity:1;stroke:#0174c7;stroke-width:8;stroke-miterlimit:4;stroke-opacity:1;stroke-dasharray:none">
      <path
         d="m 2241.26,920.523 c -6.39,0 -12.78,1.399 -17.62,4.192 l -235.98,135.265 c -12.91,7.46 -19.37,17.29 -19.37,27.11 0,9.83 6.46,19.66 19.37,27.11 l 323.81,186.96 c 7.49,4.33 14.58,6.38 20.88,6.38 15.43,0 26.1,-12.3 26.08,-33.48 l 0,-271.58 c 0,-11.187 -7.92,-24.91 -17.6,-30.507 l -81.97,-47.258 c -4.83,-2.793 -11.21,-4.192 -17.6,-4.192"
         id="path4499"
         style="fill:#0174c7;fill-opacity:1;stroke:#0174c7;stroke-width:8;stroke-miterlimit:4;stroke-opacity:1;stroke-dasharray:none" />
    </g>
    <g
       transform="matrix(0.0625,-0.10825317,-0.10825317,-0.0625,244.65189,803.40877)"
       id="use4479"
       style="fill:#753cbf;fill-opacity:1;stroke:#753cbf;stroke-width:8;stroke-miterlimit:4;stroke-opacity:1;stroke-dasharray:none">
      <path
         d="m 2241.26,920.523 c -6.39,0 -12.78,1.399 -17.62,4.192 l -235.98,135.265 c -12.91,7.46 -19.37,17.29 -19.37,27.11 0,9.83 6.46,19.66 19.37,27.11 l 323.81,186.96 c 7.49,4.33 14.58,6.38 20.88,6.38 15.43,0 26.1,-12.3 26.08,-33.48 l 0,-271.58 c 0,-11.187 -7.92,-24.91 -17.6,-30.507 l -81.97,-47.258 c -4.83,-2.793 -11.21,-4.192 -17.6,-4.192"
         id="path4503"
         style="fill:#753cbf;fill-opacity:1;stroke:#753cbf;stroke-width:8;stroke-miterlimit:4;stroke-opacity:1;stroke-dasharray:none" />
    </g>
  </g>
</svg>
