<?xml version="1.0" encoding="UTF-8" standalone="no"?>
<!-- Created with Inkscape (http://www.inkscape.org/) -->

<svg
   xmlns:dc="http://purl.org/dc/elements/1.1/"
   xmlns:cc="http://creativecommons.org/ns#"
   xmlns:rdf="http://www.w3.org/1999/02/22-rdf-syntax-ns#"
   xmlns:svg="http://www.w3.org/2000/svg"
   xmlns="http://www.w3.org/2000/svg"
   xmlns:sodipodi="http://sodipodi.sourceforge.net/DTD/sodipodi-0.dtd"
   xmlns:inkscape="http://www.inkscape.org/namespaces/inkscape"
   version="1.1"
   width="160.6875"
   height="220.6875"
   id="svg4538"
   inkscape:version="0.48.4 r9939"
   sodipodi:docname="marker.svg">
  <sodipodi:namedview
     pagecolor="#ffffff"
     bordercolor="#666666"
     borderopacity="1"
     objecttolerance="10"
     gridtolerance="10"
     guidetolerance="10"
     inkscape:pageopacity="0"
     inkscape:pageshadow="2"
     inkscape:window-width="1280"
     inkscape:window-height="1420"
     id="namedview3057"
     showgrid="false"
     inkscape:snap-midpoints="true"
     inkscape:snap-smooth-nodes="false"
     inkscape:object-paths="true"
     inkscape:object-nodes="true"
     fit-margin-top="0"
     fit-margin-left="0"
     fit-margin-right="0"
     fit-margin-bottom="0"
     inkscape:zoom="1.7423198"
     inkscape:cx="-42.456794"
     inkscape:cy="102.72598"
     inkscape:window-x="0"
     inkscape:window-y="30"
     inkscape:window-maximized="0"
     inkscape:current-layer="svg4538" />
  <defs
     id="defs4540" />
  <metadata
     id="metadata4543">
    <rdf:RDF>
      <cc:Work
         rdf:about="">
        <dc:format>image/svg+xml</dc:format>
        <dc:type
           rdf:resource="http://purl.org/dc/dcmitype/StillImage" />
        <dc:title></dc:title>
      </cc:Work>
    </rdf:RDF>
  </metadata>
  <path
     style="fill:#74a57b;fill-opacity:1;stroke:none"
     d="M 80.34375,0 C 35.966234,0 0,35.966234 0,80.34375 c 0,18.14088 11.086363,41.61915 16.15625,48.34375 5.069886,6.7246 64.1875,92 64.1875,92 0,0 59.11762,-85.2754 64.1875,-92 5.06989,-6.7246 16.15625,-30.20287 16.15625,-48.34375 C 160.6875,35.966234 124.72127,0 80.34375,0 z"
     id="path3061"
     inkscape:connector-curvature="0"
     sodipodi:nodetypes="sszczss" />
  <path
     d="m 63.330836,68.142227 c -0.85759,0 -1.715179,-0.187757 -2.364747,-0.5626 L 29.295662,49.425968 c -1.732627,-1.001192 -2.599611,-2.320458 -2.599611,-3.638381 0,-1.319266 0.866984,-2.638532 2.599611,-3.638382 L 72.753587,17.057659 c 1.005219,-0.581122 1.956754,-0.856248 2.802265,-0.856248 2.070831,0 3.502831,1.65076 3.500147,4.493287 l 0,36.448236 c 0,1.501386 -1.062928,3.343124 -2.362062,4.094286 l -11.001038,6.342407 c -0.648225,0.374843 -1.504473,0.5626 -2.362063,0.5626"
     id="path4483"
     style="fill:#e2f2e9;fill-opacity:1;stroke:none"
     inkscape:connector-curvature="0" />
  <path
     d="M 82.416341,59.517224 C 81.987546,58.77453 81.721353,57.937957 81.721193,57.187993 L 81.607509,20.68377 c 7.44e-4,-2.001095 0.70977,-3.411558 1.851125,-4.07052 1.142518,-0.659632 2.718527,-0.568435 4.450736,0.432139 l 43.45888,25.089892 c 1.00587,0.579984 1.71991,1.266475 2.14266,1.998709 1.03542,1.793392 0.32182,3.858921 -2.14122,5.27786 L 99.804589,67.635968 c -1.300238,0.750693 -3.426694,0.751039 -4.726787,0.0015 L 84.084598,61.28153 c -0.648736,-0.373958 -1.239463,-1.021611 -1.668257,-1.764306"
     id="path4487"
     style="fill:#e2f2e9;fill-opacity:1;stroke:none"
     inkscape:connector-curvature="0" />
  <path
     d="m 99.428564,71.733247 c 0.428795,-0.742694 1.020196,-1.39151 1.669596,-1.76663 l 31.55675,-18.350565 c 1.73337,-0.999902 3.30938,-1.0911 4.45073,-0.432138 1.14252,0.659633 1.85155,2.070096 1.85113,4.07052 l 9.5e-4,50.181436 c 6.6e-4,1.16111 -0.23684,2.12272 -0.6596,2.85496 -1.03541,1.79339 -3.18101,2.20816 -5.64137,0.78457 l -31.5651,-18.224116 c -1.300239,-0.750693 -2.363766,-2.592085 -2.364725,-4.092749 l 0.0078,-12.698382 c -5.11e-4,-0.748801 0.26501,-1.584211 0.693805,-2.326906"
     id="path4491"
     style="fill:#e2f2e9;fill-opacity:1;stroke:none"
     inkscape:connector-curvature="0" />
  <path
     d="m 97.355294,92.574276 c 0.85759,0 1.715179,0.187757 2.364747,0.5626 l 31.670429,18.153664 c 1.73262,1.00119 2.59961,2.32045 2.59961,3.63838 0,1.31926 -0.86699,2.63853 -2.59961,3.63838 l -43.457927,25.09154 c -1.005219,0.58113 -1.956754,0.85625 -2.802265,0.85625 -2.070831,0 -3.502831,-1.65076 -3.500147,-4.49329 l 0,-36.44823 c 0,-1.50139 1.062928,-3.34313 2.362062,-4.094287 l 11.001038,-6.342407 c 0.648225,-0.374843 1.504473,-0.5626 2.362063,-0.5626"
     id="path4495"
     style="fill:#e2f2e9;fill-opacity:1;stroke:none"
     inkscape:connector-curvature="0" />
  <path
     d="m 78.269789,101.19931 c 0.428795,0.74269 0.694988,1.57926 0.695148,2.32923 l 0.113684,36.50422 c -7.44e-4,2.00109 -0.70977,3.41156 -1.851125,4.07052 -1.142518,0.65963 -2.718527,0.56843 -4.450736,-0.43214 L 29.317881,118.58125 c -1.005874,-0.57998 -1.719909,-1.26648 -2.142664,-1.99871 -1.035416,-1.79339 -0.321816,-3.85892 2.141227,-5.27786 L 60.881541,93.080562 c 1.300238,-0.750693 3.426694,-0.751039 4.726787,-0.0015 l 10.993204,6.355975 c 0.648736,0.373958 1.239463,1.021613 1.668257,1.764303"
     id="path4499"
     style="fill:#e2f2e9;fill-opacity:1;stroke:none"
     inkscape:connector-curvature="0" />
  <path
     d="m 61.257558,88.983283 c -0.428795,0.742694 -1.020192,1.39151 -1.669599,1.76663 L 28.031216,109.10048 c -1.733372,0.9999 -3.309381,1.0911 -4.450736,0.43214 -1.142518,-0.65964 -1.851543,-2.0701 -1.851126,-4.07052 l -9.53e-4,-50.181442 c -6.56e-4,-1.161106 0.236845,-2.122723 0.6596,-2.854957 1.035416,-1.793392 3.181016,-2.208161 5.641375,-0.784573 l 31.565097,18.224118 c 1.300238,0.750693 2.363766,2.592085 2.364724,4.092749 l -0.0078,12.698382 c 5.11e-4,0.748801 -0.26501,1.584211 -0.693805,2.326906"
     id="path4503"
     style="fill:#e2f2e9;fill-opacity:1;stroke:none"
     inkscape:connector-curvature="0" />
</svg>
