<?xml version="1.0" encoding="UTF-8" standalone="no"?>
<!-- Created with Inkscape (http://www.inkscape.org/) -->

<svg
   xmlns:dc="http://purl.org/dc/elements/1.1/"
   xmlns:cc="http://creativecommons.org/ns#"
   xmlns:rdf="http://www.w3.org/1999/02/22-rdf-syntax-ns#"
   xmlns:svg="http://www.w3.org/2000/svg"
   xmlns="http://www.w3.org/2000/svg"
   xmlns:sodipodi="http://sodipodi.sourceforge.net/DTD/sodipodi-0.dtd"
   xmlns:inkscape="http://www.inkscape.org/namespaces/inkscape"
   width="70.28125"
   height="67.625"
   id="svg5283"
   version="1.1"
   inkscape:version="0.48.4 r9939"
   sodipodi:docname="product.svg">
  <defs
     id="defs5285" />
  <sodipodi:namedview
     id="base"
     pagecolor="#ffffff"
     bordercolor="#666666"
     borderopacity="1.0"
     inkscape:pageopacity="0.0"
     inkscape:pageshadow="2"
     inkscape:zoom="7.9195959"
     inkscape:cx="32.825708"
     inkscape:cy="46.821991"
     inkscape:document-units="px"
     inkscape:current-layer="layer1"
     showgrid="false"
     inkscape:window-width="1279"
     inkscape:window-height="1420"
     inkscape:window-x="1279"
     inkscape:window-y="30"
     inkscape:window-maximized="0"
     borderlayer="false"
     fit-margin-top="0"
     fit-margin-left="0"
     fit-margin-right="0"
     fit-margin-bottom="0" />
  <metadata
     id="metadata5288">
    <rdf:RDF>
      <cc:Work
         rdf:about="">
        <dc:format>image/svg+xml</dc:format>
        <dc:type
           rdf:resource="http://purl.org/dc/dcmitype/StillImage" />
        <dc:title></dc:title>
      </cc:Work>
    </rdf:RDF>
  </metadata>
  <g
     inkscape:label="Layer 1"
     inkscape:groupmode="layer"
     id="layer1"
     transform="translate(-0.34375,-0.34375)">
    <path
       style="fill:none;stroke:#753cbf;stroke-width:1px;stroke-linecap:butt;stroke-linejoin:miter;stroke-opacity:1"
       d="m 11.634986,66.518189 -7.3608702,-4.39334 0.0313,0.0218 c -2.09718,-1.4545 -3.46544999,-3.87967 -3.46544999,-6.63618 l 0,-46.6104104 c 0,-4.47067 3.59912999,-8.06980002 8.06978999,-8.06980002 l 0,0 46.6104202,0 c 1.51417,0 2.92837,0.41287002 4.13663,1.13262002 l 0.0116,0.007 7.11168,4.26431"
       id="path4710"
       inkscape:connector-curvature="0"
       sodipodi:nodetypes="cccssccsccc" />
    <rect
       style="fill:none;stroke:#753cbf;stroke-width:1;stroke-miterlimit:4;stroke-opacity:1;stroke-dasharray:none;stroke-dashoffset:10"
       id="rect4704"
       width="62.75"
       height="62.75"
       x="7.3806801"
       y="4.7193594"
       ry="8.0697937" />
    <g
       style="fill:none;stroke:#e81097;stroke-width:8;stroke-miterlimit:4;stroke-opacity:1;stroke-dasharray:none"
       id="g4727"
       transform="matrix(0.03938521,0,0,-0.03938521,-54.509274,68.764389)"
       inkscape:tile-x0="90.24188"
       inkscape:tile-y0="75.42899"
       inkscape:transform-center-x="8.0605709"
       inkscape:transform-center-y="-11.206333">
      <path
         sodipodi:nodetypes="cccsccscsccc"
         style="fill:none;stroke:#e81097;stroke-width:8;stroke-miterlimit:4;stroke-opacity:1;stroke-dasharray:none"
         inkscape:connector-curvature="0"
         d="m 2241.26,920.523 c -6.39,0 -12.78,1.399 -17.62,4.192 l -235.98,135.265 c -12.91,7.46 -19.37,17.29 -19.37,27.11 0,9.83 6.46,19.66 19.37,27.11 l 323.81,186.96 c 7.49,4.33 14.58,6.38 20.88,6.38 15.43,0 26.1,-12.3 26.08,-33.48 l 0,-271.58 c 0,-11.187 -7.92,-24.91 -17.6,-30.507 l -81.97,-47.258 c -4.83,-2.793 -11.21,-4.192 -17.6,-4.192"
         id="path4729" />
    </g>
    <g
       style="fill:none;stroke:#ff6b01;stroke-width:8;stroke-miterlimit:4;stroke-opacity:1;stroke-dasharray:none"
       id="g4731"
       transform="matrix(0.0196926,0.03410859,0.03410859,-0.0196926,-36.169864,-28.340451)"
       inkscape:tile-x0="90.24188"
       inkscape:tile-y0="75.42899"
       inkscape:transform-center-x="8.0605785"
       inkscape:transform-center-y="-11.206324">
      <path
         sodipodi:nodetypes="cccsccscsccc"
         style="fill:none;stroke:#ff6b01;stroke-width:8;stroke-miterlimit:4;stroke-opacity:1;stroke-dasharray:none"
         inkscape:connector-curvature="0"
         d="m 2241.26,920.523 c -6.39,0 -12.78,1.399 -17.62,4.192 l -235.98,135.265 c -12.91,7.46 -19.37,17.29 -19.37,27.11 0,9.83 6.46,19.66 19.37,27.11 l 323.81,186.96 c 7.49,4.33 14.58,6.38 20.88,6.38 15.43,0 26.1,-12.3 26.08,-33.48 l 0,-271.58 c 0,-11.187 -7.92,-24.91 -17.6,-30.507 l -81.97,-47.258 c -4.83,-2.793 -11.21,-4.192 -17.6,-4.192"
         id="path4733" />
    </g>
    <g
       style="fill:none;stroke:#ffa509;stroke-width:8;stroke-miterlimit:4;stroke-opacity:1;stroke-dasharray:none"
       id="g4735"
       transform="matrix(-0.0196926,0.03410859,0.03410859,0.0196926,57.095086,-61.010471)"
       inkscape:tile-x0="90.24188"
       inkscape:tile-y0="75.42899"
       inkscape:transform-center-x="8.0605737"
       inkscape:transform-center-y="-11.206322">
      <path
         sodipodi:nodetypes="cccsccscsccc"
         style="fill:none;stroke:#ffa509;stroke-width:8;stroke-miterlimit:4;stroke-opacity:1;stroke-dasharray:none"
         inkscape:connector-curvature="0"
         d="m 2241.26,920.523 c -6.39,0 -12.78,1.399 -17.62,4.192 l -235.98,135.265 c -12.91,7.46 -19.37,17.29 -19.37,27.11 0,9.83 6.46,19.66 19.37,27.11 l 323.81,186.96 c 7.49,4.33 14.58,6.38 20.88,6.38 15.43,0 26.1,-12.3 26.08,-33.48 l 0,-271.58 c 0,-11.187 -7.92,-24.91 -17.6,-30.507 l -81.97,-47.258 c -4.83,-2.793 -11.21,-4.192 -17.6,-4.192"
         id="path4737" />
    </g>
    <g
       style="fill:none;stroke:#3baf2a;stroke-width:8;stroke-miterlimit:4;stroke-opacity:1;stroke-dasharray:none"
       id="g4739"
       transform="matrix(-0.03938521,0,0,0.03938521,132.02065,3.4243286)"
       inkscape:tile-x0="90.24188"
       inkscape:tile-y0="75.42899"
       inkscape:transform-center-x="8.060585"
       inkscape:transform-center-y="-11.206327">
      <path
         sodipodi:nodetypes="cccsccscsccc"
         style="fill:none;stroke:#3baf2a;stroke-width:8;stroke-miterlimit:4;stroke-opacity:1;stroke-dasharray:none"
         inkscape:connector-curvature="0"
         d="m 2241.26,920.523 c -6.39,0 -12.78,1.399 -17.62,4.192 l -235.98,135.265 c -12.91,7.46 -19.37,17.29 -19.37,27.11 0,9.83 6.46,19.66 19.37,27.11 l 323.81,186.96 c 7.49,4.33 14.58,6.38 20.88,6.38 15.43,0 26.1,-12.3 26.08,-33.48 l 0,-271.58 c 0,-11.187 -7.92,-24.91 -17.6,-30.507 l -81.97,-47.258 c -4.83,-2.793 -11.21,-4.192 -17.6,-4.192"
         id="path4741" />
    </g>
    <g
       style="fill:none;stroke:#0174c7;stroke-width:8;stroke-miterlimit:4;stroke-opacity:1;stroke-dasharray:none"
       id="g4743"
       transform="matrix(-0.0196926,-0.03410859,-0.03410859,0.0196926,113.68124,100.52917)"
       inkscape:tile-x0="90.24188"
       inkscape:tile-y0="75.42899"
       inkscape:transform-center-x="8.0605779"
       inkscape:transform-center-y="-11.20634">
      <path
         sodipodi:nodetypes="cccsccscsccc"
         style="fill:none;stroke:#0174c7;stroke-width:8;stroke-miterlimit:4;stroke-opacity:1;stroke-dasharray:none"
         inkscape:connector-curvature="0"
         d="m 2241.26,920.523 c -6.39,0 -12.78,1.399 -17.62,4.192 l -235.98,135.265 c -12.91,7.46 -19.37,17.29 -19.37,27.11 0,9.83 6.46,19.66 19.37,27.11 l 323.81,186.96 c 7.49,4.33 14.58,6.38 20.88,6.38 15.43,0 26.1,-12.3 26.08,-33.48 l 0,-271.58 c 0,-11.187 -7.92,-24.91 -17.6,-30.507 l -81.97,-47.258 c -4.83,-2.793 -11.21,-4.192 -17.6,-4.192"
         id="path4745" />
    </g>
    <g
       style="fill:none;stroke:#753cbf;stroke-width:8;stroke-miterlimit:4;stroke-opacity:1;stroke-dasharray:none"
       id="g4747"
       transform="matrix(0.0196926,-0.03410859,-0.03410859,-0.0196926,20.416286,133.19919)"
       inkscape:tile-x0="90.24188"
       inkscape:tile-y0="75.42899"
       inkscape:transform-center-x="8.0605827"
       inkscape:transform-center-y="-11.206342">
      <path
         sodipodi:nodetypes="cccsccscsccc"
         style="fill:none;stroke:#753cbf;stroke-width:8;stroke-miterlimit:4;stroke-opacity:1;stroke-dasharray:none"
         inkscape:connector-curvature="0"
         d="m 2241.26,920.523 c -6.39,0 -12.78,1.399 -17.62,4.192 l -235.98,135.265 c -12.91,7.46 -19.37,17.29 -19.37,27.11 0,9.83 6.46,19.66 19.37,27.11 l 323.81,186.96 c 7.49,4.33 14.58,6.38 20.88,6.38 15.43,0 26.1,-12.3 26.08,-33.48 l 0,-271.58 c 0,-11.187 -7.92,-24.91 -17.6,-30.507 l -81.97,-47.258 c -4.83,-2.793 -11.21,-4.192 -17.6,-4.192"
         id="path4749" />
    </g>
  </g>
</svg>
