<?xml version="1.0" encoding="UTF-8" standalone="no"?>
<!-- Created with Inkscape (http://www.inkscape.org/) -->

<svg
   xmlns:dc="http://purl.org/dc/elements/1.1/"
   xmlns:cc="http://creativecommons.org/ns#"
   xmlns:rdf="http://www.w3.org/1999/02/22-rdf-syntax-ns#"
   xmlns:svg="http://www.w3.org/2000/svg"
   xmlns="http://www.w3.org/2000/svg"
   version="1.1"
   width="272.40118"
   height="276.63501"
   id="svg2">
  <defs
     id="defs4">
    <clipPath
       id="clipPath4527">
      <path
         d="m 346.99651,326.86131 29.68803,-2.49714 C 378.64191,217.66632 350.42548,176.0733 350.42548,176.0733 L 59.33009,161.94369 98.515669,287.99392 c -0.450981,0.0557 -1.74235,0.56861 -1.758396,1.61337 -0.01605,1.04477 1.407311,2.30372 3.272997,2.95303 l 163.18108,56.79171 c 4.40401,1.53272 11.25262,1.7698 15.75208,0.54528 l 67.30218,-18.31608 c 4.23836,-1.15346 4.06111,-3.765 0.7309,-4.71992 z"
         id="path4529"
         style="fill:none;stroke:#000000;stroke-width:1.10442841;stroke-miterlimit:4;stroke-opacity:1;stroke-dashoffset:0" />
    </clipPath>
  </defs>
  <metadata
     id="metadata7">
    <rdf:RDF>
      <cc:Work
         rdf:about="">
        <dc:format>image/svg+xml</dc:format>
        <dc:type
           rdf:resource="http://purl.org/dc/dcmitype/StillImage" />
        <dc:title></dc:title>
      </cc:Work>
    </rdf:RDF>
  </metadata>
  <g
     transform="translate(-89.583743,-216.64651)"
     id="layer1">
    <text
       x="284.98944"
       y="266.75049"
       transform="matrix(0.96856265,0.24876977,-0.24876977,0.96856265,0,0)"
       id="text3084"
       xml:space="preserve"
       style="font-size:8.89172173px;font-style:normal;font-variant:normal;font-weight:normal;font-stretch:normal;line-height:125%;letter-spacing:0px;word-spacing:0px;fill:#000000;fill-opacity:1;stroke:none;font-family:Standard Symbols L;-inkscape-font-specification:Standard Symbols L"><tspan
         x="284.98944"
         y="266.75049"
         id="tspan3086">procdump</tspan></text>
    <path
       d="m 563.05158,356.25404 155.70056,-16.71092 c 6.68873,-0.71788 13.16294,5.87067 13.16294,13.16294 l 0,69.76358 c 0,7.29226 -5.87067,13.16294 -13.16294,13.16294 l -172.77365,0 c -7.29227,0 -14.9985,-7.45915 -13.16294,-13.16294 l 17.07309,-53.05266 c 1.83556,-5.7038 6.4742,-12.44506 13.16294,-13.16294 z"
       transform="matrix(0.94443739,0.32869137,-0.96490582,0.2625962,0,0)"
       id="rect3144"
       style="fill:none;stroke:#000000;stroke-width:1.46909928;stroke-miterlimit:4;stroke-opacity:1;stroke-dashoffset:0" />
    <path
       d="m 350.27047,463.7702 c -0.079,1.79045 -1.82913,3.56329 -5.19591,4.74147 l -64.761,22.66286 c -6.76934,2.36891 -17.55313,1.8889 -24.17891,-1.07626 L 99.152425,419.84552 c -3.402107,-1.52251 -5.077808,-3.72825 -4.960493,-5.66398"
       id="path4433"
       style="fill:none;stroke:#000000;stroke-width:1.20485902;stroke-miterlimit:4;stroke-opacity:1;stroke-dashoffset:0" />
    <path
       d="M 94.191932,414.18154 90.215392,288.87497"
       id="path4435"
       style="fill:none;stroke:#000000;stroke-width:1px;stroke-linecap:butt;stroke-linejoin:miter;stroke-opacity:1" />
    <path
       d="M 356.29292,329.59095 350.27047,463.7702"
       id="path4437"
       style="fill:none;stroke:#000000;stroke-width:1px;stroke-linecap:butt;stroke-linejoin:miter;stroke-opacity:1" />
    <path
       d="m 280.65123,357.41316 -2.87074,129.95989"
       id="path4439"
       style="fill:none;stroke:#000000;stroke-width:0.465;stroke-linecap:butt;stroke-linejoin:miter;stroke-miterlimit:4;stroke-opacity:1;stroke-dasharray:none" />
    <path
       d="m 259.52571,356.51823 0.4243,130.63681"
       id="path4441"
       style="fill:none;stroke:#000000;stroke-width:0.465;stroke-linecap:butt;stroke-linejoin:miter;stroke-miterlimit:4;stroke-opacity:1;stroke-dasharray:none" />
    <path
       d="M 719.28125,344.40625 563.59375,361.125 c -1.84667,0.1982 -3.61714,1.23945 -5.28125,3.09375 -1.66411,1.8543 -3.06205,4.45266 -3.78125,6.6875 l -17.0625,53.0625 c -0.11438,0.35543 0.16122,1.96352 1.9375,3.71875 1.77628,1.75523 4.58705,3.03125 6.5625,3.03125 l 172.78125,0 c 4.66311,0 8.25,-3.5869 8.25,-8.25 l 0,-69.75 c 0,-4.39251 -4.54106,-8.65355 -7.71875,-8.3125 z"
       transform="matrix(0.94443739,0.32869137,-0.96490582,0.2625962,0,0)"
       id="path4445"
       style="fill:none;stroke:#000000;stroke-width:1.46909928;stroke-miterlimit:4;stroke-opacity:1;stroke-dashoffset:0" />
    <path
       d="m 181.62227,282.43364 -0.0334,38.33743"
       id="path4452"
       style="fill:none;stroke:#000000;stroke-width:0.36500001;stroke-linecap:butt;stroke-linejoin:miter;stroke-miterlimit:4;stroke-opacity:1;stroke-dasharray:none" />
    <path
       d="m 171.16857,282.33965 -0.73379,34.35694"
       id="path4454"
       style="fill:none;stroke:#000000;stroke-width:0.36500001;stroke-linecap:butt;stroke-linejoin:miter;stroke-miterlimit:4;stroke-opacity:1;stroke-dasharray:none" />
    <g
       clip-path="url(#clipPath4527)"
       id="g4496">
      <text
         x="-201.31165"
         y="434.17303"
         transform="matrix(0.57199186,-0.82025929,0.82025929,0.57199186,0,0)"
         id="text3076"
         xml:space="preserve"
         style="font-size:42.24197006px;font-style:normal;font-variant:normal;font-weight:normal;font-stretch:normal;line-height:125%;letter-spacing:0px;word-spacing:0px;fill:#000000;fill-opacity:1;stroke:none;font-family:Standard Symbols L;-inkscape-font-specification:Standard Symbols L"><tspan
           x="-201.31165"
           y="434.17303"
           id="tspan3078">Wireshark</tspan></text>
      <text
         x="82.035133"
         y="336.74228"
         transform="matrix(0.94337076,-0.33174026,0.33174026,0.94337076,0,0)"
         id="text3080"
         xml:space="preserve"
         style="font-size:22px;font-style:normal;font-variant:normal;font-weight:normal;font-stretch:normal;line-height:125%;letter-spacing:0px;word-spacing:0px;fill:#000000;fill-opacity:1;stroke:none;font-family:Standard Symbols L;-inkscape-font-specification:Standard Symbols L"><tspan
           x="82.035133"
           y="336.74228"
           id="tspan3082">WinDbg</tspan></text>
      <text
         x="245.78218"
         y="-23.929094"
         transform="matrix(0.28102387,0.95970078,-0.95970078,0.28102387,0,0)"
         id="text3088"
         xml:space="preserve"
         style="font-size:26.53995323px;font-style:normal;font-variant:normal;font-weight:normal;font-stretch:normal;line-height:125%;letter-spacing:0px;word-spacing:0px;fill:#000000;fill-opacity:1;stroke:none;font-family:Standard Symbols L;-inkscape-font-specification:Standard Symbols L"><tspan
           x="245.78218"
           y="-23.929094"
           id="tspan3090">Mercurial</tspan></text>
      <text
         x="-283.2117"
         y="311.22003"
         transform="matrix(0.10437593,-0.99453792,0.99453792,0.10437593,0,0)"
         id="text3092"
         xml:space="preserve"
         style="font-size:18.17610168px;font-style:normal;font-variant:normal;font-weight:normal;font-stretch:normal;line-height:125%;letter-spacing:0px;word-spacing:0px;fill:#000000;fill-opacity:1;stroke:none;font-family:Standard Symbols L;-inkscape-font-specification:Standard Symbols L"><tspan
           x="-283.2117"
           y="311.22003"
           id="tspan3094">Notepad++</tspan></text>
      <text
         x="352.34082"
         y="35.112957"
         transform="matrix(0.66830203,0.74389004,-0.74389004,0.66830203,0,0)"
         id="text3096"
         xml:space="preserve"
         style="font-size:26.48214531px;font-style:normal;font-variant:normal;font-weight:normal;font-stretch:normal;line-height:125%;letter-spacing:0px;word-spacing:0px;fill:#000000;fill-opacity:1;stroke:none;font-family:Standard Symbols L;-inkscape-font-specification:Standard Symbols L"><tspan
           x="352.34082"
           y="35.112957"
           id="tspan3098">Batch</tspan></text>
      <text
         x="26.989506"
         y="378.84717"
         transform="matrix(0.92655744,-0.37615331,0.37615331,0.92655744,0,0)"
         id="text3100"
         xml:space="preserve"
         style="font-size:35.9156456px;font-style:normal;font-variant:normal;font-weight:normal;font-stretch:normal;line-height:125%;letter-spacing:0px;word-spacing:0px;fill:#000000;fill-opacity:1;stroke:none;font-family:Standard Symbols L;-inkscape-font-specification:Standard Symbols L"><tspan
           x="26.989506"
           y="378.84717"
           id="tspan3102">SQL</tspan></text>
      <text
         x="-92.615814"
         y="308.75671"
         transform="matrix(0.73296469,-0.68026668,0.68026668,0.73296469,0,0)"
         id="text4458"
         xml:space="preserve"
         style="font-size:22px;font-style:normal;font-variant:normal;font-weight:normal;font-stretch:normal;line-height:125%;letter-spacing:0px;word-spacing:0px;fill:#000000;fill-opacity:1;stroke:none;font-family:Standard Symbols L;-inkscape-font-specification:Standard Symbols L"><tspan
           x="-92.615814"
           y="308.75671"
           id="tspan4462">JScript</tspan></text>
      <text
         x="221.33328"
         y="229.29976"
         transform="matrix(0.93339235,0.35885751,-0.35885751,0.93339235,0,0)"
         id="text4466"
         xml:space="preserve"
         style="font-size:9.899683px;font-style:normal;font-variant:normal;font-weight:normal;font-stretch:normal;line-height:125%;letter-spacing:0px;word-spacing:0px;fill:#000000;fill-opacity:1;stroke:none;font-family:Standard Symbols L;-inkscape-font-specification:Standard Symbols L"><tspan
           x="221.33328"
           y="229.29976"
           id="tspan4468">WMIC</tspan></text>
      <text
         x="84.78289"
         y="457.12894"
         transform="matrix(0.86990531,-0.49321877,0.49321877,0.86990531,0,0)"
         id="text4470"
         xml:space="preserve"
         style="font-size:22px;font-style:normal;font-variant:normal;font-weight:normal;font-stretch:normal;line-height:125%;letter-spacing:0px;word-spacing:0px;fill:#000000;fill-opacity:1;stroke:none;font-family:Standard Symbols L;-inkscape-font-specification:Standard Symbols L"><tspan
           x="84.78289"
           y="457.12894"
           id="tspan4472">CMD</tspan></text>
      <text
         x="-206.22835"
         y="291.48633"
         transform="matrix(0.49548153,-0.86861847,0.86861847,0.49548153,0,0)"
         id="text4474"
         xml:space="preserve"
         style="font-size:11.5620966px;font-style:normal;font-variant:normal;font-weight:normal;font-stretch:normal;line-height:125%;letter-spacing:0px;word-spacing:0px;fill:#000000;fill-opacity:1;stroke:none;font-family:Standard Symbols L;-inkscape-font-specification:Standard Symbols L"><tspan
           x="-206.22835"
           y="291.48633"
           id="tspan4476">CLRDebugger</tspan></text>
      <text
         x="62.304146"
         y="346.789"
         transform="matrix(0.94797822,-0.31833518,0.31833518,0.94797822,0,0)"
         id="text3104"
         xml:space="preserve"
         style="font-size:15.29720592px;font-style:normal;font-variant:normal;font-weight:normal;font-stretch:normal;line-height:125%;letter-spacing:0px;word-spacing:0px;fill:#000000;fill-opacity:1;stroke:none;font-family:Standard Symbols L;-inkscape-font-specification:Standard Symbols L"><tspan
           x="62.304146"
           y="346.789"
           id="tspan3106">XML</tspan></text>
    </g>
  </g>
</svg>
