<?xml version="1.0" encoding="UTF-8" standalone="no"?>
<!-- Generator: Adobe Illustrator 14.0.0, SVG Export Plug-In . SVG Version: 6.00 Build 43363)  -->

<svg
   xmlns:dc="http://purl.org/dc/elements/1.1/"
   xmlns:cc="http://creativecommons.org/ns#"
   xmlns:rdf="http://www.w3.org/1999/02/22-rdf-syntax-ns#"
   xmlns:svg="http://www.w3.org/2000/svg"
   xmlns="http://www.w3.org/2000/svg"
   xmlns:sodipodi="http://sodipodi.sourceforge.net/DTD/sodipodi-0.dtd"
   xmlns:inkscape="http://www.inkscape.org/namespaces/inkscape"
   version="1.2"
   id="svg2"
   x="0px"
   y="0px"
   width="822.41998"
   height="521.65997"
   viewBox="0 0 822.41998 521.65998"
   xml:space="preserve"
   inkscape:version="0.48.4 r9939"
   sodipodi:docname="world.svg"><metadata
     id="metadata5242"><rdf:RDF><cc:Work
         rdf:about=""><dc:format>image/svg+xml</dc:format><dc:type
           rdf:resource="http://purl.org/dc/dcmitype/StillImage" /><dc:title></dc:title></cc:Work></rdf:RDF></metadata><defs
     id="defs5240" /><sodipodi:namedview
     pagecolor="#ffffff"
     bordercolor="#666666"
     borderopacity="1"
     objecttolerance="10"
     gridtolerance="10"
     guidetolerance="10"
     inkscape:pageopacity="0"
     inkscape:pageshadow="2"
     inkscape:window-width="2560"
     inkscape:window-height="1420"
     id="namedview5238"
     showgrid="false"
     inkscape:zoom="1.4052817"
     inkscape:cx="324.86841"
     inkscape:cy="139.83443"
     inkscape:window-x="0"
     inkscape:window-y="30"
     inkscape:window-maximized="1"
     inkscape:current-layer="svg2"
     fit-margin-top="0"
     fit-margin-left="0"
     fit-margin-right="0"
     fit-margin-bottom="0" /><path
     id="kalimantan"
     d="m 726.34,321.54 -2.31,8.68 -12.53,4.23 -3.75,-4.4 -1.82,0.5 3.4,13.12 5.09,0.57 6.79,2.57 v 2.57 l 3.11,-0.57 4.53,-6.27 v -5.13 l 2.55,-5.13 2.83,0.57 -3.4,-7.13 -0.52,-4.59 -3.97,0.41 0,0 z"
     style="fill:#c7c3c3;fill-opacity:1;stroke:none"
     inkscape:connector-curvature="0" /><path
     id="papua new guinea"
     d="m 797.42,345.43 -0.37,24.44 3.52,-0.19 4.63,-5.41 3.89,0.19 2.5,2.24 0.83,6.9 7.96,4.2 2.04,-0.75 v -2.52 l -6.39,-5.32 -3.15,-7.28 2.5,-1.21 -1.85,-4.01 -3.7,-0.09 -0.93,-4.29 -9.81,-6.62 -1.67,-0.28 0,0 z"
     style="fill:#c7c3c3;fill-opacity:1;stroke:none"
     inkscape:connector-curvature="0" /><path
     id="mexico"
     d="m 82.149998,222.57 4.83,15.21 -2.25,1.26 0.25,3.02 4.25,3.27 v 6.05 l 5.25,5.04 -2.25,-14.86 -3,-9.83 0.75,-6.8 2.5,0.25 1,2.27 -1,5.79 13.000002,25.44 v 9.07 l 10.5,12.34 11.5,5.29 4.75,-2.77 6.75,5.54 4,-4.03 -1.75,-4.54 5.75,-1.76 1.75,1.01 1.75,-1.76 h 2.75 l 5,-8.82 -2.5,-2.27 -9.75,2.27 -2.25,6.55 -5.75,1.01 -6.75,-2.77 -3,-9.57 2.27,-12.07 -4.64,-2.89 -2.21,-11.59 -1.85,-0.79 -3.38,3.43 -3.88,-2.07 -1.52,-7.73 -15.370002,-1.61 -7.94,-5.97 -7.56,0.39 0,0 z"
     style="fill:#c7c3c3;fill-opacity:1;stroke:none"
     inkscape:connector-curvature="0" /><path
     id="estonia"
     d="m 462.43,140.8 -5.6,-0.2 -3.55,2.17 -0.05,1.61 2.3,2.17 7.15,1.21 -0.25,-6.96 0,0 z"
     style="fill:#c7c3c3;fill-opacity:1;stroke:none"
     inkscape:connector-curvature="0" /><path
     id="algeria"
     d="m 418.54,224.63 -4.08,-1.37 -16.98,3.19 -3.7,2.81 2.26,11.67 -6.75,0.27 -4.06,6.53 -9.67,2.32 0.03,4.75 31.85,24.35 5.43,0.46 18.11,-14.15 -1.81,-2.28 -3.4,-0.46 -2.04,-3.42 v -14.15 l -1.36,-1.37 0.23,-3.65 -3.62,-3.65 -0.45,-3.88 1.58,-1.14 -0.68,-4.11 -0.89,-2.72 0,0 z"
     style="fill:#c7c3c3;fill-opacity:1;stroke:none"
     inkscape:connector-curvature="0" /><path
     id="morocco"
     d="M 392.95,229.42 H 381.4 l -2.26,5.02 -5.21,2.51 -4.3,11.64 -8.38,5.02 -11.77,19.39 11.55,-0.23 0.45,-5.7 h 2.94 v -7.76 h 10.19 l 0.23,-10.04 9.74,-2.28 4.08,-6.62 6.34,-0.23 -2.05,-10.72 0,0 z"
     style="fill:#c7c3c3;fill-opacity:1;stroke:none"
     inkscape:connector-curvature="0" /><path
     id="mauretania"
     d="m 349.56,273.8 2.18,2.85 -0.45,12.32 3.17,-2.28 2.26,-0.46 3.17,1.14 3.62,5.02 3.4,-2.28 16.53,-0.23 -4.08,-27.61 4.38,-0.02 -8.16,-6.25 0.01,4.06 -10.33,0.01 -0.05,7.75 -2.97,-0.01 -0.38,5.72 -12.3,0.27 0,0 z"
     style="fill:#c7c3c3;fill-opacity:1;stroke:none"
     inkscape:connector-curvature="0" /><path
     id="senegal"
     d="m 354.78,287.46 -3.94,2.86 -0.9,1.6 -0.28,1.6 1.45,1.04 4.84,-0.07 3.11,-0.84 0.35,1.53 -0.28,2.02 2.97,1.46 0.62,0.7 3.94,0.14 0.14,-1.74 -3.6,-4.32 -4.01,-5.43 -2.49,-1.04 -1.92,0.49 0,0 z"
     style="fill:#c7c3c3;fill-opacity:1;stroke:none"
     inkscape:connector-curvature="0" /><path
     id="gambia"
     d="m 351.55,295.48 -0.13,1.11 6.92,-0.1 0.35,-1.03 -0.15,-1.04 -1.99,0.81 -5,0.25 0,0 z"
     style="fill:#c7c3c3;fill-opacity:1;stroke:none"
     inkscape:connector-curvature="0" /><path
     id="casamance"
     d="m 351.45,297.36 1.24,3.01 0.69,-1.86 8.41,0.88 -3.64,-1.87 -6.7,-0.16 0,0 z"
     style="fill:#c7c3c3;fill-opacity:1;stroke:none"
     inkscape:connector-curvature="0" /><path
     id="bissau"
     d="m 353.26,301.67 1.4,2.77 3.93,-3.38 0.04,-1.04 -4.63,-0.67 -0.74,2.32 0,0 z"
     style="fill:#c7c3c3;fill-opacity:1;stroke:none"
     inkscape:connector-curvature="0" /><path
     id="guinee"
     d="m 355.08,305.08 3.04,4.68 3.96,-3.44 4.06,-0.18 3.38,4.49 2.87,1.89 1.08,-2.1 0.96,-0.54 -0.07,-4.62 -1.91,-5.48 -5.86,0.65 -7.25,-0.58 -0.04,1.86 -4.22,3.37 0,0 z"
     style="fill:#c7c3c3;fill-opacity:1;stroke:none"
     inkscape:connector-curvature="0" /><path
     id="sierra leone"
     d="m 358.59,310.27 5.65,5.46 4.03,-4.89 -2.52,-3.95 -3.47,0.35 -3.69,3.03 0,0 z"
     style="fill:#c7c3c3;fill-opacity:1;stroke:none"
     inkscape:connector-curvature="0" /><path
     id="liberia"
     d="m 364.83,316.33 10.98,7.34 -0.26,-5.56 -3.32,-3.91 -3.24,-2.87 -4.16,5 0,0 z"
     style="fill:#c7c3c3;fill-opacity:1;stroke:none"
     inkscape:connector-curvature="0" /><path
     id="ivoire"
     d="m 376.73,323.89 4.28,-3.03 5.32,-0.93 5.43,1.17 -2.77,-4.19 -0.81,-2.56 0.81,-7.57 -4.85,0.23 -2.2,-2.1 -4.62,0.12 -2.2,0.35 0.23,5.12 -1.16,0.47 -1.39,2.56 3.58,4.19 0.35,6.17 0,0 z"
     style="fill:#c7c3c3;fill-opacity:1;stroke:none"
     inkscape:connector-curvature="0" /><path
     id="mali"
     d="m 364.12,292.98 3.08,-2.11 17.12,-0.1 -3.96,-27.54 4.52,-0.13 21.87,16.69 2.94,0.42 -1.11,9.28 -13.75,1.25 -10.61,7.92 -1.93,5.42 -7.37,0.31 -1.88,-5.41 -5.65,0.4 0.22,-1.77 -3.49,-4.63 0,0 z"
     style="fill:#c7c3c3;fill-opacity:1;stroke:none"
     inkscape:connector-curvature="0" /><path
     id="burkina"
     d="m 395.25,291.42 3.64,-0.29 5.97,8.44 -5.54,4.18 -4.01,-1.03 -5.39,0.07 -0.87,3.16 -4.52,0.22 -1.24,-1.69 1.6,-5.14 10.36,-7.92 0,0 z"
     style="fill:#c7c3c3;fill-opacity:1;stroke:none"
     inkscape:connector-curvature="0" /><path
     id="niger"
     d="m 405.55,299.14 2.55,-0.06 2.3,-3.45 3.86,-0.69 4.11,2.51 8.77,0.25 6.78,-2.76 2.55,-2.19 0.19,-2.88 4.73,-4.77 1.25,-10.53 -3.11,-6.52 -7.96,-1.94 -18.42,14.36 -2.61,-0.25 -1.12,9.97 -9.4,0.94 5.53,8.01 0,0 z"
     style="fill:#c7c3c3;fill-opacity:1;stroke:none"
     inkscape:connector-curvature="0" /><path
     id="ghana"
     d="m 389,314.19 1.12,2.63 2.92,4.58 1.62,-0.06 4.42,-2.51 -0.31,-14.29 -3.42,-1 -4.79,0.13 -1.56,10.52 0,0 z"
     style="fill:#c7c3c3;fill-opacity:1;stroke:none"
     inkscape:connector-curvature="0" /><path
     id="togo"
     d="m 399.88,318.39 2.68,-1.57 -0.06,-10.35 -1.74,-2.82 -1.12,0.94 0.24,13.8 0,0 z"
     style="fill:#c7c3c3;fill-opacity:1;stroke:none"
     inkscape:connector-curvature="0" /><path
     id="benin"
     d="m 403.37,316.63 h 2.12 l 0.12,-6.02 2.68,-3.89 -0.12,-6.77 -2.43,-0.06 -4.17,3.26 1.74,3.32 0.06,10.16 0,0 z"
     style="fill:#c7c3c3;fill-opacity:1;stroke:none"
     inkscape:connector-curvature="0" /><path
     id="nigeria"
     d="m 406.23,316.51 3.92,0.19 4.73,5.27 2.3,0.63 1.8,-0.88 2.74,-0.38 0.93,-3.82 3.73,-2.45 4.04,-0.19 7.4,-13.61 -0.12,-3.07 -3.42,-2.63 -6.84,3.01 -9.15,-0.13 -4.36,-2.76 -3.11,0.69 -1.62,2.82 -0.12,7.96 -2.61,3.7 -0.24,5.65 0,0 z"
     style="fill:#c7c3c3;fill-opacity:1;stroke:none"
     inkscape:connector-curvature="0" /><path
     id="tunisia"
     d="m 419.57,224.47 5.53,-2.23 1.82,1.18 0.07,1.44 -0.85,1.11 0.13,1.97 0.85,0.46 v 3.54 l -0.98,1.64 0.13,1.05 3.71,1.31 -2.99,4.65 -1.17,-0.07 -0.2,3.74 -1.3,0.2 -1.11,-0.98 0.26,-3.8 -3.64,-3.54 -0.46,-3.08 1.76,-1.38 -1.56,-7.21 0,0 z"
     style="fill:#c7c3c3;fill-opacity:1;stroke:none"
     inkscape:connector-curvature="0" /><path
     id="libya"
     d="m 424.71,245.17 1.56,-0.26 0.46,-3.6 h 0.78 l 3.19,-5.24 7.87,2.29 2.15,3.34 7.74,3.54 4.03,-1.7 -0.39,-1.7 -1.76,-1.7 0.2,-1.18 2.86,-2.42 h 5.66 l 2.15,2.88 4.55,0.66 0.59,36.89 -3.38,-0.13 -20.42,-10.62 -2.21,1.25 -8.39,-2.1 -2.28,-3.01 -3.32,-0.46 -1.69,-3.01 0.05,-13.72 0,0 z"
     style="fill:#c7c3c3;fill-opacity:1;stroke:none"
     inkscape:connector-curvature="0" /><path
     id="egypt"
     d="m 466.59,240.2 2.67,0.07 5.2,1.44 2.47,0.07 3.06,-2.56 h 1.43 l 2.6,1.44 h 3.29 l 0.59,-0.04 2.08,5.98 0.59,1.93 0.55,2.89 -0.98,0.72 -1.69,-0.85 -1.95,-6.36 -1.76,-0.13 -0.13,2.16 1.17,3.74 9.37,11.6 0.2,4.98 -2.73,3.15 -25.64,-0.29 -0.39,-29.94 0,0 z"
     style="fill:#c7c3c3;fill-opacity:1;stroke:none"
     inkscape:connector-curvature="0" /><path
     id="chad"
     d="m 437.45,293.14 0.13,-2.95 4.74,-4.61 1.27,-11.32 -3.16,-6.04 2.21,-1.13 21.4,11.15 -0.13,10.94 -3.77,3.21 v 5.64 l 2.47,4.78 h -4.36 l -7.22,7.14 -0.19,2.16 -5.33,-0.07 -0.07,0.98 -3.04,-0.4 -2.08,-3.93 -1.56,-0.77 0.2,-1.2 1.96,-1.5 v -7.02 l -2.71,-0.42 -3.27,-2.43 2.51,-2.21 0,0 0,0 z"
     style="fill:#c7c3c3;fill-opacity:1;stroke:none"
     inkscape:connector-curvature="0" /><path
     id="sudan"
     d="m 464.81,289.57 0.18,-11.83 2.46,0.07 -0.28,-6.57 25.8,0.23 3.69,-3.72 7.96,12.73 -4.36,5.14 v 7.85 l -6.86,14.75 -2.36,1.04 0.75,4.11 h 2.94 l 3.99,5.79 -3.2,0.41 -0.82,1.49 -0.08,2.15 -9.6,-0.17 -0.98,-1.49 -6.71,-0.38 -12.32,-12.68 1.23,-0.74 0.33,-2.98 -2.95,-1.74 -2.69,-5.31 0.15,-4.94 3.73,-3.21 0,0 z"
     style="fill:#c7c3c3;fill-opacity:1;stroke:none"
     inkscape:connector-curvature="0" /><path
     id="cameroon"
     d="m 422.48,321.42 3.22,2.96 -0.23,4.58 17.66,-0.41 1.44,-1.62 -5.06,-5.45 -0.75,-1.97 3.22,-6.03 -2.19,-4 -1.84,-0.99 v -2.03 l 2.13,-1.39 0.12,-6.32 -1.69,-0.19 -0.03,3.32 -7.42,13.85 -4.54,0.23 -3.11,2.14 -0.93,3.32 0,0 z"
     style="fill:#c7c3c3;fill-opacity:1;stroke:none"
     inkscape:connector-curvature="0" /><path
     id="eritrea"
     d="m 501.37,291.84 -0.25,-5.89 3.96,-4.62 1.07,0.82 1.95,6.52 9.36,6.97 -1.7,2.09 -6.85,-5.89 h -7.54 l 0,0 z"
     style="fill:#c7c3c3;fill-opacity:1;stroke:none"
     inkscape:connector-curvature="0" /><path
     id="djibouti"
     d="m 516.14,298.68 -0.57,3.36 3.96,-0.06 0.06,-4.94 -1.45,-0.89 -2,2.53 0,0 z"
     style="fill:#c7c3c3;fill-opacity:1;stroke:none"
     inkscape:connector-curvature="0" /><path
     id="ethiopia"
     d="m 494.15,308.9 7.28,-16.2 7.23,0.04 6.41,5.57 -0.45,4.59 h 4.97 l 0.51,2.76 8.04,4.81 4.96,0.25 -9.43,10.13 -12.95,3.99 h -3.21 l -5.72,-4.88 -2.26,-0.95 -4.38,-6.45 -2.89,0.04 -0.34,-2.96 2.23,-0.74 0,0 z"
     style="fill:#c7c3c3;fill-opacity:1;stroke:none"
     inkscape:connector-curvature="0" /><path
     id="somaliland"
     d="m 520.4,302.18 4.08,2.78 1.21,-0.06 10.13,-3.48 1.15,3.71 -0.81,3.13 -2.19,1.74 -5.47,-0.35 -7.83,-4.81 -0.27,-2.66 0,0 z"
     style="fill:#c7c3c3;fill-opacity:1;stroke:none"
     inkscape:connector-curvature="0" /><path
     id="soqotra"
     d="m 544.28,296.79 2.13,2.38 2.88,-1.74 1.04,-0.35 -1.32,-1.28 -2.53,0.75 -2.2,0.24 0,0 z"
     style="fill:#c7c3c3;fill-opacity:1;stroke:none"
     inkscape:connector-curvature="0" /><path
     id="somalia"
     d="m 536.63,301.19 4.37,-1.68 1.55,0.93 -0.17,3.88 -4.03,11.48 -21.81,23.36 -2.53,-1.74 -0.17,-9.86 3.28,-3.77 6.96,-2.15 10.21,-10.78 2.67,-2.38 0.75,-3.48 -1.08,-3.81 0,0 z"
     style="fill:#c7c3c3;fill-opacity:1;stroke:none"
     inkscape:connector-curvature="0" /><path
     id="centrafrique"
     d="m 440.32,321.19 4.66,5.04 1.84,-2.38 2.93,0.12 0.63,-2.32 2.88,-1.8 5.98,4.12 3.45,-3.42 13.39,0.59 -12.42,-12.82 1.67,-1.04 0.23,-2.26 -2.82,-1.33 h -4.14 l -6.67,6.61 -0.23,2.72 -5.29,-0.17 -0.17,1.16 -3.45,-0.35 -3.11,5.91 0.64,1.62 0,0 z"
     style="fill:#c7c3c3;fill-opacity:1;stroke:none"
     inkscape:connector-curvature="0" /><path
     id="sao tome"
     d="m 415.4,334.29 1.15,-0.58 0.86,0.7 -0.86,1.33 -1.04,-0.41 -0.11,-1.04 0,0 z"
     style="fill:#c7c3c3;fill-opacity:1;stroke:none"
     inkscape:connector-curvature="0" /><path
     id="principe"
     d="m 417.71,330.64 1.73,-0.29 0.58,1.1 -0.86,0.93 -0.86,-0.12 -0.59,-1.62 0,0 z"
     style="fill:#c7c3c3;fill-opacity:1;stroke:none"
     inkscape:connector-curvature="0" /><path
     id="bioko"
     d="m 421.5,324.55 -0.46,1.97 1.38,0.75 1.32,-0.99 -0.46,-2.03 -1.78,0.3 0,0 z"
     style="fill:#c7c3c3;fill-opacity:1;stroke:none"
     inkscape:connector-curvature="0" /><path
     id="gabon"
     d="m 431.05,329.77 -0.12,2.49 -5.64,-0.12 -3.45,6.67 8.11,8.87 2.01,-1.68 -0.06,-1.74 -1.38,-0.64 v -1.22 l 3.11,-1.97 2.76,2.09 3.05,0.06 -0.06,-10.49 -4.83,-0.23 -0.06,-2.2 -3.44,0.11 0,0 z"
     style="fill:#c7c3c3;fill-opacity:1;stroke:none"
     inkscape:connector-curvature="0" /><path
     id="equatorial guinea"
     d="m 425.65,329.83 -0.06,1.39 4.54,0.23 -0.06,-1.57 -4.42,-0.05 0,0 z"
     style="fill:#c7c3c3;fill-opacity:1;stroke:none"
     inkscape:connector-curvature="0" /><path
     id="congo"
     d="m 435.66,329.66 -0.06,1.45 4.78,0.12 0.17,12.41 -4.37,-0.12 -2.53,-1.97 -1.96,1.1 -0.09,0.55 1.01,0.49 0.29,2.55 -2.7,2.32 0.58,1.22 2.99,-2.32 h 1.44 l 0.46,1.39 1.9,0.81 6.1,-5.16 -0.12,-3.77 1.27,-3.07 3.91,-2.9 1.05,-9.81 -2.78,0.01 -3.22,4.41 -8.12,0.29 0,0 z"
     style="fill:#c7c3c3;fill-opacity:1;stroke:none"
     inkscape:connector-curvature="0" /><path
     id="cabinda"
     d="m 431.21,350.37 1.74,2.26 2.25,-2.13 -0.66,-2.21 -0.56,-0.04 -2.77,2.12 0,0 z"
     style="fill:#c7c3c3;fill-opacity:1;stroke:none"
     inkscape:connector-curvature="0" /><path
     id="drc"
     d="m 434.04,352.85 10.31,-0.18 2.09,2.97 -0.08,2.19 0.77,0.7 h 5.12 l 1.47,-2.89 h 2.09 l 0.85,0.86 2.87,-0.08 0.85,10.08 4.96,0.16 v 0.78 l 13.33,6.01 0.62,1.17 h 2.79 l -0.31,-4.22 -5.04,-2.42 0.31,-3.2 2.17,-5.08 4.96,-0.16 -4.26,-14.14 0.08,-6.01 6.74,-10.54 0.08,-1.48 -1.01,-0.55 0.04,-2.86 -1.23,-0.11 -1.24,-1.58 -20.35,-0.92 -3.73,3.63 -6.11,-4.02 -2.15,1.32 -1.56,13.13 -3.86,2.98 -1.16,2.64 0.21,3.91 -6.96,5.69 -1.85,-0.84 0.25,1.09 -2.06,1.97 0,0 z"
     style="fill:#c7c3c3;fill-opacity:1;stroke:none"
     inkscape:connector-curvature="0" /><path
     id="rwanda"
     d="m 482.48,337.04 2.81,2.59 -0.12,2.77 -4.36,0.09 v -3.06 l 1.67,-2.39 0,0 z"
     style="fill:#c7c3c3;fill-opacity:1;stroke:none"
     inkscape:connector-curvature="0" /><path
     id="burundi"
     d="m 480.87,343.35 4.27,-0.09 -1.11,3.74 -1.08,0.94 h -1.32 l -0.94,-2.53 0.18,-2.06 0,0 z"
     style="fill:#c7c3c3;fill-opacity:1;stroke:none"
     inkscape:connector-curvature="0" /><path
     id="uganda"
     d="m 482.96,336.23 3.03,2.84 1.9,-1.21 5.14,-0.84 0.88,0.09 0.33,-1.95 2.9,-6.1 -2.44,-5.08 -7.91,0.05 -0.05,2.09 1.06,1.02 -0.16,2.09 -4.68,7 0,0 z"
     style="fill:#c7c3c3;fill-opacity:1;stroke:none"
     inkscape:connector-curvature="0" /><path
     id="kenya"
     d="m 495.49,323.66 2.66,5.19 -3.19,6.69 -0.42,2.03 15.93,9.85 4.94,-7.76 -2.5,-2.03 -0.05,-10.22 3.13,-3.42 -4.99,1.66 -3.77,0.05 -5.9,-4.98 -1.86,-0.8 -3.45,0.32 -0.61,1.02 0.08,2.4 0,0 z"
     style="fill:#c7c3c3;fill-opacity:1;stroke:none"
     inkscape:connector-curvature="0" /><path
     id="tanzania"
     d="m 495.23,368.56 17.47,-2.14 -3.93,-7.6 -0.21,-7.28 1.27,-3.48 -16.62,-10.44 -5.21,0.86 -1.81,1.34 -0.16,3.05 -1.17,4.23 -1.22,1.45 -1.75,0.16 3.35,11.61 5.47,2.57 3.77,0.11 0.75,5.56 0,0 z"
     style="fill:#c7c3c3;fill-opacity:1;stroke:none"
     inkscape:connector-curvature="0" /><path
     id="zambia"
     d="m 459.21,381.84 3.17,4.4 4.91,0.3 1.74,0.96 5.14,0.06 4.43,-6.21 12.38,-5.54 1.08,-4.88 -1.44,-6.99 -6.46,-3.68 -4.31,0.3 -2.15,4.76 0.06,2.17 5.08,2.47 0.3,5.37 -4.37,0.24 -1.08,-1.81 -12.14,-5.18 -0.36,3.98 -5.74,0.18 -0.24,9.1 0,0 z"
     style="fill:#c7c3c3;fill-opacity:1;stroke:none"
     inkscape:connector-curvature="0" /><path
     id="angola"
     d="m 433.28,353.85 3.41,12.73 -0.08,4.02 -4.99,5.36 -0.75,8.71 19.2,0.17 6.24,2.26 5.15,-0.67 -3,-3.76 0.01,-10.74 5.9,-0.25 v -4.19 l -4.79,-0.2 -0.96,-9.92 -2.02,0.03 -1.09,-0.98 -1.19,0.06 -1.58,3.06 h -6.08 l -1.41,-1.42 0.42,-2.01 -1.66,-2.43 -10.73,0.17 0,0 z"
     style="fill:#c7c3c3;fill-opacity:1;stroke:none"
     inkscape:connector-curvature="0" /><path
     id="malawi"
     d="m 491.82,376.54 3.11,3.25 -0.06,4.16 0.6,1.75 4.13,-4.46 -0.48,-5.67 -2.21,-1.69 -1.97,-9.95 -3.41,-0.12 1.55,7.17 -1.26,5.56 0,0 z"
     style="fill:#c7c3c3;fill-opacity:1;stroke:none"
     inkscape:connector-curvature="0" /><path
     id="mozambique"
     d="m 485.83,410.42 2.69,2.23 6.34,-3.86 1.02,-5.73 v -9.46 l 10.17,-8.32 1.74,0.06 6.16,-5.91 -0.96,-12.18 -16.33,2.06 0.48,3.68 2.81,2.17 0.66,6.63 -5.5,5.37 -1.32,-3.01 0.24,-3.98 -3.17,-3.44 -7.78,3.62 7.24,3.68 0.24,10.73 -4.79,7.11 0.06,8.55 0,0 z"
     style="fill:#c7c3c3;fill-opacity:1;stroke:none"
     inkscape:connector-curvature="0" /><path
     id="zimbabwe"
     d="m 469.32,389.44 8.97,10.13 6.88,1.75 4.61,-7.23 -0.36,-9.58 -7.48,-3.86 -2.81,1.27 -4.19,6.39 -5.8,-0.06 0.18,1.19 0,0 z"
     style="fill:#c7c3c3;fill-opacity:1;stroke:none"
     inkscape:connector-curvature="0" /><path
     id="namibia"
     d="m 441.21,419.1 3.35,0.24 1.97,1.99 4.67,0.06 1.14,-13.26 v -8.68 l 2.99,-0.6 1.14,-9.1 7.6,-0.24 2.69,-2.23 -4.55,-0.18 -6.16,0.84 -6.64,-2.41 h -18.66 l 0.48,5.3 6.22,9.16 -1.08,4.7 0.06,2.47 4.78,11.94 0,0 z"
     style="fill:#c7c3c3;fill-opacity:1;stroke:none"
     inkscape:connector-curvature="0" /><path
     id="botswana"
     d="m 453.17,408.37 2.15,0.66 -0.3,6.15 2.21,0.3 5.08,-4.58 6.1,0.66 1.62,-4.1 7.72,-7.05 -9.27,-10.67 -0.12,-1.75 -1.02,-0.3 -2.81,2.59 -7.3,0.18 -1.02,9.1 -2.87,0.66 -0.17,8.15 0,0 z"
     style="fill:#c7c3c3;fill-opacity:1;stroke:none"
     inkscape:connector-curvature="0" /><path
     id="swaziland"
     d="m 485.53,411.14 -2.51,0.42 -1.08,2.95 1.92,1.75 h 2.33 l 1.97,-2.83 -2.63,-2.29 0,0 z"
     style="fill:#c7c3c3;fill-opacity:1;stroke:none"
     inkscape:connector-curvature="0" /><path
     id="lesotho"
     d="m 472.07,422.53 3.05,-2.35 1.44,0.06 1.74,2.17 -0.18,2.17 -2.93,1.08 v 0.84 l -3.23,-0.18 -0.78,-2.35 0.89,-1.44 0,0 z"
     style="fill:#c7c3c3;fill-opacity:1;stroke:none"
     inkscape:connector-curvature="0" /><path
     id="south africa"
     d="m 478.82,400.77 -7.9,7.3 -1.88,4.51 -6.26,-0.78 -5.21,4.63 -3.46,-0.34 0.28,-6.4 -1.23,-0.43 -0.86,13.09 -6.14,-0.06 -1.85,-2.18 -2.71,-0.03 2.47,7.09 4.41,4.17 -3.15,3.67 2.04,4.6 4.72,1.8 3.76,-3.2 10.77,0.06 0.77,-0.96 4.78,-0.84 16.17,-16.1 -0.06,-5.07 -1.73,2.24 h -2.59 l -3.15,-2.64 1.6,-3.98 2.75,-0.56 -0.25,-8.18 -6.09,-1.41 0,0 z m -3.79,18.5 1.51,-0.06 2.45,2.66 -0.07,3.08 -2.87,1.45 -0.18,1.02 -4.38,0.05 -1.37,-3.3 1.25,-2.42 3.66,-2.48 0,0 z"
     style="fill:#c7c3c3;fill-opacity:1;stroke:none"
     inkscape:connector-curvature="0" /><path
     id="greenland"
     d="m 265.79,47.21 -1.36,2.17 2.45,2.45 -1.09,2.45 3.54,4.62 4.35,-1.36 5.71,-0.54 6.53,7.07 4.35,11.69 -3.53,7.34 4.89,-0.82 2.72,1.63 0.27,3.54 -5.98,0.27 3.26,3.26 4.08,0.82 -8.97,11.96 -1.09,7.34 1.9,5.98 -1.36,3.54 2.45,7.61 4.62,5.17 1.36,-0.27 2.99,-0.82 0.27,4.35 1.9,2.72 3.53,-0.27 2.72,-10.06 8.16,-10.06 12.24,-4.89 7.61,-9.52 3.53,1.63 h 7.34 l 5.98,-5.98 7.34,-2.99 0.82,-4.62 -4.62,-4.08 -4.08,-1.36 -2.18,-5.71 5.17,-2.99 8.16,4.35 2.72,-2.99 -4.35,-2.45 9.25,-12.51 -1.63,-5.44 -4.35,-0.27 1.63,-4.89 5.44,-2.45 11.15,-9.79 -3.26,-3.53 -12.51,1.09 -6.53,6.53 3.81,-8.43 -4.35,-1.09 -2.45,4.35 -3.53,-2.99 -9.79,1.09 2.72,-4.35 16.04,-0.54 -4.08,-5.44 -17.4,-3.26 -7.07,1.09 0.27,3.54 -7.34,-2.45 0.27,-2.45 -5.17,1.09 -1.09,2.72 5.44,1.9 -5.71,4.08 -4.08,-4.62 -5.71,-1.63 -0.82,4.35 h -5.71 l -2.18,-4.62 -8.97,-1.36 -4.89,2.45 -0.27,3.26 -6.25,-0.82 -3.81,1.63 0.27,3.81 v 1.9 l -7.07,1.36 -3.26,-2.17 -2.18,3.53 3.26,3.54 6.8,-0.82 0.54,2.18 -5.17,2.45 -4.61,-2.2 0,0 z"
     style="fill:#c7c3c3;fill-opacity:1;stroke:none"
     inkscape:connector-curvature="0" /><path
     id="disko"
     d="m 287.55,89.63 1.63,2.45 -0.82,2.99 h -1.63 l -2.18,-2.45 0.54,-1.9 2.46,-1.09 0,0 z"
     style="fill:#c7c3c3;fill-opacity:1;stroke:none"
     inkscape:connector-curvature="0" /><path
     id="milne"
     d="m 355.53,82.83 4.62,1.36 -0.27,3.81 -4.89,-2.45 -1.09,-1.36 1.63,-1.36 0,0 z"
     style="fill:#c7c3c3;fill-opacity:1;stroke:none"
     inkscape:connector-curvature="0" /><path
     id="australia"
     d="m 705.83,425.12 -0.35,25.38 -3.9,2.86 -0.35,2.5 5.32,3.57 13.13,-2.5 h 6.74 l 2.48,-3.58 14.9,-2.86 10.64,3.22 -0.71,4.29 1.42,4.29 8.16,-1.43 0.35,2.14 -5.32,3.93 1.77,1.43 3.9,-1.43 -1.06,11.8 7.45,5.72 4.26,-1.43 2.13,2.14 12.42,-1.79 11.71,-18.95 4.26,-1.07 8.51,-15.73 2.13,-13.58 -5.32,-6.79 2.13,-1.43 -4.26,-13.23 -4.61,-3.22 0.71,-17.87 -4.26,-3.22 -1.06,-10.01 h -2.13 l -7.1,23.59 -3.9,0.36 -8.87,-8.94 4.97,-13.23 -9.22,-1.79 -10.29,2.86 -2.84,8.22 -4.61,1.07 -0.35,-5.72 -18.8,11.44 0.35,4.29 -2.84,3.93 h -7.1 l -15.26,6.43 -5.33,14.34 0,0 z"
     style="fill:#c7c3c3;fill-opacity:1;stroke:none"
     inkscape:connector-curvature="0" /><path
     id="tasmania"
     d="m 770.4,493.4 -1.77,7.15 0.35,5 5.32,-0.36 6.03,-9.29 -9.93,-2.5 0,0 z"
     style="fill:#c7c3c3;fill-opacity:1;stroke:none"
     inkscape:connector-curvature="0" /><path
     id="sumatra"
     d="m 667.14,314.71 -0.28,2.28 6.79,11.41 h 1.98 l 14.15,23.67 5.66,0.57 2.83,-8.27 -4.53,-2.85 -0.85,-4.56 -25.75,-22.25 0,0 z"
     style="fill:#c7c3c3;fill-opacity:1;stroke:none"
     inkscape:connector-curvature="0" /><path
     id="east malaysia"
     d="m 708.8,330.06 3.02,3.49 11.58,-4.01 2.29,-8.84 5.16,-0.37 4.72,-3.42 -6.12,-4.46 -1.4,-2.45 -3.02,5.57 1.11,3.2 -1.84,2.67 -3.47,-0.89 -8.41,6.17 0.22,3.57 -3.84,-0.23 0,0 z"
     style="fill:#c7c3c3;fill-opacity:1;stroke:none"
     inkscape:connector-curvature="0" /><path
     id="brunei"
     d="m 724.43,316.39 -2.88,3.49 2.36,0.74 1.33,-1.86 -0.81,-2.37 0,0 z"
     style="fill:#c7c3c3;fill-opacity:1;stroke:none"
     inkscape:connector-curvature="0" /><path
     id="sulawesi"
     d="m 734.19,346.25 2.26,2.77 -1.47,4.16 v 0.79 h 3.34 l 1.18,-10.4 1.08,0.3 1.96,9.5 1.87,0.5 1.77,-4.06 -1.77,-6.14 -1.47,-2.67 4.62,-3.37 -1.08,-1.49 -4.42,2.87 h -1.18 l -2.16,-3.17 0.69,-1.39 3.64,-1.78 5.5,1.68 1.67,-0.1 4.13,-3.86 -1.67,-1.68 -3.83,2.97 h -2.46 l -3.73,-1.78 -2.65,0.1 -2.95,4.75 -1.87,8.22 -1,3.28 0,0 z"
     style="fill:#c7c3c3;fill-opacity:1;stroke:none"
     inkscape:connector-curvature="0" /><path
     id="maluku"
     d="m 758.85,327.64 -1.87,4.55 2.95,3.86 h 0.98 l 1.28,-2.57 0.69,-0.89 -1.28,-1.39 -1.87,-0.69 -0.88,-2.87 0,0 z"
     style="fill:#c7c3c3;fill-opacity:1;stroke:none"
     inkscape:connector-curvature="0" /><path
     id="seram"
     d="m 764.65,342.59 -4.03,0.89 -1.18,1.29 0.98,1.68 2.65,-0.99 1.67,-0.99 2.46,1.98 1.08,-0.89 -1.96,-2.38 -1.67,-0.59 0,0 z"
     style="fill:#c7c3c3;fill-opacity:1;stroke:none"
     inkscape:connector-curvature="0" /><path
     id="java"
     d="m 697.83,355.46 -2.75,1.88 0.59,1.58 8.75,1.98 4.42,0.79 1.87,1.98 5.01,0.4 2.36,1.98 2.16,-0.5 1.97,-1.78 -3.64,-1.68 -3.14,-2.67 -8.16,-1.98 -9.44,-1.98 0,0 z"
     style="fill:#c7c3c3;fill-opacity:1;stroke:none"
     inkscape:connector-curvature="0" /><path
     id="bali"
     d="m 726.43,364.07 -2.16,1.19 1.28,1.39 3.14,-1.19 -2.26,-1.39 0,0 z"
     style="fill:#c7c3c3;fill-opacity:1;stroke:none"
     inkscape:connector-curvature="0" /><path
     id="lombok"
     d="m 730.16,363.18 0.39,1.88 2.26,0.59 0.88,-1.09 -0.98,-1.49 -2.55,0.11 0,0 z"
     style="fill:#c7c3c3;fill-opacity:1;stroke:none"
     inkscape:connector-curvature="0" /><path
     id="sumba"
     d="m 735.57,368.13 -2.75,0.4 2.46,2.08 h 1.96 l -1.67,-2.48 0,0 z"
     style="fill:#c7c3c3;fill-opacity:1;stroke:none"
     inkscape:connector-curvature="0" /><path
     id="flores"
     d="m 736.35,364.86 -0.59,1.19 4.42,0.69 3.44,-1.98 -1.96,-0.59 -3.14,0.89 -1.18,-0.99 -0.99,0.79 0,0 z"
     style="fill:#c7c3c3;fill-opacity:1;stroke:none"
     inkscape:connector-curvature="0" /><path
     id="timor"
     d="m 750.8,365.56 -5.11,4.26 0.49,1.09 2.16,-0.4 2.55,-2.38 5.01,-0.69 -0.98,-1.68 -4.12,-0.2 0,0 z"
     style="fill:#c7c3c3;fill-opacity:1;stroke:none"
     inkscape:connector-curvature="0" /><path
     id="palawan"
     d="m 734.03,294.67 -0.86,1.64 -0.48,2.02 -4.78,6.07 0.29,1.25 2.01,-0.29 6.21,-6.94 -2.39,-3.75 0,0 z"
     style="fill:#c7c3c3;fill-opacity:1;stroke:none"
     inkscape:connector-curvature="0" /><path
     id="negros"
     d="m 741.77,292.36 -0.1,5.01 1.82,1.83 0.67,3.56 1.82,0.39 0.86,-2.22 -1.43,-1.06 -0.38,-6.26 -3.26,-1.25 0,0 z"
     style="fill:#c7c3c3;fill-opacity:1;stroke:none"
     inkscape:connector-curvature="0" /><path
     id="cebu"
     d="m 746.94,294.29 -0.1,4.43 1.05,1.73 1.82,-2.12 -0.48,-3.85 -2.29,-0.19 0,0 z"
     style="fill:#c7c3c3;fill-opacity:1;stroke:none"
     inkscape:connector-curvature="0" /><path
     id="samar"
     d="m 748.08,290.43 1.82,2.41 0.86,2.31 h 1.63 l -0.29,-3.95 -1.82,-1.25 -2.2,0.48 0,0 z"
     style="fill:#c7c3c3;fill-opacity:1;stroke:none"
     inkscape:connector-curvature="0" /><path
     id="path7462"
     d="m 751.62,299.49 0.38,2.89 -3.35,2.7 -2.77,0.29 -2.96,3.18 0.1,1.45 2.77,-0.87 1.91,-1.25 1.63,4.14 2.87,2.02 1.15,-0.39 1.05,-1.25 -2.29,-2.31 1.34,-1.06 1.53,1.25 1.05,-1.73 -1.05,-2.12 -0.19,-4.72 -3.17,-2.22 0,0 z"
     style="fill:#c7c3c3;fill-opacity:1;stroke:none"
     inkscape:connector-curvature="0" /><path
     id="luzon"
     d="m 736.04,270.11 -2.58,1.83 -0.29,5.78 4.02,7.8 1.34,1.06 1.72,-1.16 2.96,0.48 0.57,2.6 2.2,0.19 1.05,-1.44 -1.34,-1.83 -1.63,-1.54 -3.44,-0.38 -1.82,-2.99 2.1,-3.18 0.19,-2.79 -1.43,-3.56 -3.62,-0.87 0,0 z"
     style="fill:#c7c3c3;fill-opacity:1;stroke:none"
     inkscape:connector-curvature="0" /><path
     id="mindoro"
     d="m 737.38,287.35 0.76,2.7 1.34,0.87 0.96,-1.25 -1.53,-2.12 -1.53,-0.2 0,0 z"
     style="fill:#c7c3c3;fill-opacity:1;stroke:none"
     inkscape:connector-curvature="0" /><path
     id="hainan"
     d="m 704.49,267.31 -2.39,0.67 -1.72,2.12 1.43,2.79 2.1,0.19 2.39,-2.12 0.57,-2.79 -2.38,-0.86 0,0 z"
     style="fill:#c7c3c3;fill-opacity:1;stroke:none"
     inkscape:connector-curvature="0" /><path
     id="taiwan"
     d="m 732.12,245.45 -3.54,2.7 -0.19,5.2 3.06,3.56 0.76,-0.67 -0.09,-10.79 0,0 z"
     style="fill:#c7c3c3;fill-opacity:1;stroke:none"
     inkscape:connector-curvature="0" /><path
     id="kyushu"
     d="m 747.89,213.56 -1.63,1.64 0.67,2.31 1.43,0.1 0.96,5.01 1.15,1.25 2.01,-1.83 0.86,-3.28 -2.49,-3.56 -2.96,-1.64 0,0 z"
     style="fill:#c7c3c3;fill-opacity:1;stroke:none"
     inkscape:connector-curvature="0" /><path
     id="shikoku"
     d="m 756.69,210.29 -2.77,2.6 -0.1,2.99 0.67,0.87 3.73,-3.18 -0.29,-3.18 -1.24,-0.1 0,0 z"
     style="fill:#c7c3c3;fill-opacity:1;stroke:none"
     inkscape:connector-curvature="0" /><path
     id="honshu"
     d="m 752.86,204.12 -4.88,5.59 0.86,1.35 2.39,0.29 4.49,-3.47 3.16,-0.58 2.87,3.37 2.2,-0.77 0.86,-3.28 4.11,-0.1 4.02,-4.82 -2.1,-8 -0.96,-4.24 2.1,-1.73 -4.78,-7.22 -1.24,0.1 -2.58,2.89 v 2.41 l 1.15,1.35 0.38,6.36 -2.96,3.66 -1.72,-1.06 -1.34,2.99 -0.29,2.79 1.05,1.64 -0.67,1.25 -2.2,-1.83 h -1.53 l -1.34,0.77 -1.05,0.29 0,0 z"
     style="fill:#c7c3c3;fill-opacity:1;stroke:none"
     inkscape:connector-curvature="0" /><path
     id="hokkaido"
     d="m 761.09,160.58 -1.53,1.35 0.77,2.89 1.34,1.35 -0.1,4.43 -1.72,0.67 -1.34,2.99 3.92,5.39 2.58,-0.87 0.48,-1.35 -2.77,-2.5 1.72,-2.22 1.82,0.29 1.43,1.54 0.1,-3.18 3.92,-3.18 2.2,-0.58 -1.82,-3.08 -0.86,-1.35 -1.43,0.96 -1.24,1.54 -2.68,-0.58 -2.77,-1.83 -2.02,-2.68 0,0 z"
     style="fill:#c7c3c3;fill-opacity:1;stroke:none"
     inkscape:connector-curvature="0" /><path
     id="iturup"
     d="m 775.52,157.59 -2.68,3.76 0.19,1.83 1.34,-0.58 3.15,-3.95 -2,-1.06 0,0 z"
     style="fill:#c7c3c3;fill-opacity:1;stroke:none"
     inkscape:connector-curvature="0" /><path
     id="urup"
     d="m 779.06,152.1 -0.96,2.6 0.1,1.73 1.63,-1.06 1.53,-3.08 v -1.15 l -2.3,0.96 0,0 z"
     style="fill:#c7c3c3;fill-opacity:1;stroke:none"
     inkscape:connector-curvature="0" /><path
     id="paramushir"
     d="m 784.7,129.17 -1.24,1.54 0.1,2.41 1.15,-0.1 1.91,-3.37 -1.92,-0.48 0,0 z"
     style="fill:#c7c3c3;fill-opacity:1;stroke:none"
     inkscape:connector-curvature="0" /><path
     id="onekotan"
     d="m 782.41,135.05 v 4.24 l 1.34,0.48 0.96,-1.54 v -3.27 l -2.3,0.09 0,0 z"
     style="fill:#c7c3c3;fill-opacity:1;stroke:none"
     inkscape:connector-curvature="0" /><path
     id="sakhalin"
     d="m 743.3,119.73 -0.09,6.17 7.74,11.95 2.77,10.4 4.88,9.25 1.91,0.67 1.63,-1.35 0.76,-2.22 -6.98,-7.61 0.19,-3.95 1.53,-0.67 0.38,-2.31 -13.67,-19.36 -1.05,-0.97 0,0 z"
     style="fill:#c7c3c3;fill-opacity:1;stroke:none"
     inkscape:connector-curvature="0" /><path
     id="kerguelen"
     d="m 567.42,496.76 -0.15,4.29 5.94,1.38 1.37,-3.53 -2.13,0.61 -2.74,0.61 -0.76,-3.22 -1.53,-0.14 0,0 z"
     style="fill:#c7c3c3;fill-opacity:1;stroke:none"
     inkscape:connector-curvature="0" /><path
     id="mauritius"
     d="m 557.67,396.13 -1.52,1.99 0.3,2.15 3.2,-2.61 -1.98,-1.53 0,0 z"
     style="fill:#c7c3c3;fill-opacity:1;stroke:none"
     inkscape:connector-curvature="0" /><path
     id="reunion"
     d="m 552.04,399.51 -2.28,0.15 -0.15,1.99 1.52,0.31 2.28,-1.07 -1.37,-1.38 0,0 z"
     style="fill:#c7c3c3;fill-opacity:1;stroke:none"
     inkscape:connector-curvature="0" /><path
     id="madagascar"
     d="m 536.96,370.06 -2.13,5.06 -3.65,6.44 -6.39,0.46 -2.74,3.22 0.46,9.82 -3.96,4.6 0.46,7.82 3.35,3.83 3.96,-0.46 3.96,-2.92 -0.91,-4.6 9.13,-15.8 -1.83,-1.99 1.83,-3.83 1.98,0.61 0.61,-1.53 -1.83,-7.82 -1.07,-3.22 -1.23,0.31 0,0 z"
     style="fill:#c7c3c3;fill-opacity:1;stroke:none"
     inkscape:connector-curvature="0" /><path
     id="grande comore"
     d="m 522.35,368.37 0.46,1.53 1.98,0.31 0.76,-1.99 -3.2,0.15 0,0 z"
     style="fill:#c7c3c3;fill-opacity:1;stroke:none"
     inkscape:connector-curvature="0" /><path
     id="mayotte"
     d="m 525.24,371.44 0.76,1.69 h 1.22 l 0.61,-2.15 -2.59,0.46 0,0 z"
     style="fill:#c7c3c3;fill-opacity:1;stroke:none"
     inkscape:connector-curvature="0" /><path
     id="aldabra"
     d="m 547.01,355.48 -0.61,1.23 1.67,1.38 1.22,-1.38 -2.28,-1.23 0,0 z"
     style="fill:#c7c3c3;fill-opacity:1;stroke:none"
     inkscape:connector-curvature="0" /><path
     id="praslin"
     d="m 555.54,346.28 -1.83,1.23 1.37,2.15 h 1.83 l -1.37,-3.38 0,0 z"
     style="fill:#c7c3c3;fill-opacity:1;stroke:none"
     inkscape:connector-curvature="0" /><path
     id="mahe"
     d="m 556.3,351.65 -1.22,1.38 0.91,1.38 1.67,0.31 0.15,-2.92 -1.51,-0.15 0,0 z"
     style="fill:#c7c3c3;fill-opacity:1;stroke:none"
     inkscape:connector-curvature="0" /><path
     id="male"
     d="m 601.06,317.9 0.3,2.61 1.67,0.61 0.3,-2.3 -2.27,-0.92 0,0 z"
     style="fill:#c7c3c3;fill-opacity:1;stroke:none"
     inkscape:connector-curvature="0" /><path
     id="maldive"
     d="m 603.19,323.42 -0.15,3.22 1.22,0.61 1.07,-2.15 -2.14,-1.68 0,0 z"
     style="fill:#c7c3c3;fill-opacity:1;stroke:none"
     inkscape:connector-curvature="0" /><path
     id="gan"
     d="m 603.5,329.71 -1.07,1.07 1.22,1.07 1.52,-1.07 -1.67,-1.07 0,0 z"
     style="fill:#c7c3c3;fill-opacity:1;stroke:none"
     inkscape:connector-curvature="0" /><path
     id="path5047"
     d="m 317.3,214.16 -1.36,1.37 2.44,1.37 0.27,-1.91 -1.35,-0.83 0,0 z"
     style="fill:#c7c3c3;fill-opacity:1;stroke:none"
     inkscape:connector-curvature="0" /><path
     id="terceira"
     d="m 324.63,213.34 -1.63,1.09 1.36,1.09 2.17,-0.55 -1.9,-1.63 0,0 z"
     style="fill:#c7c3c3;fill-opacity:1;stroke:none"
     inkscape:connector-curvature="0" /><path
     id="pico"
     d="m 325.71,217.17 -0.81,2.19 1.08,1.37 1.36,-1.09 -1.63,-2.47 0,0 z"
     style="fill:#c7c3c3;fill-opacity:1;stroke:none"
     inkscape:connector-curvature="0" /><path
     id="sao miguel"
     d="m 332.22,221.54 -0.54,1.37 0.81,0.82 2.17,-1.37 -2.44,-0.82 0,0 z"
     style="fill:#c7c3c3;fill-opacity:1;stroke:none"
     inkscape:connector-curvature="0" /><path
     id="madeira"
     d="m 352.84,233.56 -1.08,1.37 1.08,1.37 1.63,-0.82 -1.63,-1.92 0,0 z"
     style="fill:#c7c3c3;fill-opacity:1;stroke:none"
     inkscape:connector-curvature="0" /><path
     id="lanzarote"
     d="m 360.28,250.87 -1.75,1.01 0.81,0.82 0.94,-1.83 0,0 z"
     style="fill:#c7c3c3;fill-opacity:1;stroke:none"
     inkscape:connector-curvature="0" /><path
     id="gran canaria"
     d="m 354.2,251.06 -2.17,0.55 1.08,1.64 h 1.63 l -0.54,-2.19 0,0 z"
     style="fill:#c7c3c3;fill-opacity:1;stroke:none"
     inkscape:connector-curvature="0" /><path
     id="tenerife"
     d="m 349.04,249.42 -1.36,1.37 1.9,1.64 1.08,-2.46 -1.62,-0.55 0,0 z"
     style="fill:#c7c3c3;fill-opacity:1;stroke:none"
     inkscape:connector-curvature="0" /><path
     id="santo antao"
     d="m 332.22,287.68 -1.9,1.09 1.36,1.09 1.63,-0.82 -1.09,-1.36 0,0 z"
     style="fill:#c7c3c3;fill-opacity:1;stroke:none"
     inkscape:connector-curvature="0" /><path
     id="boa vista"
     d="m 336.89,289.88 -1.24,1.1 0.88,1.63 2.12,-0.95 -1.76,-1.78 0,0 z"
     style="fill:#c7c3c3;fill-opacity:1;stroke:none"
     inkscape:connector-curvature="0" /><path
     id="santiago"
     d="m 334.18,292.97 -1.59,0.95 1.71,2.29 1.35,-0.71 -1.47,-2.53 0,0 z"
     style="fill:#c7c3c3;fill-opacity:1;stroke:none"
     inkscape:connector-curvature="0" /><path
     id="guadeloupe"
     d="m 221.26,280.51 -1.5,0.62 0.53,1.33 1.76,-1.15 -0.35,-0.36 -0.44,-0.44 0,0 z"
     style="fill:#c7c3c3;fill-opacity:1;stroke:none"
     inkscape:connector-curvature="0" /><path
     id="dominica"
     d="m 223.73,282.02 -0.88,1.87 1.06,1.42 1.32,-1.15 -1.5,-2.14 0,0 z"
     style="fill:#c7c3c3;fill-opacity:1;stroke:none"
     inkscape:connector-curvature="0" /><path
     id="martinique"
     d="m 226.73,287.17 -1.06,0.98 0.79,1.6 1.5,-0.44 -1.23,-2.14 0,0 z"
     style="fill:#c7c3c3;fill-opacity:1;stroke:none"
     inkscape:connector-curvature="0" /><path
     id="st. lucia"
     d="m 226.64,291.17 -0.71,1.51 1.15,1.24 1.5,-0.8 -1.94,-1.95 0,0 z"
     style="fill:#c7c3c3;fill-opacity:1;stroke:none"
     inkscape:connector-curvature="0" /><path
     id="st. vincent"
     d="m 226.73,294.99 -1.23,0.89 0.97,1.78 1.59,-0.89 -1.33,-1.78 0,0 z"
     style="fill:#c7c3c3;fill-opacity:1;stroke:none"
     inkscape:connector-curvature="0" /><path
     id="grenada"
     d="m 225.23,298.45 -1.15,1.15 0.44,0.71 h 1.41 l 0.44,-1.16 -1.14,-0.7 0,0 z"
     style="fill:#c7c3c3;fill-opacity:1;stroke:none"
     inkscape:connector-curvature="0" /><path
     id="trinidad"
     d="m 226.9,301.92 -1.06,0.98 -1.15,0.18 v 1.42 l 2.12,1.95 0.88,-1.42 0.53,-1.6 -0.18,-1.33 -1.14,-0.18 0,0 z"
     style="fill:#c7c3c3;fill-opacity:1;stroke:none"
     inkscape:connector-curvature="0" /><path
     id="puerto rico"
     d="m 215.71,278.2 -2.64,-0.89 -2.12,1.33 1.06,1.24 3.61,0.53 0.09,-2.21 0,0 z"
     style="fill:#c7c3c3;fill-opacity:1;stroke:none"
     inkscape:connector-curvature="0" /><path
     id="haiti-dominican border"
     d="m 195.53,272.52 -1.67,1.71 1.91,0.78 0.28,2.39 -4.23,0.37 0.43,2.3 1.23,0.09 0.71,-1.06 4.94,0.16 0.89,1.71 1.14,-1.34 3.33,-0.9 2.93,0.62 0.34,-1.77 -5.28,-3.45 -3.42,-1.28 -3.53,-0.33 0,0 z"
     style="fill:#c7c3c3;fill-opacity:1;stroke:none"
     inkscape:connector-curvature="0" /><path
     id="domincan republic"
     d="m 207.77,277.58 -5.29,-3.46 -2.5,-0.85 -0.84,6 0.88,1.69 1.15,-1.33 3.35,-0.89 2.91,0.62 0.34,-1.78 0,0 z"
     style="fill:#c7c3c3;fill-opacity:1;stroke:none"
     inkscape:connector-curvature="0" /><path
     id="haiti"
     d="m 195.52,272.52 3.44,0.36 -0.41,4.22 -0.34,2.22 -4.01,-0.22 -0.71,1.07 -1.23,-0.09 -0.44,-2.31 4.23,-0.35 -0.26,-2.4 -1.94,-0.8 1.67,-1.7 0,0 z"
     style="fill:#c7c3c3;fill-opacity:1;stroke:none"
     inkscape:connector-curvature="0" /><path
     id="falklands west"
     d="m 252.61,505.32 -2.63,-0.29 -2.62,1.76 1.9,2.06 3.35,-3.53 0,0 z"
     style="fill:#c7c3c3;fill-opacity:1;stroke:none"
     inkscape:connector-curvature="0" /><path
     id="falklands east"
     d="m 255.23,504 -0.87,2.79 -2.48,2.2 0.15,0.73 4.23,-1.62 1.75,-2.2 -2.78,-1.9 0,0 z"
     style="fill:#c7c3c3;fill-opacity:1;stroke:none"
     inkscape:connector-curvature="0" /><path
     id="iceland"
     d="m 351.02,114.45 -1.96,-1.11 -2.64,1.67 -2.27,2.1 0.06,1.17 2.94,0.37 -0.18,2.1 -1.04,1.05 0.25,0.68 2.94,0.19 v 3.4 l 4.23,0.74 2.51,1.42 2.82,0.12 4.84,-2.41 3.74,-4.94 0.06,-3.34 -2.27,-1.92 -1.9,-1.61 -0.86,0.62 -1.29,1.67 -1.47,-0.19 -1.47,-1.61 -1.9,0.18 -2.76,2.29 -1.66,1.79 -0.92,-0.8 -0.06,-1.98 0.92,-0.62 -0.66,-1.03 0,0 z"
     style="fill:#c7c3c3;fill-opacity:1;stroke:none"
     inkscape:connector-curvature="0" /><path
     id="spitsbergen"
     d="m 432.92,51.1 -1.65,-1.66 -3.66,1.78 h -6.72 l -1.06,3.92 3.77,3.33 1.65,-0.24 2.36,-4.04 2,1.43 -1.42,2.85 -0.71,4.16 1.65,2.61 3.54,-5.94 4.6,-5.59 -1.77,-1.54 -2.58,-1.07 0,0 z"
     style="fill:#c7c3c3;fill-opacity:1;stroke:none"
     inkscape:connector-curvature="0" /><path
     id="nordaustlandet"
     d="m 434.92,43.97 -2.95,2.73 1.77,2.73 h 3.18 l 1.3,1.78 3.89,2.02 4.48,-2.61 3.07,-2.61 -1.06,-2.14 -3.07,-1.78 -2.24,2.02 -1.53,-1.9 -1.18,0.12 -1.53,3.33 -2.24,-2.26 -0.24,-1.54 -1.65,0.11 0,0 z"
     style="fill:#c7c3c3;fill-opacity:1;stroke:none"
     inkscape:connector-curvature="0" /><path
     id="edgeoya"
     d="m 441.64,56.21 -2.36,2.14 -2,1.54 0.94,1.66 1.89,0.59 3.07,-1.43 1.42,-1.78 -1.3,-2.14 -1.66,-0.58 0,0 z"
     style="fill:#c7c3c3;fill-opacity:1;stroke:none"
     inkscape:connector-curvature="0" /><path
     id="prince george"
     d="m 492.48,35.93 1.72,0.69 -1.21,2.08 v 2.95 l -2.58,1.56 h -2.75 l -1.55,-1.91 0.17,-2.08 1.21,-1.56 h 2.41 l 2.58,-1.73 0,0 z"
     style="fill:#c7c3c3;fill-opacity:1;stroke:none"
     inkscape:connector-curvature="0" /><path
     id="salisbury"
     d="m 499.02,34.02 v 2.08 l 1.72,1.39 2.41,-0.17 2.07,-1.91 v -1.39 h -1.89 l -1.55,0.52 -1.21,-1.39 -1.55,0.87 0,0 z"
     style="fill:#c7c3c3;fill-opacity:1;stroke:none"
     inkscape:connector-curvature="0" /><path
     id="wilczek"
     d="m 508.84,34.2 1.21,2.6 2.41,0.17 1.72,-0.69 -0.86,-2.43 -2.24,-0.52 -2.24,0.87 0,0 z"
     style="fill:#c7c3c3;fill-opacity:1;stroke:none"
     inkscape:connector-curvature="0" /><path
     id="bell"
     d="m 518.65,30.73 -1.89,-0.35 -1.72,1.74 0.86,1.56 0.52,2.43 2.24,-1.73 0.52,-1.91 -0.53,-1.74 0,0 z"
     style="fill:#c7c3c3;fill-opacity:1;stroke:none"
     inkscape:connector-curvature="0" /><path
     id="novaya zemlya north"
     d="m 529.15,49.12 -0.52,2.43 -3.96,3.47 -8.44,1.91 -6.89,11.45 -1.21,3.3 6.89,1.74 1.03,-4.16 2.07,-6.42 5.34,-2.78 4.48,-3.47 3.27,-1.39 h 1.72 v -4.68 l -3.78,-1.4 0,0 z"
     style="fill:#c7c3c3;fill-opacity:1;stroke:none"
     inkscape:connector-curvature="0" /><path
     id="novaya zemlya south"
     d="m 506.94,74.45 4.65,0.52 1.55,5.38 3.96,4.16 -1.38,2.78 h -2.41 l -2.24,-2.6 -4.99,-0.17 -2.07,-2.78 v -1.91 l 3.1,-0.87 -0.17,-4.51 0,0 z"
     style="fill:#c7c3c3;fill-opacity:1;stroke:none"
     inkscape:connector-curvature="0" /><path
     id="komsomolets"
     d="m 579.61,15.29 -2.24,-1.39 h -2.58 l -0.52,1.56 -2.75,1.56 -2.07,0.69 -0.34,2.08 4.82,0.35 5.68,-4.85 0,0 z"
     style="fill:#c7c3c3;fill-opacity:1;stroke:none"
     inkscape:connector-curvature="0" /><path
     id="october"
     d="m 584.94,15.81 -1.21,2.6 -2.41,-0.17 -3.79,2.78 -1.03,3.47 h 2.41 l 1.38,-2.26 3.27,2.43 3.1,-1.39 2.24,-1.91 -0.86,-2.95 -1.21,-2.08 -1.89,-0.52 0,0 z"
     style="fill:#c7c3c3;fill-opacity:1;stroke:none"
     inkscape:connector-curvature="0" /><path
     id="bolshevik"
     d="m 589.94,17.72 1.21,4.86 1.89,4.51 2.07,-3.64 3.96,-0.87 v -2.6 l -2.58,-1.91 -6.55,-0.35 0,0 z"
     style="fill:#c7c3c3;fill-opacity:1;stroke:none"
     inkscape:connector-curvature="0" /><path
     id="kotelny"
     d="m 684.42,9.94 2.69,2.26 1.91,-0.79 0.56,-3.17 -3.92,-2.71 -2.58,1.7 -6.28,0.57 v 2.83 l -6.62,0.11 v 4.63 l 7.74,5.76 2.02,-1.47 -0.45,-4.07 4.94,-1.24 -1.01,-1.92 -1.79,-1.81 2.79,-0.68 0,0 z"
     style="fill:#c7c3c3;fill-opacity:1;stroke:none"
     inkscape:connector-curvature="0" /><path
     id="novaya sibir"
     d="m 691.6,7.23 1.79,3.39 6.96,-0.79 1.91,-2.49 -0.45,-2.15 -1.91,-0.79 -1.79,1.36 -5.16,1.13 -1.35,0.34 0,0 z"
     style="fill:#c7c3c3;fill-opacity:1;stroke:none"
     inkscape:connector-curvature="0" /><path
     id="lyakhovsky"
     d="m 691.15,20.45 -3.48,-0.9 -2.01,2.15 -0.9,2.94 4.71,-0.45 3.59,-1.81 -1.91,-1.93 0,0 z"
     style="fill:#c7c3c3;fill-opacity:1;stroke:none"
     inkscape:connector-curvature="0" /><path
     id="wrangel"
     d="m 781.34,0.9 -2.92,-0.9 -3.36,1.24 -1.68,2.49 2.13,2.83 5.61,-2.49 1.12,-1.24 -0.9,-1.93 0,0 z"
     style="fill:#c7c3c3;fill-opacity:1;stroke:none"
     inkscape:connector-curvature="0" /><path
     id="sri lanka"
     d="m 625.2,305.19 0.25,2.72 0.25,1.98 -1.47,0.25 0.74,4.45 2.21,1.24 3.43,-1.98 -0.98,-4.69 0.25,-1.73 -3.19,-2.96 -1.49,0.72 0,0 z"
     style="fill:#c7c3c3;fill-opacity:1;stroke:none"
     inkscape:connector-curvature="0" /><path
     id="cuba"
     d="m 165.51,264.06 v 1.27 l 5.32,0.1 2.51,-1.46 0.39,1.07 5.22,1.27 4.64,4.19 -1.06,1.46 0.19,1.66 3.87,0.97 3.87,-1.75 1.74,-1.75 -2.51,-1.27 -12.95,-7.6 -4.54,-0.49 -6.69,2.33 0,0 z"
     style="fill:#c7c3c3;fill-opacity:1;stroke:none"
     inkscape:connector-curvature="0" /><path
     id="bimini"
     d="m 184.27,256.27 -1.26,-0.39 -0.1,2.43 1.55,1.56 1.06,-1.56 -1.25,-2.04 0,0 z"
     style="fill:#c7c3c3;fill-opacity:1;stroke:none"
     inkscape:connector-curvature="0" /><path
     id="andros"
     d="m 186.78,260.07 -1.74,0.97 1.64,2.34 0.87,-1.17 -0.77,-2.14 0,0 z"
     style="fill:#c7c3c3;fill-opacity:1;stroke:none"
     inkscape:connector-curvature="0" /><path
     id="inagua"
     d="m 192.39,261.82 -1.84,-0.1 0.19,1.17 1.35,1.95 1.16,-1.27 -0.86,-1.75 0,0 z"
     style="fill:#c7c3c3;fill-opacity:1;stroke:none"
     inkscape:connector-curvature="0" /><path
     id="eleuthera"
     d="m 191.52,259.49 -3,-1.27 -0.58,-3.02 1.16,-0.49 1.16,2.34 1.16,0.88 0.1,1.56 0,0 z"
     style="fill:#c7c3c3;fill-opacity:1;stroke:none"
     inkscape:connector-curvature="0" /><path
     id="grand bahama"
     d="m 188.62,253.35 -1.55,-0.39 -0.29,-1.95 -1.64,-0.58 1.06,-1.07 1.93,0.68 1.45,0.88 -0.96,2.43 0,0 z"
     style="fill:#c7c3c3;fill-opacity:1;stroke:none"
     inkscape:connector-curvature="0" /><path
     id="jamaica"
     d="m 183.59,276.73 -3.48,0.88 v 0.97 l 2.03,1.17 h 2.13 l 1.35,-1.56 -2.03,-1.46 0,0 z"
     style="fill:#c7c3c3;fill-opacity:1;stroke:none"
     inkscape:connector-curvature="0" /><path
     id="irian jaya"
     d="m 776.59,336.48 -4.17,0.47 -2.68,1.96 1.11,2.24 4.54,0.84 v 0.84 l -2.87,2.33 1.39,4.85 1.39,0.09 1.2,-4.76 h 2.22 l 0.93,4.66 10.83,8.96 0.28,7 3.7,4.01 1.67,-0.09 0.37,-24.72 -6.29,-4.38 -5.93,4.01 -2.13,1.31 -3.52,-2.24 -0.09,-7.09 -1.95,-0.29 0,0 z"
     style="fill:#c7c3c3;fill-opacity:1;stroke:none"
     inkscape:connector-curvature="0" /><path
     id="path5104"
     d="m 37.769998,42.03 -8.39,1.99 1.73,9.45 9.13,2.49 0.49,1.99 -13.57,4.23 -7.65,12.68 2.71,13.43 4.44,2.98 3.46,-3.23 0.99,1.99 -4.2,4.97 -16.29,7.46 L 0.24999761,104.95 -2.3885951e-6,108.68 23.939998,101.72 l 9.87,-2.74 9.13,-11.19 10.12,-6.71 -5.18,8.7 5.68,0.75 9.63,-4.23 1.73,6.96 6.66,1.49 6.91,6.71 0.49,4.97 -0.99,1.24 1.23,4.72 h 1.73 l 0.25,-7.96 h 1.97 l 0.49,19.64 4.94,-4.23 -3.46,-20.39 h -5.18 l -5.68,-7.21 L 102.17,44.99 74.529998,23.36 l -30.85,5.97 -1.23,9.45 6.66,3.98 -2.47,6.47 -8.87,-7.2 0,0 z"
     style="fill:#c7c3c3;fill-opacity:1;stroke:none"
     inkscape:connector-curvature="0" /><path
     id="galapagos"
     d="m 139.63,335.32 -0.62,2.75 -1.15,1.16 0.79,1.42 2.03,-0.8 0.97,-1.69 -0.62,-1.78 -1.4,-1.06 0,0 z"
     style="fill:#c7c3c3;fill-opacity:1;stroke:none"
     inkscape:connector-curvature="0" /><path
     id="banks"
     d="m 148.39,33.03 0.22,4.02 -7.98,8.27 2,6.7 5.76,-1.56 3.33,-4.92 8.42,-3.13 6.87,-0.45 -5.32,-5.81 -2.66,2.01 -2,-0.67 -1.11,-2.46 -2.44,-2.46 -5.09,0.46 0,0 z"
     style="fill:#c7c3c3;fill-opacity:1;stroke:none"
     inkscape:connector-curvature="0" /><path
     id="prince patrick"
     d="m 158.81,21.19 -1.77,3.13 8.65,3.13 3.1,-4.69 1.33,3.13 h 2.22 l 4.21,-4.69 -5.1,-1.34 -2,-1.56 -2.66,2.68 -7.98,0.21 0,0 z"
     style="fill:#c7c3c3;fill-opacity:1;stroke:none"
     inkscape:connector-curvature="0" /><path
     id="eglinton"
     d="m 173.89,27.45 -6.87,2.9 v 2.23 l 8.87,3.35 -2,2.23 1.33,2.9 5.54,-2.46 h 4.66 l 2.22,3.57 3.77,-3.8 -0.89,-3.58 -3.1,1.12 -0.44,-4.47 1.55,-2.68 h -1.55 l -2.44,1.56 -1.11,0.89 0.67,3.13 -1.77,1.34 -2.66,-0.22 -0.67,-4.02 -5.11,-3.99 0,0 z"
     style="fill:#c7c3c3;fill-opacity:1;stroke:none"
     inkscape:connector-curvature="0" /><path
     id="mackenzie king"
     d="m 182.98,20.52 -0.67,2.23 4.21,2.01 3.1,-1.79 -0.22,-1.34 -6.42,-1.11 0,0 z"
     style="fill:#c7c3c3;fill-opacity:1;stroke:none"
     inkscape:connector-curvature="0" /><path
     id="king christian"
     d="m 186.3,16.72 -3.1,1.12 0.22,1.56 6.87,-0.45 -0.22,-1.56 -3.77,-0.67 0,0 z"
     style="fill:#c7c3c3;fill-opacity:1;stroke:none"
     inkscape:connector-curvature="0" /><path
     id="ellef ringnes"
     d="m 201.16,20.52 -0.44,1.56 -1.11,1.56 v 2.23 l 4.21,-0.67 4.43,3.8 h 1.55 v -3.8 l -4.43,-4.92 -4.21,0.24 0,0 z"
     style="fill:#c7c3c3;fill-opacity:1;stroke:none"
     inkscape:connector-curvature="0" /><path
     id="amund ringnes"
     d="m 212.47,24.99 1.77,2.01 -1.55,2.68 1.11,2.9 4.88,-2.68 v -2.01 l -2.88,-3.35 -3.33,0.45 0,0 z"
     style="fill:#c7c3c3;fill-opacity:1;stroke:none"
     inkscape:connector-curvature="0" /><path
     id="axel heiberg"
     d="m 218.9,19.85 0.22,3.57 h 5.99 l 1.55,1.34 -0.22,1.56 -5.32,0.67 3.77,5.14 5.1,0.89 7.09,-3.13 -10.2,-15.42 -3.1,2.01 0.22,2.68 -3.55,-1.34 -1.55,2.03 0,0 z"
     style="fill:#c7c3c3;fill-opacity:1;stroke:none"
     inkscape:connector-curvature="0" /><path
     id="victoria"
     d="m 167.24,45.1 -8.42,2.23 -4.88,4.25 0.44,4.69 8.87,2.68 -2,4.47 -6.43,-4.02 -1.77,3.35 4.21,2.9 -0.22,4.69 6.43,1.79 7.76,-0.45 1.33,-2.46 5.76,6.48 3.99,-1.34 0.67,-4.47 2.88,2.01 0.44,-4.47 -3.55,-2.23 0.22,-14.07 -3.1,-2.46 -3.32,4.47 -9.31,-8.04 0,0 z"
     style="fill:#c7c3c3;fill-opacity:1;stroke:none"
     inkscape:connector-curvature="0" /><path
     id="prince of wales"
     d="m 194.29,54.93 -2.88,-1.34 -1.55,2.01 3.1,4.92 0.22,4.69 6.65,-4.02 v -5.81 l 2.44,-2.46 -2.44,-1.79 h -3.99 l -1.55,3.8 0,0 z"
     style="fill:#c7c3c3;fill-opacity:1;stroke:none"
     inkscape:connector-curvature="0" /><path
     id="prescott"
     d="m 208.48,52.92 -4.66,3.8 1.11,4.69 h 2.88 l 1.33,-2.46 2,2.01 2,-0.22 5.32,-4.47 -9.98,-3.35 0,0 z"
     style="fill:#c7c3c3;fill-opacity:1;stroke:none"
     inkscape:connector-curvature="0" /><path
     id="cornwallis"
     d="m 208.03,45.54 -1.11,2.23 4.88,1.79 1.33,-2.01 -5.1,-2.01 0,0 z"
     style="fill:#c7c3c3;fill-opacity:1;stroke:none"
     inkscape:connector-curvature="0" /><path
     id="bathurst"
     d="m 205.15,37.05 -4.88,0.67 -2.88,2.68 5.32,0.22 -1.55,4.02 1.11,1.79 1.55,-0.22 3.77,-6.03 -2.44,-3.13 0,0 z"
     style="fill:#c7c3c3;fill-opacity:1;stroke:none"
     inkscape:connector-curvature="0" /><path
     id="devon"
     d="m 213.58,35.49 -2.66,0.89 0.44,3.57 4.43,2.9 0.22,2.23 -1.33,1.34 0.67,4.47 17.07,5.58 4.66,1.56 4.66,-4.02 -5.54,-4.47 -5.1,1.34 -7.09,-0.67 -2.66,-2.68 -0.67,-7.37 -4.43,-2.23 -2.67,-2.44 0,0 z"
     style="fill:#c7c3c3;fill-opacity:1;stroke:none"
     inkscape:connector-curvature="0" /><path
     id="baffin"
     d="m 227.54,58.73 -4.88,-0.45 -5.76,2.23 -3.1,4.24 0.89,11.62 9.53,0.45 9.09,4.47 6.43,7.37 4.88,-0.22 -1.33,6.92 -4.43,7.37 -4.88,2.23 -3.55,-0.67 -1.77,-1.56 -2.66,3.57 1.11,3.57 3.77,0.22 4.66,-2.23 3.99,10.28 9.98,6.48 6.87,-8.71 -5.76,-9.38 3.33,-3.8 4.66,7.82 8.42,-7.37 -1.55,-3.35 -5.76,1.79 -3.99,-10.95 3.77,-6.25 -7.54,-8.04 -4.21,2.9 -3.99,-8.71 -8.42,1.12 -2.22,-10.5 -6.87,4.69 -0.67,5.81 h -3.77 l 0.44,-5.14 5.29,-7.82 0,0 z"
     style="fill:#c7c3c3;fill-opacity:1;stroke:none"
     inkscape:connector-curvature="0" /><path
     id="bylot"
     d="m 237.52,62.75 -1.77,1.79 1.55,2.46 7.32,0.89 -4.66,-4.92 -2.44,-0.22 0,0 z"
     style="fill:#c7c3c3;fill-opacity:1;stroke:none"
     inkscape:connector-curvature="0" /><path
     id="ellesmere"
     d="m 230.43,37.5 v 2.01 l -4.88,1.12 1.33,2.23 5.54,2.23 6.21,0.67 4.43,3.13 4.43,-2.46 -3.1,-3.13 h 3.99 l 2.44,-2.68 5.99,-0.89 v -1.34 l -3.33,-2.23 0.44,-2.46 9.31,1.56 13.75,-5.36 -5.1,-1.56 1.33,-1.79 h 10.64 l 1.77,-1.79 -21.51,-7.6 -5.1,-1.79 -5.54,4.02 -6.21,-5.14 -3.33,-0.22 -0.67,4.25 -4.21,-3.8 -4.88,1.56 0.89,2.46 7.32,1.56 -0.44,3.57 3.99,2.46 9.76,-2.46 0.22,3.35 -7.98,3.8 -4.88,-3.8 -4.43,0.45 4.43,6.26 -2.22,1.12 -3.33,-2.9 -2.44,1.56 2.22,4.24 h 3.77 l -0.89,4.02 -3.1,-0.45 -3.99,-4.25 -2.64,0.47 0,0 z"
     style="fill:#c7c3c3;fill-opacity:1;stroke:none"
     inkscape:connector-curvature="0" /><path
     id="southhampton"
     d="m 210.67,98.99 -4.23,5.32 -0.26,5.86 3.7,-2.13 h 4.49 l 3.17,2.93 2.91,-2.4 -9.78,-9.58 0,0 z"
     style="fill:#c7c3c3;fill-opacity:1;stroke:none"
     inkscape:connector-curvature="0" /><path
     id="newfoundland"
     d="m 262.18,168.19 -10.57,10.12 1.06,2.4 12.94,4.79 1.85,-3.19 -1.06,-5.32 -4.23,0.53 -2.38,-2.66 3.96,-3.99 -1.57,-2.68 0,0 z"
     style="fill:#c7c3c3;fill-opacity:1;stroke:none"
     inkscape:connector-curvature="0" /><path
     id="canada"
     d="m 102.88,45.8 1.99,3.01 1,4.02 4.98,1.25 3.49,-3.76 2.99,1.51 8.47,0.75 5.98,-2.51 1,8.28 h 3.49 v -3.51 l 3.49,0.25 8.72,10.29 5.73,3.51 -2.99,4.77 1.25,1.25 11.19,2.26 0.25,5.02 2.99,0.5 0.75,-7.53 4.73,-1.25 3.49,5.27 7.47,3.51 3.74,0.75 2.49,-3.01 0.25,-4.77 4.48,-2.76 1.49,4.02 -3.99,7.03 0.5,3.51 2.24,-3.51 4.48,-4.02 0.25,-5.27 -2.49,-4.02 0.75,-3.26 5.98,-3.01 2.74,2.01 0.5,17.57 4.23,-3.76 2.49,1.51 -3.49,6.02 4.48,1 6.48,-10.04 5.48,5.77 -2.24,10.29 -5.48,3.01 -5.23,-2.51 -9.46,2.01 1,3.26 -2.49,4.02 -7.72,1.76 -8.72,6.78 -7.72,10.29 -1,3.26 5.23,2.01 1.99,5.02 7.22,7.28 11.46,5.02 -2.49,11.54 -0.25,3.26 2.99,2.01 3.99,-5.27 0.5,-10.04 6.23,-0.25 2.99,-5.77 0.5,-8.78 7.97,-15.56 9.96,3.51 5.23,7.28 -2.24,7.28 3.99,2.26 9.71,-6.53 2.74,17.82 8.97,10.79 0.25,5.52 -9.96,2.51 -4.73,5.02 -9.96,-2.26 -4.98,-0.25 -8.72,6.78 5.23,-1.25 6.48,-1.25 1.25,1.51 -1.74,5.52 0.25,5.02 2.99,2.01 2.99,-0.75 1.5,-2.26 h 1.99 l -3.24,6.02 -6.23,0.25 -2.74,4.02 h -3.49 l -1,-3.01 4.98,-5.02 -5.98,2.01 -0.27,-8.53 -1.72,-1 -5.23,2.26 -0.5,4.27 h -11.96 l -10.21,7.03 -13.7,4.52 -1.49,-2.01 6.9,-10.3 -3.92,-3.77 -2.49,-4.78 -5.07,-3.87 -5.44,-0.45 -9.75,-6.83 -70.710002,-11.62 -1.17,-4.79 -6.48,-6.02 v -5.02 l 1,-4.52 -0.5,-2.51 -2.49,-2.51 -0.5,-4.02 6.48,-4.52 -3.99,-21.58 -5.48,-0.25 -4.98,-6.53 L 102.88,45.8 l 0,0 z"
     style="fill:#c7c3c3;fill-opacity:1;stroke:none"
     inkscape:connector-curvature="0" /><path
     id="usa"
     d="m 93.419998,155.48 -1,4.02 -3.49,-2.26 h -1.74 l -1,4.27 -12.21,27.36 3.24,23.84 3.99,2.01 0.75,6.53 h 8.22 l 7.97,6.02 15.690002,1.51 1.74,8.03 2.49,1.76 3.49,-3.51 2.74,1.25 2.49,11.54 4.23,2.76 3.49,-6.53 10.71,-7.78 6.97,3.26 5.98,0.5 0.25,-3.76 12.45,0.25 2.49,2.76 0.5,6.27 -1.49,3.51 1.74,6.02 h 3.74 l 3.74,-5.77 -1.49,-2.76 -1.49,-6.02 2.24,-6.78 10.21,-8.78 7.72,-2.26 -1,-7.28 10.71,-11.55 10.71,-1.76 -1.74,-6.01 10.46,-6.02 v -8.03 l -1,-0.5 -3.74,1.25 -0.5,4.92 -12.43,0.15 -9.74,6.47 -15.29,5 -2.44,-2.99 6.94,-10.5 -3.43,-3.27 -2.33,-4.44 -4.83,-3.88 -5.25,-0.44 -9.92,-6.77 -70.540002,-11.61 0,0 z"
     style="fill:#c7c3c3;fill-opacity:1;stroke:none"
     inkscape:connector-curvature="0" /><path
     id="haida gwaii"
     d="m 78.489998,125.55 -1.7,3.26 0.59,2.31 1.11,0.69 -0.26,0.94 -1.19,0.34 0.34,3.43 1.28,1.29 1.02,-1.11 -1.28,-3.34 0.76,-2.66 1.87,-2.49 -1.36,-2.31 -1.18,-0.35 0,0 z"
     style="fill:#c7c3c3;fill-opacity:1;stroke:none"
     inkscape:connector-curvature="0" /><path
     id="vancouver"
     d="m 84.109998,145.09 -1.53,0.6 2.81,3.26 0.68,3.86 2.81,3 2.38,-0.43 v -3.94 l -2.89,-1.8 -4.26,-4.55 0,0 z"
     style="fill:#c7c3c3;fill-opacity:1;stroke:none"
     inkscape:connector-curvature="0" /><path
     id="guatemala"
     d="m 139.54,288.66 5.93,4.34 5.98,-7.43 -1.02,-1.54 -2.04,-0.07 v -4.35 l -1.53,-0.93 -4.63,1.38 1.77,4.08 -4.46,4.52 0,0 z"
     style="fill:#c7c3c3;fill-opacity:1;stroke:none"
     inkscape:connector-curvature="0" /><path
     id="honduras"
     d="m 152.21,285.92 9.24,-0.35 2.74,3.26 -1.71,-0.39 -3.29,0.14 -4.3,4.04 -1.84,4.09 -1.21,-0.64 -0.01,-4.48 -2.66,-1.78 3.04,-3.89 0,0 z"
     style="fill:#c7c3c3;fill-opacity:1;stroke:none"
     inkscape:connector-curvature="0" /><path
     id="el salvador"
     d="m 146.31,293.41 4.7,2.34 -0.07,-3.71 -2.41,-1.47 -2.22,2.84 0,0 z"
     style="fill:#c7c3c3;fill-opacity:1;stroke:none"
     inkscape:connector-curvature="0" /><path
     id="nicaragua"
     d="m 162.4,289.25 2.19,0.44 0.07,4.49 -2.55,7.28 -6.87,-0.68 -1.53,-3.51 2.04,-4.26 3.87,-3.6 2.78,-0.16 0,0 z"
     style="fill:#c7c3c3;fill-opacity:1;stroke:none"
     inkscape:connector-curvature="0" /><path
     id="costa rica"
     d="m 162.04,302.12 1.39,2.72 1.13,1.5 -1.52,4.51 -2.9,-2.04 -4.74,-4.34 v -2.87 l 6.64,0.52 0,0 z"
     style="fill:#c7c3c3;fill-opacity:1;stroke:none"
     inkscape:connector-curvature="0" /><path
     id="panama"
     d="m 165.25,306.75 -1.46,4.56 4.82,1.25 2.99,0.59 0.51,-3.53 3.21,-1.62 2.85,1.47 1.12,1.79 1.36,-0.16 1.07,-3.25 -3.56,-1.47 -2.7,-1.47 -2.7,1.84 -3.21,1.62 -3.28,-1.32 -1.02,-0.3 0,0 z"
     style="fill:#c7c3c3;fill-opacity:1;stroke:none"
     inkscape:connector-curvature="0" /><path
     id="colombia"
     d="m 198.39,296.92 -2.06,-0.21 -13.62,11.23 -1.44,3.95 -1.86,0.21 0.83,8.73 -4.75,11.65 5.16,4.37 6.61,0.42 4.54,6.66 6.6,0.21 -0.21,4.99 h 2.47 l 2.68,-9.15 -2.48,-3.12 0.62,-5.82 5.16,-0.42 -0.62,-13.52 -11.56,-3.74 -2.68,-7.28 6.61,-9.16 0,0 z"
     style="fill:#c7c3c3;fill-opacity:1;stroke:none"
     inkscape:connector-curvature="0" /><path
     id="venezuela"
     d="m 195.12,303.06 0.44,2.59 3.25,1.03 0.74,-4.77 3.43,-3.55 3.43,4.02 7.89,2.15 6.68,-1.4 4.55,5.61 3.43,2.15 -3.76,5.73 1.26,4.34 -2.15,2.66 -2.23,1.87 -4.83,-2.43 -1.11,1.12 v 3.46 l 3.53,1.68 -2.6,2.81 -2.6,2.81 -3.43,-0.28 -3.45,-3.79 -0.73,-14.26 -11.78,-4.02 -2.14,-6.27 2.18,-3.26 0,0 z"
     style="fill:#c7c3c3;fill-opacity:1;stroke:none"
     inkscape:connector-curvature="0" /><path
     id="guyana"
     d="m 229.71,311.27 7.22,6.54 -2.87,3.32 -0.23,1.97 3.77,3.89 -0.09,3.74 -6.56,2.5 -3.93,-5.31 0.84,-6.38 -1.68,-4.75 3.53,-5.52 0,0 z"
     style="fill:#c7c3c3;fill-opacity:1;stroke:none"
     inkscape:connector-curvature="0" /><path
     id="suriname"
     d="m 237.79,318.28 2.04,1.87 3.16,-1.96 2.88,0.09 -0.37,1.12 -1.21,2.52 -0.19,6.27 -5.75,2.34 0.28,-4.02 -3.71,-3.46 0.19,-1.78 2.68,-2.99 0,0 z"
     style="fill:#c7c3c3;fill-opacity:1;stroke:none"
     inkscape:connector-curvature="0" /><path
     id="guyane"
     d="m 246.79,318.94 5.85,3.65 -3.06,6.08 -1.11,1.4 -3.25,-1.87 0.09,-6.55 1.48,-2.71 0,0 z"
     style="fill:#c7c3c3;fill-opacity:1;stroke:none"
     inkscape:connector-curvature="0" /><path
     id="ecuador"
     d="m 174.86,332.99 -4.73,2.94 -0.34,4.36 -0.95,1.43 2.98,2.86 -1.29,1.41 0.3,3.6 5.33,1.27 8.07,-9.55 -0.02,-3.33 -3.87,-0.25 -5.48,-4.74 0,0 z"
     style="fill:#c7c3c3;fill-opacity:1;stroke:none"
     inkscape:connector-curvature="0" /><path
     id="peru"
     d="m 169.69,346.66 -1.94,1.96 0.13,3.13 16.94,30.88 17.59,11.34 2.72,-4.56 0.65,-10.03 -1.42,-6.25 -4.79,-8.08 -2.85,0.91 -1.29,1.43 -5.69,-6.52 1.42,-7.69 6.6,-4.3 -0.52,-4.04 -6.72,-0.26 -3.49,-5.86 -1.94,-0.65 0.13,3.52 -8.66,10.29 -6.47,-1.56 -0.4,-3.66 0,0 z"
     style="fill:#c7c3c3;fill-opacity:1;stroke:none"
     inkscape:connector-curvature="0" /><path
     id="bolivia"
     d="m 203.37,369.93 8.23,-3.59 2.72,0.26 1.81,7.56 12.54,4.17 2.07,6.39 5.17,0.65 2.2,5.47 -1.55,4.95 -8.41,0.65 -3.1,7.95 -6.6,-0.13 -2.07,-0.39 -3.81,3.7 -1.88,-0.18 -6.47,-14.99 1.79,-2.68 0.63,-10.6 -1.6,-6.31 -1.67,-2.88 0,0 z"
     style="fill:#c7c3c3;fill-opacity:1;stroke:none"
     inkscape:connector-curvature="0" /><path
     id="paraguay"
     d="m 236.42,396.65 2.2,2.4 -0.26,5.08 6.34,-0.39 4.79,6.13 -0.39,5.47 -3.1,4.69 -6.34,0.26 -0.26,-2.61 1.81,-4.3 -6.21,-3.91 h -5.17 l -3.88,-4.17 2.82,-8.06 7.65,-0.59 0,0 z"
     style="fill:#c7c3c3;fill-opacity:1;stroke:none"
     inkscape:connector-curvature="0" /><path
     id="uruguay"
     d="m 245.02,429.07 -2.05,2.19 0.85,11.78 6.44,1.87 8.19,-8.21 -13.43,-7.63 0,0 z"
     style="fill:#c7c3c3;fill-opacity:1;stroke:none"
     inkscape:connector-curvature="0" /><path
     id="argentina"
     d="m 250.13,415.34 1.94,1.82 -7.37,10.95 -2.59,2.87 0.9,12.51 5.69,6.91 -4.78,8.34 -3.62,1.56 h -4.14 l 1.16,6.51 -6.47,2.22 1.55,5.47 -3.88,12.38 4.79,3.91 -2.59,6.38 -4.4,6.91 2.33,4.82 -5.69,0.91 -4.66,-5.73 -0.78,-17.85 -7.24,-30.32 2.19,-10.6 -4.66,-13.55 3.1,-17.59 2.85,-3.39 -0.7,-2.57 3.66,-3.34 8.16,0.56 4.56,4.87 5.27,0.09 5.4,3.3 -1.59,3.72 0.38,3.76 7.65,-0.36 3.58,-5.47 0,0 z"
     style="fill:#c7c3c3;fill-opacity:1;stroke:none"
     inkscape:connector-curvature="0" /><path
     id="tierra del fuego chile"
     d="m 229.7,511.24 -4.27,9.38 7.37,0.78 0.13,-6.25 -3.23,-3.91 0,0 z"
     style="fill:#c7c3c3;fill-opacity:1;stroke:none"
     inkscape:connector-curvature="0" /><path
     id="tierra del fuego argentina"
     d="m 233.58,515.93 0.26,5.73 4.4,-0.39 3.75,-2.48 -6.34,-1.3 -2.07,-1.56 0,0 z"
     style="fill:#c7c3c3;fill-opacity:1;stroke:none"
     inkscape:connector-curvature="0" /><path
     id="chile"
     d="m 228.25,509.77 -3.21,3.55 -0.39,4.17 -6.21,-3.52 -6.6,-9.51 -1.94,-3.39 2.72,-3.52 -0.26,-4.43 -3.1,-1.3 -2.46,-1.82 0.52,-2.48 3.23,-0.91 0.65,-14.33 -5.04,-2.87 -3.29,-74.59 0.85,-1.48 6.44,14.85 2.06,0.04 0.67,2.37 -2.74,3.32 -3.15,17.87 4.48,13.76 -2.07,10.42 7.3,30.64 0.77,17.92 5.23,6.05 5.54,-0.81 0,0 z"
     style="fill:#c7c3c3;fill-opacity:1;stroke:none"
     inkscape:connector-curvature="0" /><path
     id="chiloe"
     d="m 206.94,472.28 -1.29,1.95 0.65,3.39 1.29,0.13 0.65,-4.3 -1.3,-1.17 0,0 z"
     style="fill:#c7c3c3;fill-opacity:1;stroke:none"
     inkscape:connector-curvature="0" /><path
     id="brazil"
     d="m 258.9,435.99 6.25,-12.02 0.23,-10.1 11.66,-7.52 h 6.53 l 5.13,-8.69 0.93,-16.68 -2.1,-4.46 12.36,-11.28 0.47,-12.45 -16.79,-8.22 -20.28,-6.34 -9.56,-0.94 2.57,-5.4 -0.7,-8.22 -2.09,-0.69 -3.09,6.14 -1.62,2.03 -4.16,-1.84 -13.99,4.93 -4.66,-5.87 0.75,-6.13 -4.4,4.48 -4.86,-2.62 -0.49,0.69 0.01,2.13 4.19,2.25 -6.29,6.63 -3.97,-0.04 -4.02,-4.09 -4.55,0.14 -0.56,4.86 2.61,3.17 -3.08,9.87 -3.6,0.28 -5.73,3.62 -1.4,7.11 4.97,5.32 0.91,-1.03 3.49,-0.94 2.98,5.02 8.53,-3.66 3.31,0.19 2.28,8.07 12.17,3.86 2.1,6.44 5.18,0.62 2.47,6.15 -1.67,5.47 2.18,2.86 -0.32,4.26 5.84,-0.55 5.35,6.76 -0.42,4.75 3.17,2.68 -7.6,11.51 13.38,7.49 0,0 z"
     style="fill:#c7c3c3;fill-opacity:1;stroke:none"
     inkscape:connector-curvature="0" /><path
     id="belize"
     d="m 149.22,279.54 -0.05,3.65 h 0.84 l 2.86,-5.34 h -1.94 l -1.71,1.69 0,0 z"
     style="fill:#c7c3c3;fill-opacity:1;stroke:none"
     inkscape:connector-curvature="0" /><path
     id="russia"
     d="m 762.63,70.07 1.76,6.08 3.52,1.01 3.52,-5.57 -2.01,-3.8 0.75,-3.29 h 5.28 l -1.26,2.53 0.5,9.12 -7.54,18.74 0.75,4.05 -0.25,6.84 14.07,20.51 2.76,0.76 0.25,-16.71 2.76,-2.53 -3.02,-6.58 2.51,-2.79 -5.53,-7.34 -3.02,0.25 -1,-12.15 7.79,-2.03 0.5,-3.55 4.02,-1.01 2.26,2.03 2.76,-11.14 4.77,-8.1 3.77,-2.03 3.27,0.25 v -3.8 l -5.28,-1.01 -7.29,-6.08 3.52,-4.05 -3.02,-6.84 2.51,-2.53 3.02,4.05 7.54,2.79 8.29,0.76 1.01,-3.54 -4.27,-4.3 4.77,-6.58 -10.81,-3.8 -2.76,5.57 -3.52,-4.56 -19.85,-6.84 -18.85,3.29 -2.76,1.52 v 1.52 l 4.02,2.03 -0.5,4.81 -7.29,-3.04 -16.08,6.33 -2.76,-5.82 h -11.06 l -5.03,5.32 -17.84,-4.05 -16.33,3.29 -2.01,5.06 2.51,0.76 -0.25,3.8 -15.83,1.77 1.01,5.06 -14.58,-2.53 3.52,-6.58 -14.83,-0.76 1.26,6.84 -4.77,2.28 -4.02,-3.8 -16.33,2.79 -6.28,5.82 -0.25,3.54 -4.02,0.25 -0.5,-4.05 12.82,-11.14 v -7.6 l -8.29,-2.28 -10.81,3.54 -4.52,-4.56 h -2.01 l -2.51,5.06 2.01,2.28 -14.33,7.85 -12.31,9.37 -7.54,10.38 v 4.3 l 8.04,3.29 -4.02,3.04 -8.54,-3.04 -3.52,3.04 -5.28,-6.08 -1.01,2.28 5.78,18.23 1.51,0.51 4.02,-2.03 2.01,1.52 v 3.29 l -3.77,-1.52 -2.26,1.77 1.51,3.29 -1.26,8.61 -7.79,0.76 -0.5,-2.79 4.52,-2.79 1.01,-7.6 -5.03,-6.58 -1.76,-11.39 -8.04,-1.27 -0.75,4.05 1.51,2.03 -3.27,2.79 1.26,7.6 4.77,2.03 1.01,5.57 -4.78,-3.04 -12.31,-2.28 -1.51,4.05 -9.8,3.54 -1.51,-2.53 -12.82,7.09 -0.25,4.81 -5.03,0.76 1.51,-3.54 v -3.54 l -5.03,-1.77 -3.27,1.27 2.76,5.32 2.01,3.54 v 2.79 l -3.77,-0.76 -0.75,-0.76 -3.77,4.05 2.01,3.54 -8.54,-0.25 2.76,3.55 -0.75,1.52 h -4.52 l -3.27,-2.28 -0.75,-6.33 -5.28,-2.03 v -2.53 l 11.06,2.28 6.03,0.51 2.51,-3.8 -2.26,-4.05 -16.08,-6.33 -5.55,1.38 -1.9,1.63 0.59,3.75 2.36,0.41 -0.55,5.9 7.28,17.1 -5.26,8.34 -0.36,1.88 2.67,1.88 -2.41,1.59 -1.6,0.03 0.3,7.35 2.21,3.13 0.03,3.04 2.83,0.26 4.33,1.65 4.58,6.3 0.05,1.66 -1.49,2.55 3.42,-0.19 3.33,0.96 4.5,6.37 11.08,1.01 -0.48,7.58 -3.82,3.27 0.79,1.28 -3.77,4.05 -1,3.8 2.26,3.29 7.29,2.53 3.02,-1.77 19.35,7.34 0.75,-2.03 -4.02,-3.8 v -4.81 l -2.51,-0.76 0.5,-4.05 4.02,-4.81 -7.21,-5.4 0.5,-7.51 7.71,-5.07 9.05,0.51 1.51,2.79 9.3,0.51 6.79,-3.8 -3.52,-3.8 0.75,-7.09 17.59,-8.61 13.53,6.1 4.52,-4.05 13.32,12.66 10.05,-1.01 3.52,3.54 9.55,1.01 6.28,-8.61 8.04,3.55 4.27,0.76 4.27,-3.8 -3.77,-2.53 3.27,-5.06 9.3,3.04 2.01,4.05 4.02,0.25 2.51,-1.77 6.79,-0.25 0.75,1.77 7.79,0.51 5.28,-5.57 10.81,1.27 3.27,-1.27 1,-6.08 -3.27,-7.34 3.27,-2.79 h 10.3 l 9.8,11.65 12.56,7.09 h 3.77 l 0.5,-3.04 4.52,-2.79 0.5,16.46 -4.02,0.25 v 4.05 l 2.26,2.79 -0.42,3.62 1.67,0.69 1.01,-2.53 1.51,0.51 1,1.01 4.52,-1.01 4.52,-13.17 0.5,-16.46 -5.78,-13.17 -7.29,-8.86 -3.52,0.51 v 2.79 l -8.54,-3.29 3.27,-7.09 2.76,-18.74 11.56,-3.54 5.53,-3.54 h 6.03 l -1.51,2.03 1.51,2.53 5.28,-5.57 3.02,0.25 -0.5,-3.29 -4.78,-1.01 3.27,-11.9 4.31,-4.08 0,0 z"
     style="fill:#c7c3c3;fill-opacity:1;stroke:none"
     inkscape:connector-curvature="0" /><path
     id="china"
     d="m 615.06,167.21 -3.46,8.7 -4.77,-0.25 -5.03,11.01 4.27,5.44 -8.8,12.15 -4.52,-0.76 -3.02,3.8 0.75,2.28 3.52,0.25 1.76,4.05 3.52,0.76 10.81,13.93 v 7.09 l 5.28,3.29 5.78,-1.01 7.29,4.3 8.8,2.53 4.27,-0.51 4.78,-0.51 10.05,-6.58 3.27,0.51 1.25,2.97 2.77,0.83 3.77,5.57 -2.51,5.57 1.51,3.8 4.27,1.52 0.75,4.56 5.03,0.51 0.75,-2.28 7.29,-3.8 4.52,0.25 5.28,5.82 3.52,-1.52 2.26,0.25 1.01,2.79 1.76,0.25 2.51,-3.54 10.05,-3.8 9.05,-10.89 3.02,-10.38 -0.25,-6.84 -3.77,-0.76 2.26,-2.53 -0.5,-4.05 -9.55,-9.62 v -4.81 l 2.76,-3.54 2.76,-1.27 0.25,-2.79 h -7.04 l -1.26,3.8 -3.27,-0.76 -4.02,-4.3 2.51,-6.58 3.52,-3.8 3.27,0.25 -0.5,5.82 1.76,1.52 4.27,-4.3 1.51,-0.25 -0.5,-3.29 4.02,-4.81 3.02,0.25 1.76,-5.57 2.06,-1.09 0.21,-3.47 -2,-2.1 -0.17,-5.48 3.85,-0.25 -0.25,-14.13 -2.7,1.62 -1.01,3.62 -4.51,-0.01 -13.07,-7.35 -9.44,-11.38 -9.58,-0.1 -2.44,2.12 3.1,7.1 -1.08,6.66 -3.86,1.6 -2.17,-0.17 -0.16,6.59 2.26,0.51 4.02,-1.77 5.28,2.53 v 2.53 l -3.77,0.25 -3.02,6.58 -2.76,0.25 -9.8,12.91 -10.3,4.56 -7.04,0.51 -4.77,-3.29 -6.79,3.55 -7.29,-2.28 -1.76,-4.81 -12.31,-0.76 -6.53,-10.63 h -2.76 l -2.22,-4.93 -2.64,-0.21 z"
     style="fill:#c7c3c3;fill-opacity:1;stroke:none"
     inkscape:connector-curvature="0" /><path
     id="mongolia"
     d="m 618.46,167.31 5.82,-7.72 6.99,3.23 4.75,1.27 5.82,-5.34 -3.95,-2.91 2.6,-3.67 7.76,2.74 2.69,4.41 4.86,0.13 2.54,-1.89 5.23,-0.21 1.14,1.94 8.69,0.44 5.5,-5.61 7.61,0.8 -0.44,7.64 3.33,0.76 4.09,-1.86 4.33,2.14 -0.1,1.08 -3.14,0.09 -3.27,6.86 -2.54,0.25 -9.88,12.91 -10.09,4.45 -6.31,0.49 -5.24,-3.38 -6.7,3.58 -6.6,-2.05 -1.87,-4.79 -12.5,-0.88 -6.4,-10.85 -3.11,-0.2 -1.61,-3.85 0,0 z"
     style="fill:#c7c3c3;fill-opacity:1;stroke:none"
     inkscape:connector-curvature="0" /><path
     id="north korea"
     d="m 722.94,191.41 1.84,0.77 0.56,6.44 3.65,0.21 3.44,-4.03 -1.19,-1.06 0.14,-4.32 3.16,-3.82 -1.61,-2.9 1.05,-1.2 0.58,-3 -1.83,-0.83 -1.56,0.79 -1.93,5.86 -3.12,-0.27 -3.61,4.26 0.43,3.1 0,0 z"
     style="fill:#c7c3c3;fill-opacity:1;stroke:none"
     inkscape:connector-curvature="0" /><path
     id="south korea"
     d="m 733,195.34 6.18,5.04 1.05,4.88 -0.21,2.62 -3.02,3.4 -2.6,0.14 -2.95,-6.37 -1.12,-3.04 1.19,-0.92 -0.28,-1.27 -1.47,-0.66 3.23,-3.82 0,0 z"
     style="fill:#c7c3c3;fill-opacity:1;stroke:none"
     inkscape:connector-curvature="0" /><path
     id="kazakhstan"
     d="m 521.35,185.76 4.1,-1.75 4.58,-0.16 0.32,7 h -2.68 l -2.05,3.34 2.68,4.45 3.95,2.23 0.36,2.55 1.45,-0.48 1.34,-1.59 2.21,0.48 1.11,2.23 h 2.84 v -2.86 l -1.74,-5.09 -0.79,-4.13 5.05,-2.23 6.79,1.11 4.26,4.29 9.63,-0.95 5.37,7.63 6.31,0.32 1.74,-2.86 2.21,-0.48 0.32,-3.18 3.31,-0.16 1.74,2.07 1.74,-4.13 14.99,2.07 2.52,-3.34 -4.26,-5.25 5.68,-12.4 4.58,0.32 3.16,-7.63 -6.31,-0.64 -3.63,-3.5 -10,1.16 -12.88,-12.45 -4.54,4.03 -13.77,-6.25 -16.89,8.27 -0.47,5.88 3.95,4.61 -7.7,4.35 -9.99,-0.22 -2.09,-3.07 -7.83,-0.43 -7.42,4.77 -0.16,6.52 6.91,5.55 0,0 z"
     style="fill:#c7c3c3;fill-opacity:1;stroke:none"
     inkscape:connector-curvature="0" /><path
     id="turkmenistan"
     d="m 538.51,204.73 -0.62,2.63 h -4.15 v 3.56 l 4.46,2.94 -1.38,4.03 v 1.86 l 1.85,0.31 2.46,-3.25 5.54,-1.24 11.84,4.49 0.15,3.25 6.61,0.62 7.38,-7.75 -0.92,-2.48 -4.92,-1.08 -13.84,-8.99 -0.62,-3.25 h -5.23 l -2.31,4.34 h -2.31 l -3.99,0.01 0,0 z"
     style="fill:#c7c3c3;fill-opacity:1;stroke:none"
     inkscape:connector-curvature="0" /><path
     id="uzbekistan"
     d="m 573.58,216.2 3.08,0.16 v -5.27 l -2.92,-1.7 4.92,-6.2 h 2 l 2,2.33 5.23,-2.01 -7.23,-2.48 -0.28,-1.5 -1.72,0.42 -1.69,2.94 -7.29,-0.24 -5.35,-7.57 -9.4,0.93 -4.48,-4.44 -6.2,-1.05 -4.5,1.83 2.61,8.68 0.03,2.92 1.9,0.04 2.33,-4.44 6.2,0.08 0.92,3.41 13.29,8.82 5.14,1.18 1.41,3.16 0,0 z"
     style="fill:#c7c3c3;fill-opacity:1;stroke:none"
     inkscape:connector-curvature="0" /><path
     id="tajikistan"
     d="m 574.85,208.98 4.11,-5.1 h 1.55 l 0.54,1.14 -1.9,1.38 v 1.14 l 1.25,0.9 6.01,0.36 1.96,-0.84 0.89,0.18 0.6,1.92 3.57,0.36 1.79,3.78 -0.54,1.14 -0.71,0.06 -0.71,-1.44 -1.55,-0.12 -2.68,0.36 -0.18,2.52 -2.68,-0.18 0.12,-3.18 -1.96,-1.92 -2.98,2.46 0.06,1.62 -2.62,0.9 h -1.55 l 0.12,-5.58 -2.51,-1.86 0,0 z"
     style="fill:#c7c3c3;fill-opacity:1;stroke:none"
     inkscape:connector-curvature="0" /><path
     id="kirgizstan"
     d="m 581.47,196.35 -0.31,2.53 0.25,1.56 8.7,2.92 -7.64,3.08 -0.87,-0.72 -1.65,1.06 0.08,0.58 0.88,0.4 5.36,0.14 2.72,-0.82 3.49,-4.4 4.37,0.76 5.27,-7.3 -14.1,-1.92 -1.95,4.73 -2.46,-2.64 -2.14,0.04 0,0 z"
     style="fill:#c7c3c3;fill-opacity:1;stroke:none"
     inkscape:connector-curvature="0" /><path
     id="afghanistan"
     d="m 558.78,224.19 1.59,12.46 3.96,0.87 0.37,2.24 -2.84,2.37 5.29,4.27 10.28,-3.7 0.82,-4.38 6.47,-4.04 2.48,-9.36 1.85,-1.99 -1.92,-3.34 6.26,-3.87 -0.8,-1.12 -2.89,0.18 -0.26,2.66 -3.88,-0.04 -0.07,-3.55 -1.25,-1.49 -2.1,1.91 0.06,1.75 -3.17,1.2 -5.85,-0.37 -7.6,7.96 -6.8,-0.62 0,0 z"
     style="fill:#c7c3c3;fill-opacity:1;stroke:none"
     inkscape:connector-curvature="0" /><path
     id="pakistan"
     d="m 567.79,246.98 2.6,3.86 -0.25,1.99 -3.46,1.37 -0.25,3.24 h 3.96 l 1.36,-1.12 h 7.54 l 6.8,5.98 0.87,-2.87 h 5.07 l 0.12,-3.61 -5.19,-4.98 1.11,-2.74 5.32,-0.37 7.17,-14.95 -3.96,-3.11 -1.48,-5.23 9.64,-0.87 -5.69,-8.1 -3.03,-0.82 -1.24,1.5 -0.93,0.07 -5.69,3.61 1.86,3.12 -2.1,2.24 -2.6,9.59 -6.43,4.11 -0.87,4.49 -10.25,3.6 0,0 z"
     style="fill:#c7c3c3;fill-opacity:1;stroke:none"
     inkscape:connector-curvature="0" /><path
     id="india"
     d="m 615.64,310.15 4.58,-2.24 2.72,-9.84 -0.12,-12.08 15.58,-16.82 v -3.99 l 3.21,-1.25 -0.12,-4.61 -3.46,-6.73 1.98,-3.61 4.33,3.99 5.56,0.25 v 2.24 l -1.73,1.87 0.37,1 2.97,0.12 0.62,3.36 H 653 l 2.23,-3.99 1.11,-10.46 3.71,-2.62 0.12,-3.61 -1.48,-2.87 -2.35,-0.12 -9.2,6.08 0.58,3.91 -6.46,-0.02 -2.28,-2.79 -1.24,0.16 0.42,3.88 -13.97,-1 -8.66,-3.86 -0.46,-4.75 -5.77,-3.58 -0.07,-7.37 -3.96,-4.53 -9.1,0.87 0.99,3.96 4.46,3.61 -7.71,15.78 -5.16,0.39 -0.85,1.9 5.08,4.7 -0.25,4.75 -5.19,-0.08 -0.56,2.36 4.31,-0.19 0.12,1.87 -3.09,1.62 1.98,3.74 3.83,1.25 2.35,-1.74 1.11,-3.11 1.36,-0.62 1.61,1.62 -0.49,3.99 -1.11,1.87 0.25,3.24 16.43,34.1 0,0 z"
     style="fill:#c7c3c3;fill-opacity:1;stroke:none"
     inkscape:connector-curvature="0" /><path
     id="nepal"
     d="m 615.85,239.7 0.46,4.27 8.08,3.66 12.95,0.96 -0.49,-3.13 -8.65,-2.38 -7.34,-4.37 -5.01,0.99 0,0 z"
     style="fill:#c7c3c3;fill-opacity:1;stroke:none"
     inkscape:connector-curvature="0" /><path
     id="bhutan"
     d="m 640.06,245.22 1.55,2.12 5.24,0.04 -0.53,-2.9 -6.26,0.74 0,0 z"
     style="fill:#c7c3c3;fill-opacity:1;stroke:none"
     inkscape:connector-curvature="0" /><path
     id="bangladesh"
     d="m 640.23,250.25 -1.31,2.37 3.4,6.46 0.1,5.04 0.62,1.35 3.99,0.07 2.26,-2.17 1.64,0.99 0.33,3.07 1.31,-0.82 0.08,-3.92 -1.1,-0.13 -0.69,-3.33 -2.78,-0.1 -0.69,-1.85 1.7,-2.27 0.03,-1.12 h -4.94 l -3.95,-3.64 0,0 z"
     style="fill:#c7c3c3;fill-opacity:1;stroke:none"
     inkscape:connector-curvature="0" /><path
     id="burma"
     d="m 674.1,300.79 -2.77,-4.44 2.01,-2.82 -1.9,-3.49 -1.79,-0.34 -0.34,-5.86 -2.68,-5.19 -0.78,1.24 -1.79,3.04 -2.24,0.34 -1.12,-1.47 -0.56,-3.95 -1.68,-3.16 -6.84,-6.45 1.68,-1.11 0.31,-4.67 2.5,-4.2 1.08,-10.45 3.62,-2.47 0.12,-3.81 2.17,0.72 3.42,4.95 -2.54,5.44 1.71,4.27 4.23,1.66 0.77,4.65 5.68,0.88 -1.57,2.71 -7.16,2.82 -0.78,4.62 5.26,6.76 0.22,3.61 -1.23,1.24 0.11,1.13 3.92,5.75 0.11,5.97 -1.15,2.08 0,0 z"
     style="fill:#c7c3c3;fill-opacity:1;stroke:none"
     inkscape:connector-curvature="0" /><path
     id="thailand"
     d="m 674.69,267.61 3.24,4.17 v 5.07 l 1.12,0.56 5.15,-2.48 1.01,0.34 6.15,7.1 -0.22,4.85 -2.01,-0.34 -1.79,-1.13 -1.34,0.11 -2.35,3.94 0.45,2.14 1.9,1.01 -0.11,2.37 -1.34,0.68 -4.59,-3.16 v -2.82 l -1.9,-0.11 -0.78,1.24 -0.4,12.62 2.97,5.42 5.26,5.07 -0.22,1.47 -2.8,-0.11 -2.57,-3.83 h -2.69 l -3.36,-2.71 -1.01,-2.82 1.45,-2.37 0.5,-2.14 1.58,-2.8 -0.07,-6.44 -3.86,-5.58 -0.16,-0.68 1.25,-1.26 -0.29,-4.43 -5.14,-6.51 0.6,-3.75 6.37,-2.69 0,0 z"
     style="fill:#c7c3c3;fill-opacity:1;stroke:none"
     inkscape:connector-curvature="0" /><path
     id="malaysia"
     d="m 677.37,312.59 2.01,4.51 0.45,5.86 2.69,4.17 6.49,3.94 2.46,0.23 -0.45,-4.06 -2.13,-5.18 -3.12,-6.63 -0.26,1.16 -3.76,-0.17 -2.7,-3.88 -1.68,0.05 0,0 z"
     style="fill:#c7c3c3;fill-opacity:1;stroke:none"
     inkscape:connector-curvature="0" /><path
     id="cambodia"
     d="m 685.14,296.61 4.09,4.37 7.61,-5.64 0.67,-8.9 -3.93,2.71 -2.04,-1.14 -2.77,-0.37 -1.55,-1.09 -0.75,0.04 -2.03,3.33 0.33,1.54 2.06,1.15 -0.25,3.13 -1.44,0.87 0,0 z"
     style="fill:#c7c3c3;fill-opacity:1;stroke:none"
     inkscape:connector-curvature="0" /><path
     id="laos"
     d="m 680.13,260.07 -2.42,1.23 -2.01,5.86 3.36,4.28 -0.56,4.73 0.56,0.23 5.59,-2.71 7.5,8.38 -0.18,5.28 1.63,0.88 4.03,-3.27 -0.33,-2.59 -11.63,-11.05 0.11,-1.69 1.45,-1.01 -1.01,-2.82 -4.81,-0.79 -1.28,-4.94 0,0 z"
     style="fill:#c7c3c3;fill-opacity:1;stroke:none"
     inkscape:connector-curvature="0" /><path
     id="vietnam"
     d="m 689.72,301.59 1.19,1.87 0.22,2.14 3.13,0.34 3.8,-5.07 3.58,-1.01 1.9,-5.18 -0.89,-8.34 -3.69,-5.07 -3.89,-3.11 -4.95,-8.5 3.55,-5.94 -5.08,-5.83 -4.07,-0.18 -3.66,1.97 1.09,4.71 4.88,0.86 1.31,3.63 -1.72,1.12 0.11,0.9 11.45,11.2 0.45,3.29 -0.69,10.4 -8.02,5.8 0,0 z"
     style="fill:#c7c3c3;fill-opacity:1;stroke:none"
     inkscape:connector-curvature="0" /><path
     id="georgia"
     d="m 500.12,201.3 3.27,4.27 4.08,1.88 2.51,-0.01 4.31,-1.17 1.08,-1.69 -12.75,-4.77 -2.5,1.49 0,0 z"
     style="fill:#c7c3c3;fill-opacity:1;stroke:none"
     inkscape:connector-curvature="0" /><path
     id="armenia"
     d="m 514.38,207.03 4.8,6.26 -1.41,1.65 -3.4,-0.59 -4.22,-3.78 0.23,-2.48 4,-1.06 0,0 z"
     style="fill:#c7c3c3;fill-opacity:1;stroke:none"
     inkscape:connector-curvature="0" /><path
     id="azerbaijan"
     d="m 516.07,204.86 -1.01,1.72 4.71,6.18 1.64,-0.53 2.7,2.83 1.17,-4.96 2.93,0.47 -0.12,-1.42 -4.82,-4.22 -0.92,2.48 -6.28,-2.55 0,0 z"
     style="fill:#c7c3c3;fill-opacity:1;stroke:none"
     inkscape:connector-curvature="0" /><path
     id="iran"
     d="m 514.31,215.09 -1.22,1.27 0.12,2.01 1.52,2.13 5.39,5.9 -0.82,2.36 h -0.94 l -0.47,2.36 3.05,3.9 2.81,0.24 5.63,7.79 3.16,0.24 2.46,1.77 0.12,3.54 9.73,5.67 h 3.63 l 2.23,-1.89 2.81,-0.12 1.64,3.78 10.51,1.46 0.31,-3.86 3.48,-1.26 0.16,-1.38 -2.77,-3.78 -6.17,-4.96 3.24,-2.95 -0.23,-1.3 -4.06,-0.63 -1.72,-13.7 -0.2,-3.15 -11.01,-4.21 -4.88,1.1 -2.73,3.35 -2.42,-0.16 -0.7,0.59 -5.39,-0.35 -6.8,-4.96 -2.53,-2.77 -1.16,0.28 -2.09,2.39 -3.69,-0.7 0,0 z"
     style="fill:#c7c3c3;fill-opacity:1;stroke:none"
     inkscape:connector-curvature="0" /><path
     id="turkey"
     d="m 503.36,206.33 -2.23,2.36 -8.2,-0.24 -4.92,-2.95 -4.8,-0.12 -5.51,3.9 -5.16,0.24 -0.47,2.95 h -5.86 l -2.34,2.13 v 1.18 l 1.41,1.18 v 1.3 l -0.59,1.54 0.59,1.3 1.88,-0.94 1.88,2.01 -0.47,1.42 -0.7,0.95 1.05,1.18 5.16,1.06 3.63,-1.54 V 223 l 1.76,0.35 4.22,2.48 4.57,-0.71 1.99,-1.89 1.29,0.47 v 2.13 h 1.76 l 1.52,-2.95 13.36,-1.42 5.83,-0.71 -1.54,-2.02 -0.03,-2.73 1.17,-1.4 -4.26,-3.42 0.23,-2.95 h -2.34 l -3.88,-1.9 0,0 z"
     style="fill:#c7c3c3;fill-opacity:1;stroke:none"
     inkscape:connector-curvature="0" /><path
     id="yemen"
     d="m 516.65,286.37 1.44,4.28 v 4.18 l 3.46,3.14 24.38,-9.93 0.23,-2.73 -3.91,-7.02 -9.81,3.13 -5.63,5.54 -6.53,-3.86 -3.63,3.27 0,0 z"
     style="fill:#c7c3c3;fill-opacity:1;stroke:none"
     inkscape:connector-curvature="0" /><path
     id="oman"
     d="m 543.04,277.98 7.39,-4.26 1.31,-6.25 -1.62,-0.93 0.67,-6.7 1.41,-0.82 1.51,2.37 8.99,4.7 v 2.61 l -10.89,16.03 -5.01,0.17 -3.76,-6.92 0,0 z"
     style="fill:#c7c3c3;fill-opacity:1;stroke:none"
     inkscape:connector-curvature="0" /><path
     id="emirates"
     d="m 538.67,262.08 0.87,3.48 9.86,0.87 0.69,-7.14 1.9,-1.04 0.52,-2.61 -3.11,0.87 -3.46,5.23 -7.27,0.34 0,0 z"
     style="fill:#c7c3c3;fill-opacity:1;stroke:none"
     inkscape:connector-curvature="0" /><path
     id="qatar"
     d="m 537.29,256.16 -0.52,4.01 1.54,1.17 1.4,-0.13 0.52,-5.05 -1.21,-0.87 -1.73,0.87 0,0 z"
     style="fill:#c7c3c3;fill-opacity:1;stroke:none"
     inkscape:connector-curvature="0" /><path
     id="kuwait"
     d="m 527.95,244.31 -2.25,-1.22 -1.56,1.57 0.17,3.14 3.63,1.39 0.01,-4.88 0,0 z"
     style="fill:#c7c3c3;fill-opacity:1;stroke:none"
     inkscape:connector-curvature="0" /><path
     id="saudi"
     d="m 528.66,250.38 7.01,9.77 2.26,1.8 1.01,4.38 10.79,0.85 1.22,0.64 -1.21,5.4 -7.09,4.18 -10.37,3.14 -5.53,5.4 -6.57,-3.83 -3.98,3.48 -5.54,-9.05 -3.8,-1.74 -1.38,-2.09 v -4.53 l -13.83,-16.72 -0.52,-2.96 h 3.98 l 4.84,-4.18 0.17,-2.09 -1.38,-1.39 2.77,-2.26 5.88,0.35 10.03,8.36 5.92,-0.27 0.38,1.46 4.94,1.9 0,0 z"
     style="fill:#c7c3c3;fill-opacity:1;stroke:none"
     inkscape:connector-curvature="0" /><path
     id="syria"
     d="m 491.33,226.27 -0.35,2.54 2.82,1.18 -0.12,7.04 2.82,-0.06 2.82,-2.13 1.06,-0.18 6.4,-5.09 1.29,-7.39 -12.79,1.3 -1.35,2.96 -2.6,-0.17 0,0 z"
     style="fill:#c7c3c3;fill-opacity:1;stroke:none"
     inkscape:connector-curvature="0" /><path
     id="iraq"
     d="m 508.97,222.17 -1.56,7.71 -6.46,5.38 0.41,2.54 6.31,0.43 10.05,8.18 5.62,-0.16 0.15,-1.89 2.06,-2.21 2.88,1.63 0.38,-0.36 -5.57,-7.41 -2.64,-0.16 -3.51,-4.51 0.7,-3.32 1.07,-0.14 0.37,-1.47 -4.78,-5.03 -5.48,0.79 0,0 z"
     style="fill:#c7c3c3;fill-opacity:1;stroke:none"
     inkscape:connector-curvature="0" /><path
     id="jordan"
     d="m 493.56,237.92 -2.46,8.58 -0.11,1.31 h 3.87 l 4.33,-3.82 0.11,-1.45 -1.77,-1.81 3.17,-2.63 -0.46,-2.44 -0.87,0.2 -2.64,1.89 -3.17,0.17 0,0 z"
     style="fill:#c7c3c3;fill-opacity:1;stroke:none"
     inkscape:connector-curvature="0" /><path
     id="lebanon"
     d="m 490.86,229.58 0.06,1.95 -0.82,2.96 2.82,0.24 0.18,-4.2 -2.24,-0.95 0,0 z"
     style="fill:#c7c3c3;fill-opacity:1;stroke:none"
     inkscape:connector-curvature="0" /><path
     id="israel"
     d="m 489.98,235.2 -1.58,5.03 2.05,6.03 2.35,-8.81 v -1.89 l -2.82,-0.36 0,0 z"
     style="fill:#c7c3c3;fill-opacity:1;stroke:none"
     inkscape:connector-curvature="0" /><path
     id="cyprus"
     d="m 487.87,226.98 1.23,0.89 -3.81,3.61 -1.82,-0.06 -1.35,-0.95 0.18,-1.77 2.76,-0.18 2.81,-1.54 0,0 z"
     style="fill:#c7c3c3;fill-opacity:1;stroke:none"
     inkscape:connector-curvature="0" /><path
     id="norway"
     d="m 460.12,99.28 2.02,-1.48 -0.18,-1.66 -1.28,-0.74 0.18,-2.03 h 1.1 v -1.11 l -4.77,-1.29 -7.15,0.74 -0.73,3.14 -1.65,-0.55 -1.1,-1.85 -3.49,0.18 -0.37,3.51 -1.65,0.74 -0.92,-1.85 -7.34,5.91 1.47,1.66 -2.75,1.29 -6.24,12.38 -2.2,1.48 0.18,1.11 2.2,1.11 -0.55,2.4 -3.67,-0.19 -1.1,-1.29 -2.38,2.77 -1.47,1.11 -0.37,2.59 -1.28,0.74 -3.3,0.74 -1.65,5.18 1.1,8.5 1.28,3.88 1.47,1.48 3.3,-0.18 4.77,-4.62 1.83,-3.14 0.55,4.62 3.12,-5.54 0.18,-15.53 2.54,-1.6 0.76,-8.57 7.7,-11.09 3.67,-1.29 1.65,-2.03 5.5,1.29 2.75,1.66 0.92,-4.62 4.59,-2.77 2.76,4.81 0,0 z"
     style="fill:#c7c3c3;fill-opacity:1;stroke:none"
     inkscape:connector-curvature="0" /><path
     id="britain"
     d="m 390.78,146.22 -1.83,2.77 0.73,1.11 h 4.22 v 1.85 l -1.1,1.48 0.73,3.88 2.38,4.62 1.83,4.25 2.93,1.11 1.28,2.22 -0.18,2.03 -1.83,1.11 -0.18,0.92 1.28,0.74 -1.1,1.48 -2.57,1.11 -4.95,-0.55 -7.71,3.51 -2.57,-1.29 7.34,-4.25 -0.92,-0.55 -3.85,-0.37 2.38,-3.51 0.37,-2.96 3.12,-0.37 -0.55,-5.73 -3.67,-0.18 -1.1,-1.29 0.18,-4.25 -2.2,0.18 2.2,-7.39 4.04,-2.96 1.3,1.28 0,0 z"
     style="fill:#c7c3c3;fill-opacity:1;stroke:none"
     inkscape:connector-curvature="0" /><path
     id="ulster"
     d="m 383.08,158.61 -3.3,0.37 -0.18,2.96 2.2,1.48 2.38,-0.55 0.92,-1.66 -2.02,-2.6 0,0 z"
     style="fill:#c7c3c3;fill-opacity:1;stroke:none"
     inkscape:connector-curvature="0" /><path
     id="ireland"
     d="m 384.17,163.69 -0.91,6 -8.07,2.96 h -2.57 l -1.83,-1.29 v -1.11 l 4.04,-2.59 -1.1,-2.22 0.18,-3.14 3.49,0.18 1.6,-3.76 -0.21,3.34 2.71,2.15 2.67,-0.52 0,0 z"
     style="fill:#c7c3c3;fill-opacity:1;stroke:none"
     inkscape:connector-curvature="0" /><path
     id="sweden"
     d="m 442.38,101.72 1.96,1.81 h 3.67 l 2.02,3.88 0.55,6.65 -4.95,3.51 v 3.51 l -3.49,4.81 -2.02,0.18 -2.75,4.62 0.18,4.44 4.77,3.51 -0.37,2.03 -1.83,2.77 -2.75,2.4 0.18,7.95 -4.22,1.48 -1.47,3.14 h -2.02 l -1.1,-5.54 -4.59,-7.04 3.77,-6.31 0.26,-15.59 2.6,-1.43 0.63,-8.92 7.41,-10.61 3.56,-1.25 0,0 z"
     style="fill:#c7c3c3;fill-opacity:1;stroke:none"
     inkscape:connector-curvature="0" /><path
     id="finland"
     d="m 451.45,114.08 2.07,0.91 1.28,2.4 -1.28,1.66 -6.42,7.02 -1.1,3.7 1.47,5.36 4.95,3.7 6.6,-3.14 5.32,-0.74 4.95,-7.95 -3.67,-8.69 -3.49,-8.32 0.55,-5.36 -2.2,-0.37 -0.57,-3.91 -2.96,-4.83 -3.28,2.27 -1.29,5.27 -3.48,-2.09 -4.84,-1.18 -1.08,1.26 1.86,1.68 3.39,-0.06 2.73,4.41 0.49,7 0,0 z"
     style="fill:#c7c3c3;fill-opacity:1;stroke:none"
     inkscape:connector-curvature="0" /><path
     id="path5198"
     d="m 462.73,148.51 -6.85,-1.11 0.15,3.83 6.35,3.88 2.6,-0.76 -0.15,-2.92 -2.1,-2.92 0,0 z"
     style="fill:#c7c3c3;fill-opacity:1;stroke:none"
     inkscape:connector-curvature="0" /><path
     id="hiumaa"
     d="m 451.42,144.78 -1.55,-0.05 -0.9,0.91 0.65,0.96 1.55,0.1 0.8,-1.16 -0.55,-0.76 0,0 z"
     style="fill:#c7c3c3;fill-opacity:1;stroke:none"
     inkscape:connector-curvature="0" /><path
     id="saaremaa"
     d="m 451.27,148.86 -1.5,-0.15 -2.7,3.23 v 1.51 l 0.9,0.35 1.75,0.05 2.9,-2.37 0.4,-0.81 -1.75,-1.81 0,0 z"
     style="fill:#c7c3c3;fill-opacity:1;stroke:none"
     inkscape:connector-curvature="0" /><path
     id="lithuania"
     d="m 455.47,151.84 -2.15,-0.05 -2.95,2.82 h -2.5 l 0.15,3.53 -1.5,2.77 5.4,0.05 1.55,-0.2 1.55,1.87 3.55,-0.15 3.4,-4.33 -0.2,-2.57 -6.3,-3.74 0,0 z"
     style="fill:#c7c3c3;fill-opacity:1;stroke:none"
     inkscape:connector-curvature="0" /><path
     id="belarus"
     d="m 455.32,163.43 1.5,2.47 -0.6,1.97 0.1,1.56 0.55,1.87 3.1,-1.76 3.85,0.1 2.7,1.11 h 6.85 l 2,-4.79 1.2,-1.81 v -1.21 l -4.3,-6.05 -3.8,-1.51 -3.1,-0.35 -2.7,0.86 0.1,2.72 -3.75,4.74 -3.7,0.08 0,0 z"
     style="fill:#c7c3c3;fill-opacity:1;stroke:none"
     inkscape:connector-curvature="0" /><path
     id="poland"
     d="m 456.12,171.9 0.85,1.56 0.2,1.66 -0.7,1.61 -1.6,3.08 -1.35,0.61 -1.75,-0.76 -1.05,0.05 -2.55,0.96 -2.9,-0.86 -4.7,-3.33 -4.6,-2.47 -1.85,-2.82 -0.35,-6.65 3.6,-3.13 4.7,-1.56 1.75,-0.2 -0.7,1.41 0.45,0.55 7.91,0.15 1.7,-0.05 2.8,4.29 -0.7,1.76 0.3,2.07 0.54,2.07 0,0 z"
     style="fill:#c7c3c3;fill-opacity:1;stroke:none"
     inkscape:connector-curvature="0" /><path
     id="spain"
     d="m 393.02,202.14 h -12.74 l -2.57,-1.16 -1.24,0.09 -1.5,3.12 0.53,3.21 4.87,0.45 0.62,2.05 -2.12,11.95 0.09,2.14 3.45,1.87 3.98,0.27 7.96,-1.96 3.89,-4.9 0.09,-4.99 6.9,-6.24 0.35,-2.76 -6.28,-0.09 -6.28,-3.05 0,0 z"
     style="fill:#c7c3c3;fill-opacity:1;stroke:none"
     inkscape:connector-curvature="0" /><path
     id="portugal"
     d="m 375.59,208.38 -0.62,8.65 -1.77,1.6 0.18,0.98 1.24,2.05 -0.8,2.5 1.33,0.45 3.1,-0.36 -0.18,-2.5 2.03,-11.59 -0.44,-1.6 -4.07,-0.18 0,0 z"
     style="fill:#c7c3c3;fill-opacity:1;stroke:none"
     inkscape:connector-curvature="0" /><path
     id="majorca"
     d="m 405.76,214.35 -1.59,0.54 0.35,1.43 h 2.3 l 0.97,-1.07 -2.03,-0.9 0,0 z"
     style="fill:#c7c3c3;fill-opacity:1;stroke:none"
     inkscape:connector-curvature="0" /><path
     id="sardinia"
     d="m 422.22,210.52 -2.65,1.34 0.35,5.17 2.12,0.36 1.59,-1.52 v -4.9 l -1.41,-0.45 0,0 z"
     style="fill:#c7c3c3;fill-opacity:1;stroke:none"
     inkscape:connector-curvature="0" /><path
     id="corsica"
     d="m 422.49,204.1 -1.95,1.96 -0.18,1.78 1.59,0.98 0.62,-0.09 0.35,-2.59 -0.43,-2.04 0,0 z"
     style="fill:#c7c3c3;fill-opacity:1;stroke:none"
     inkscape:connector-curvature="0" /><path
     id="france"
     d="m 405.06,175.84 -2.21,0.54 -4.42,4.81 -1.33,0.09 -1.77,-1.25 -1.15,0.27 -0.88,2.76 -6.46,0.18 0.18,1.43 4.42,2.94 5.13,4.1 -0.09,4.9 -2.74,4.81 5.93,2.85 6.02,0.18 1.86,-2.14 3.8,0.09 1.06,0.98 3.8,-0.27 1.95,-2.5 -2.48,-2.94 -0.18,-1.87 0.53,-2.05 -1.24,-1.78 -2.12,0.62 -0.27,-1.6 4.69,-5.17 v -3.12 l -3.1,-1.78 -1.59,-0.27 -7.34,-4.81 0,0 z"
     style="fill:#c7c3c3;fill-opacity:1;stroke:none"
     inkscape:connector-curvature="0" /><path
     id="netherlands"
     d="m 414.75,165.41 -4.53,2.23 0.96,0.87 0.1,2.23 -0.96,-0.19 -1.06,-1.65 -2.53,4.01 3.89,0.81 1.45,1.53 0.77,0.02 0.51,-3.46 2.45,-1.03 -1.05,-5.37 0,0 z"
     style="fill:#c7c3c3;fill-opacity:1;stroke:none"
     inkscape:connector-curvature="0" /><path
     id="belgium"
     d="m 406.27,173.66 -0.64,1.6 6.88,4.54 1.98,0.47 0.07,-2.15 -1.73,-1.94 h -1.06 l -1.45,-1.65 -4.05,-0.87 0,0 z"
     style="fill:#c7c3c3;fill-opacity:1;stroke:none"
     inkscape:connector-curvature="0" /><path
     id="germany"
     d="m 415.8,165.02 3.57,-0.58 v -2.52 l 2.99,-0.49 1.64,1.65 1.73,0.19 2.7,-1.17 2.41,0.68 2.12,1.84 0.29,6.89 2.12,2.82 -2.79,0.39 -4.63,2.91 0.39,0.97 4.14,3.88 -0.29,1.94 -3.85,1.94 -3.57,0.1 -0.87,1.84 h -1.83 l -0.87,-1.94 -3.18,-0.78 -0.1,-3.2 -2.7,-1.84 0.29,-2.33 -1.83,-2.52 0.48,-3.3 2.5,-1.17 -0.86,-6.2 0,0 z"
     style="fill:#c7c3c3;fill-opacity:1;stroke:none"
     inkscape:connector-curvature="0" /><path
     id="denmark"
     d="m 421.43,148.64 -4.15,4.59 -0.15,2.99 1.89,4.93 2.96,-0.56 -0.37,-4.03 2.04,-2.28 -0.04,-1.79 -1.44,-3.73 -0.74,-0.12 0,0 z"
     style="fill:#c7c3c3;fill-opacity:1;stroke:none"
     inkscape:connector-curvature="0" /><path
     id="sjlland"
     d="m 426.1,156.78 -0.93,-0.04 -1.22,1.12 0.15,1.75 2.89,0.08 0.15,-1.98 -1.04,-0.93 0,0 z"
     style="fill:#c7c3c3;fill-opacity:1;stroke:none"
     inkscape:connector-curvature="0" /><path
     id="gotland"
     d="m 443.15,147.31 -2.11,1.67 1.06,2.45 1.87,-1.82 -0.82,-2.3 0,0 z"
     style="fill:#c7c3c3;fill-opacity:1;stroke:none"
     inkscape:connector-curvature="0" /><path
     id="switzerland"
     d="m 417.57,186.52 -4.36,4.64 0.09,0.47 1.79,-0.56 1.61,2.24 2.72,-0.96 1.88,1.46 0.77,-0.44 2.32,-3.64 -0.59,-0.56 -2.29,-0.06 -1.11,-2.27 -2.83,-0.32 0,0 z"
     style="fill:#c7c3c3;fill-opacity:1;stroke:none"
     inkscape:connector-curvature="0" /><path
     id="czech"
     d="m 433.09,182.01 h 2.97 1.46 l 2.37,1.69 4.39,-3.65 -4.26,-3.04 -4.22,-2.04 -2.89,0.52 -3.92,2.52 4.1,4 0,0 z"
     style="fill:#c7c3c3;fill-opacity:1;stroke:none"
     inkscape:connector-curvature="0" /><path
     id="slovakia"
     d="m 440.5,184.27 0.69,0.61 0.09,1.04 7.63,-0.17 5.64,-2.43 -0.09,-2.47 -1.08,0.48 -1.55,-0.83 -0.95,-0.04 -2.5,1 -3.4,-0.82 -4.48,3.63 0,0 z"
     style="fill:#c7c3c3;fill-opacity:1;stroke:none"
     inkscape:connector-curvature="0" /><path
     id="austria"
     d="m 425.29,187.26 -0.65,1.35 0.56,0.96 2.33,-0.48 h 1.98 l 2.15,1.82 4.57,-0.83 3.36,-2 0.86,-1.35 -0.13,-1.74 -3.02,-2.26 -4.05,0.04 -0.34,2.3 -4.26,2.08 -3.36,0.11 0,0 z"
     style="fill:#c7c3c3;fill-opacity:1;stroke:none"
     inkscape:connector-curvature="0" /><path
     id="hungary"
     d="m 441.4,186.74 -1.16,1.82 0.09,2.78 1.85,0.95 5.69,0.17 7.93,-6.68 0.04,-1.48 -0.86,-0.43 -5.73,2.6 -7.85,0.27 0,0 z"
     style="fill:#c7c3c3;fill-opacity:1;stroke:none"
     inkscape:connector-curvature="0" /><path
     id="slovenia"
     d="m 439.46,189.13 -2.54,1.52 -4.74,1.04 0.95,2.74 3.32,0.04 3.06,-2.56 -0.05,-2.78 0,0 z"
     style="fill:#c7c3c3;fill-opacity:1;stroke:none"
     inkscape:connector-curvature="0" /><path
     id="croatia"
     d="m 440.28,192.3 -3.53,2.91 h -3.58 l -0.43,2.52 1.64,0.43 0.82,-1.22 1.29,1.13 1.03,3.6 7.07,3.3 0.7,-0.8 -7.17,-7.4 0.73,-1.35 6.81,-0.26 0.69,-2.17 -4.44,0.13 -1.63,-0.82 0,0 z"
     style="fill:#c7c3c3;fill-opacity:1;stroke:none"
     inkscape:connector-curvature="0" /><path
     id="bosnia"
     d="m 439.46,196.08 -0.37,0.61 6.71,6.92 2.46,-3.62 -0.09,-1.43 -2.15,-2.61 -6.56,0.13 0,0 z"
     style="fill:#c7c3c3;fill-opacity:1;stroke:none"
     inkscape:connector-curvature="0" /><path
     id="italy"
     d="m 416.93,194.12 -0.62,1.57 0.17,1.71 2.39,2.79 3.76,-0.13 8.3,9.64 5.18,1.5 3.06,2.89 0.73,6.59 1.64,-0.96 1.42,-3.59 -0.35,-2.58 2.43,-0.22 0.35,-1.46 -6.85,-3.28 -6.5,-6.39 -2.59,-3.82 -0.63,-3.63 3.31,-0.79 -0.85,-2.39 -2.03,-1.71 -1.75,-0.08 -2.44,0.67 -2.3,3.22 -1.39,0.92 -2.15,-1.32 -2.29,0.85 0,0 z"
     style="fill:#c7c3c3;fill-opacity:1;stroke:none"
     inkscape:connector-curvature="0" /><path
     id="sicily"
     d="m 437.1,220.16 -1.45,-0.78 -4.95,0.78 0.17,1.34 4.45,2.24 0.67,0.73 1.17,0.17 -0.06,-4.48 0,0 z"
     style="fill:#c7c3c3;fill-opacity:1;stroke:none"
     inkscape:connector-curvature="0" /><path
     id="malta"
     d="m 437.27,227.61 -1.67,0.34 0.06,1.85 1.5,0.5 0.67,-0.56 -0.56,-2.13 0,0 z"
     style="fill:#c7c3c3;fill-opacity:1;stroke:none"
     inkscape:connector-curvature="0" /><path
     id="ukraine"
     d="m 460.23,170.29 -2.9,1.63 0.72,3.08 -2.68,5.65 0.02,2.49 1.26,0.8 8.08,0.4 2.26,-1.87 2.42,0.81 3.47,4.63 -2.54,4.56 3.02,0.88 3.95,-4.55 2.26,0.41 2.1,1.46 -1.85,2.44 2.5,3.9 h 2.66 l 1.37,-2.6 2.82,-0.57 0.08,-2.11 -5.24,-0.81 0.16,-2.27 h 5.08 l 5.48,-4.39 2.42,-2.11 0.4,-6.66 -10.8,-0.97 -4.43,-6.25 -3.06,-1.05 -3.71,0.16 -1.67,4.13 -7.6,0.1 -2.47,-1.14 -3.58,-0.18 0,0 z"
     style="fill:#c7c3c3;fill-opacity:1;stroke:none"
     inkscape:connector-curvature="0" /><path
     id="moldova"
     d="m 465.41,184.85 3.1,4.77 -0.26,2.7 1.11,0.05 2.63,-4.45 -3.16,-3.92 -1.79,-0.74 -1.63,1.59 0,0 z"
     style="fill:#c7c3c3;fill-opacity:1;stroke:none"
     inkscape:connector-curvature="0" /><path
     id="romania"
     d="m 456.84,184.74 -0.26,1.48 -5.79,4.82 4.84,7.1 3.1,2.17 h 5.58 l 1.84,-1.54 2.47,-0.32 1.84,1.11 3.26,-3.71 -0.63,-1.86 -3.31,-0.85 -2.26,-0.11 0.11,-3.18 -3,-4.72 -7.79,-0.39 0,0 z"
     style="fill:#c7c3c3;fill-opacity:1;stroke:none"
     inkscape:connector-curvature="0" /><path
     id="serbia and montenegro"
     d="m 450.21,191.68 -2.05,1.54 h -1 l -0.68,2.12 2.42,2.81 0.16,2.23 -3,4.24 0.42,1.27 1.74,0.32 1.37,-1.86 0.74,-0.05 1.26,1.22 3.84,-1.17 -0.32,-5.46 -4.9,-7.21 0,0 z"
     style="fill:#c7c3c3;fill-opacity:1;stroke:none"
     inkscape:connector-curvature="0" /><path
     id="bulgaria"
     d="m 456.1,199.53 0.16,4.98 1.68,3.5 6.31,0.11 2.84,-2.01 2.79,-1.11 -0.68,-3.18 0.63,-1.7 -1.42,-0.74 -1.95,0.16 -1.53,1.54 -6.42,0.05 -2.41,-1.6 0,0 z"
     style="fill:#c7c3c3;fill-opacity:1;stroke:none"
     inkscape:connector-curvature="0" /><path
     id="albania"
     d="m 448.68,206.9 v 4.61 l 1.32,2.49 0.95,-0.11 1.63,-2.97 -0.95,-1.33 -0.37,-3.29 -1.26,-1.17 -1.32,1.77 0,0 z"
     style="fill:#c7c3c3;fill-opacity:1;stroke:none"
     inkscape:connector-curvature="0" /><path
     id="macedonia"
     d="m 455.58,205.15 -3.37,1.11 0.16,2.86 0.79,1.01 4,-1.86 -1.58,-3.12 0,0 z"
     style="fill:#c7c3c3;fill-opacity:1;stroke:none"
     inkscape:connector-curvature="0" /><path
     id="greece"
     d="m 451.37,214.74 -0.11,1.33 4.63,2.33 2.21,0.85 -1.16,1.22 -2.58,0.26 -0.37,1.17 0.89,2.01 2.89,1.54 1.26,0.11 0.16,-3.45 1.89,-2.28 -5.16,-6.1 0.68,-2.07 1.21,-0.05 1.84,1.48 1.16,-0.58 0.37,-2.07 5.42,0.05 0.21,-3.18 -2.26,1.59 -6.63,-0.16 -4.31,2.23 -2.24,3.77 0,0 z"
     style="fill:#c7c3c3;fill-opacity:1;stroke:none"
     inkscape:connector-curvature="0" /><path
     id="thrace"
     d="m 467.68,206.84 -0.16,3.55 3.1,-0.95 1.42,-0.95 -0.42,-1.54 -1.47,-1.17 -2.47,1.06 0,0 z"
     style="fill:#c7c3c3;fill-opacity:1;stroke:none"
     inkscape:connector-curvature="0" /><path
     id="crete"
     d="m 461.42,227.73 1.63,0.05 0.68,1.01 h 2.37 l 1.58,-0.58 0.53,0.64 -1.05,1.38 -4.63,0.16 -0.84,-1.11 -0.89,-0.53 0.62,-1.02 0,0 z"
     style="fill:#c7c3c3;fill-opacity:1;stroke:none"
     inkscape:connector-curvature="0" /></svg>